<?xml version="1.0" encoding="UTF-8"?>
<svg width="495.34" height="141.17" version="1.1" viewBox="0, 0, 495.34, 141.167" xmlns="http://www.w3.org/2000/svg" xmlns:cc="http://creativecommons.org/ns#" xmlns:dc="http://purl.org/dc/elements/1.1/" xmlns:rdf="http://www.w3.org/1999/02/22-rdf-syntax-ns#"><metadata><rdf:RDF><cc:Work rdf:about=""><dc:format>image/svg+xml</dc:format><dc:type rdf:resource="http://purl.org/dc/dcmitype/StillImage"/></cc:Work></rdf:RDF></metadata><defs><linearGradient id="a" x1="231" x2="231" y1="68" y2="68" gradientUnits="userSpaceOnUse"><stop stop-color="#fff" offset=".324"/><stop offset="1"/></linearGradient></defs><path d="m210.81 25.888h73.714c6.628 0 12 5.373 12 12v55.951c0 6.627-5.372 12-12 12h-73.714c-6.628 0-12-5.373-12-12v-55.951c0-6.627 5.372-12 12-12z" fill="#89c263"/><path d="m378.59 42.877h99.233v83.734h-99.233v-83.734z" fill="#fff"/><path d="m378.59 42.877h99.233v83.734h-99.233v-83.734z" fill-opacity="0" stroke="#6cb33e" stroke-width="2"/><g transform="translate(247.67,65.863)" fill="#fff" style=""><path d="m-29.977-12h-3.4644v-10.232h2.6807q1.2671 0 1.9775 0.34424 0.71045 0.33691 1.084 0.9375 0.37354 0.59326 0.37354 1.377 0 1.5088-1.5601 2.1606 1.1206 0.2124 1.7798 0.92285 0.6665 0.71045 0.6665 1.6992 0 0.78369-0.40283 1.3989-0.40283 0.61524-1.1865 1.0034-0.77637 0.38818-1.9482 0.38818zm-0.73975-8.9282h-1.2598v3.0762h0.97412q1.1719 0 1.6626-0.44678 0.49805-0.44678 0.49805-1.1572 0-1.4722-1.875-1.4722zm0.10986 4.3799h-1.3696v3.2446h1.4429q1.2012 0 1.626-0.1831 0.43213-0.19043 0.68848-0.58594 0.26367-0.39551 0.26367-0.84961 0-0.46875-0.27832-0.85693-0.271-0.38818-0.77637-0.57861t-1.5967-0.19043z"/><path d="m-20.895-12v-0.85693q-0.4248 0.46143-0.97412 0.71777-0.54199 0.25635-1.084 0.25635-0.63721 0-1.1792-0.31494-0.53467-0.32227-0.81299-0.86426-0.271-0.54932-0.271-1.8164v-3.8599h1.333v3.8452q0 1.062 0.30029 1.4868 0.30762 0.41748 1.0693 0.41748 0.95215 0 1.6187-0.93018v-4.8193h1.333v6.7383h-1.333z"/><path d="m-18.016-12.483v-1.4355q0.56396 0.39551 1.1499 0.64453 0.59326 0.2417 0.99609 0.2417 0.41748 0 0.71777-0.20508t0.30029-0.49072q0-0.29297-0.19775-0.4834-0.19043-0.19775-0.83496-0.56396-1.2891-0.71777-1.6919-1.2231-0.39551-0.5127-0.39551-1.1133 0-0.77637 0.60059-1.2671 0.60791-0.49072 1.5601-0.49072 0.98877 0 2.0288 0.55664v1.3184q-1.1865-0.71777-1.9409-0.71777-0.38818 0-0.62988 0.16846-0.23438 0.16113-0.23438 0.43213 0 0.23438 0.2124 0.44678 0.21973 0.2124 0.76172 0.5127l0.47607 0.271q1.6846 0.95215 1.6846 2.1094 0 0.82764-0.65186 1.3623-0.64453 0.52734-1.6626 0.52734-0.60059 0-1.0693-0.12451-0.46875-0.13184-1.1792-0.47607z"/><path d="m-11.256-21.573q0.32959 0 0.56396 0.22705t0.23438 0.55664q0 0.32226-0.23438 0.55664t-0.56396 0.23438q-0.30762 0-0.54199-0.23438-0.23438-0.2417-0.23438-0.55664 0-0.30762 0.23438-0.54199 0.23438-0.2417 0.54199-0.2417zm-0.65918 2.8345h1.333v6.7383h-1.333v-6.7383z"/><path d="m-7.3302-18.738v0.85693q0.89355-0.98877 2.0288-0.98877 0.62988 0 1.1719 0.32959 0.54199 0.32226 0.82031 0.89355 0.28564 0.56396 0.28564 1.7944v3.8525h-1.333v-3.8379q0-1.0327-0.31494-1.4722-0.31494-0.44678-1.0547-0.44678-0.94482 0-1.604 0.94482v4.812h-1.3623v-6.7383h1.3623z"/><path d="m4.5789-15.252h-4.7388q0.05127 0.9668 0.64453 1.5381 0.60059 0.57129 1.5454 0.57129 1.3184 0 2.4316-0.82031v1.3037q-0.61523 0.41016-1.2231 0.58594-0.60059 0.17578-1.4136 0.17578-1.1133 0-1.8018-0.46143t-1.106-1.2378q-0.41016-0.78369-0.41016-1.8091 0-1.5381 0.87158-2.4976 0.87158-0.9668 2.2632-0.9668 1.3403 0 2.1387 0.9375 0.79834 0.9375 0.79834 2.5122v0.16846zm-4.7095-0.79834h3.3911q-0.05127-0.79834-0.47607-1.2305-0.4248-0.43213-1.1426-0.43213-0.71777 0-1.1792 0.43213-0.4541 0.43213-0.59326 1.2305z"/><path d="m5.6849-12.483v-1.4355q0.56396 0.39551 1.1499 0.64453 0.59326 0.2417 0.99609 0.2417 0.41748 0 0.71777-0.20508 0.30029-0.20508 0.30029-0.49072 0-0.29297-0.19775-0.4834-0.19043-0.19775-0.83496-0.56396-1.2891-0.71777-1.6919-1.2231-0.39551-0.5127-0.39551-1.1133 0-0.77637 0.60059-1.2671 0.60791-0.49072 1.5601-0.49072 0.98877 0 2.0288 0.55664v1.3184q-1.1865-0.71777-1.9409-0.71777-0.38818 0-0.62988 0.16846-0.23438 0.16113-0.23438 0.43213 0 0.23438 0.2124 0.44678 0.21973 0.2124 0.76172 0.5127l0.47607 0.271q1.6846 0.95215 1.6846 2.1094 0 0.82764-0.65186 1.3623-0.64453 0.52734-1.6626 0.52734-0.60059 0-1.0693-0.12451-0.46875-0.13184-1.1792-0.47607z"/><path d="m11.427-12.483v-1.4355q0.56396 0.39551 1.1499 0.64453 0.59326 0.2417 0.99609 0.2417 0.41748 0 0.71777-0.20508t0.30029-0.49072q0-0.29297-0.19775-0.4834-0.19043-0.19775-0.83496-0.56396-1.2891-0.71777-1.6919-1.2231-0.39551-0.5127-0.39551-1.1133 0-0.77637 0.60059-1.2671 0.60791-0.49072 1.5601-0.49072 0.98877 0 2.0288 0.55664v1.3184q-1.1865-0.71777-1.9409-0.71777-0.38818 0-0.62988 0.16846-0.23438 0.16113-0.23438 0.43213 0 0.23438 0.2124 0.44678 0.21973 0.2124 0.76172 0.5127l0.47607 0.271q1.6846 0.95215 1.6846 2.1094 0 0.82764-0.65186 1.3623-0.64453 0.52734-1.6626 0.52734-0.60059 0-1.0693-0.12451-0.46875-0.13184-1.1792-0.47607z"/><path d="m-33.426-5.2319h1.4648v10.232h-1.4648v-10.232z"/><path d="m-28.541-1.7383v0.85693q0.89355-0.98877 2.0288-0.98877 0.62988 0 1.1719 0.32959 0.54199 0.32227 0.82031 0.89355 0.28564 0.56396 0.28564 1.7944v3.8525h-1.333v-3.8379q0-1.0327-0.31494-1.4722-0.31494-0.44678-1.0547-0.44678-0.94482 0-1.604 0.94482v4.812h-1.3623v-6.7383h1.3623z"/><path d="m-23.319-0.66895 2.5049-2.4609v1.3916h2.1313v1.2012h-2.1313v3.3032q0 1.1572 0.95947 1.1572 0.71777 0 1.5161-0.4834v1.2451q-0.76904 0.43213-1.6772 0.43213-0.91553 0-1.5234-0.53467-0.19043-0.16113-0.31494-0.35889-0.12451-0.20508-0.2124-0.52734-0.08057-0.32959-0.08057-1.2451v-2.9883h-1.1719v-0.13184z"/><path d="m-11.622 1.748h-4.7388q0.05127 0.9668 0.64453 1.5381 0.60059 0.57129 1.5454 0.57129 1.3184 0 2.4316-0.82031v1.3037q-0.61524 0.41016-1.2231 0.58594-0.60059 0.17578-1.4136 0.17578-1.1133 0-1.8018-0.46143t-1.106-1.2378q-0.41016-0.78369-0.41016-1.8091 0-1.5381 0.87158-2.4976 0.87158-0.9668 2.2632-0.9668 1.3403 0 2.1387 0.9375 0.79834 0.9375 0.79834 2.5122v0.16846zm-4.7095-0.79834h3.3911q-0.05127-0.79834-0.47607-1.2305-0.4248-0.43213-1.1426-0.43213-0.71777 0-1.1792 0.43213-0.4541 0.43213-0.59326 1.2305z"/><path d="m-10.157-5.2319h1.333v10.232h-1.333v-10.232z"/><path d="m-6.8468-5.2319h1.333v10.232h-1.333v-10.232z"/><path d="m-2.8771-4.5728q0.32959 0 0.56396 0.22705t0.23438 0.55664q0 0.32227-0.23438 0.55664t-0.56396 0.23438q-0.30762 0-0.54199-0.23438-0.23438-0.2417-0.23438-0.55664 0-0.30762 0.23438-0.54199 0.23438-0.2417 0.54199-0.2417zm-0.65918 2.8345h1.333v6.7383h-1.333v-6.7383z"/><path d="m-0.62857 0.59082q0-1.0767 0.78369-1.6992 0.79102-0.62988 2.1533-0.62988h2.7759v1.04h-1.3623q0.39551 0.40283 0.54932 0.73242 0.15381 0.32959 0.15381 0.75439 0 0.52734-0.30029 1.04-0.30029 0.50537-0.77637 0.77637-0.46875 0.271-1.5454 0.43213-0.75439 0.10986-0.75439 0.52002 0 0.23438 0.27832 0.38818 0.28564 0.14648 1.0254 0.30762 1.2378 0.271 1.5894 0.4248 0.35889 0.15381 0.64453 0.43945 0.4834 0.4834 0.4834 1.2158 0 0.95947-0.85693 1.5308-0.84961 0.57129-2.2778 0.57129-1.4429 0-2.3071-0.57861-0.85693-0.57129-0.85693-1.5381 0-1.3696 1.6919-1.7651-0.67383-0.43213-0.67383-0.85693 0-0.32227 0.28564-0.58594 0.29297-0.26367 0.78369-0.38818-1.4868-0.65918-1.4868-2.1313zm2.5049-1.1719q-0.54199 0-0.92285 0.36621-0.38086 0.36621-0.38086 0.87891 0 0.52002 0.37354 0.86426 0.37354 0.33691 0.94482 0.33691 0.56396 0 0.9375-0.34424 0.38086-0.35156 0.38086-0.87158 0-0.52734-0.38086-0.87891t-0.95215-0.35156zm-0.31494 5.896q-0.67383 0-1.106 0.28564-0.4248 0.28564-0.4248 0.73242 0 1.04 1.875 1.04 0.88623 0 1.3696-0.26367 0.49072-0.25635 0.49072-0.73242 0-0.46875-0.61523-0.76904-0.61523-0.29297-1.5894-0.29297z"/><path d="m11.874 1.748h-4.7388q0.05127 0.9668 0.64453 1.5381 0.60059 0.57129 1.5454 0.57129 1.3184 0 2.4316-0.82031v1.3037q-0.61523 0.41016-1.2231 0.58594-0.60059 0.17578-1.4136 0.17578-1.1133 0-1.8018-0.46143-0.68848-0.46143-1.106-1.2378-0.41016-0.78369-0.41016-1.8091 0-1.5381 0.87158-2.4976 0.87158-0.9668 2.2632-0.9668 1.3403 0 2.1387 0.9375 0.79834 0.9375 0.79834 2.5122v0.16846zm-4.7095-0.79834h3.3911q-0.05127-0.79834-0.47607-1.2305-0.4248-0.43213-1.1426-0.43213-0.71777 0-1.1792 0.43213-0.4541 0.43213-0.59326 1.2305z"/><path d="m14.642-1.7383v0.85693q0.89355-0.98877 2.0288-0.98877 0.62988 0 1.1719 0.32959 0.54199 0.32227 0.82031 0.89355 0.28564 0.56396 0.28564 1.7944v3.8525h-1.333v-3.8379q0-1.0327-0.31494-1.4722-0.31494-0.44678-1.0547-0.44678-0.94482 0-1.604 0.94482v4.812h-1.3623v-6.7383h1.3623z"/><path d="m25.863 3.4253v1.3184q-1.0034 0.37354-1.9629 0.37354-1.582 0-2.5269-0.9375-0.9375-0.9375-0.9375-2.5122 0-1.5894 0.91553-2.5635 0.91553-0.97412 2.4097-0.97412 0.52002 0 0.93018 0.10254 0.41748 0.095215 1.0254 0.36621v1.4209q-1.0107-0.64453-1.875-0.64453-0.90088 0-1.4795 0.63721-0.57861 0.62988-0.57861 1.6113 0 1.0327 0.62256 1.6406 0.62988 0.60791 1.6919 0.60791 0.76904 0 1.7651-0.44678z"/><path d="m33.114 1.748h-4.7388q0.05127 0.9668 0.64453 1.5381 0.60059 0.57129 1.5454 0.57129 1.3184 0 2.4316-0.82031v1.3037q-0.61524 0.41016-1.2231 0.58594-0.60059 0.17578-1.4136 0.17578-1.1133 0-1.8018-0.46143-0.68848-0.46143-1.106-1.2378-0.41016-0.78369-0.41016-1.8091 0-1.5381 0.87158-2.4976 0.87158-0.9668 2.2632-0.9668 1.3403 0 2.1387 0.9375 0.79834 0.9375 0.79834 2.5122v0.16846zm-4.7095-0.79834h3.3911q-0.05127-0.79834-0.47607-1.2305-0.4248-0.43213-1.1426-0.43213-0.71777 0-1.1792 0.43213-0.4541 0.43213-0.59326 1.2305z"/><path d="m-24.623 19.627v1.6113q-1.6113 0.87891-3.7207 0.87891-1.7139 0-2.9077-0.68848-1.1938-0.68848-1.8896-1.897-0.6958-1.2085-0.6958-2.6147 0-2.2339 1.5894-3.7573 1.5967-1.5234 3.9331-1.5234 1.6113 0 3.5815 0.84229v1.5747q-1.7944-1.0254-3.5083-1.0254-1.7578 0-2.9224 1.1133-1.1572 1.106-1.1572 2.7759 0 1.6846 1.1426 2.7686 1.1426 1.084 2.9224 1.084 1.8604 0 3.6328-1.1426z"/><path d="m-19.767 15.247q1.5381 0 2.5562 0.99609 1.0181 0.98877 1.0181 2.4902 0 1.4575-1.0327 2.4243-1.0327 0.95947-2.6001 0.95947-1.5161 0-2.5342-0.97412-1.0181-0.98144-1.0181-2.4463 0-1.4795 1.0254-2.4609 1.0327-0.98877 2.5854-0.98877zm-0.07324 1.2012q-0.95947 0-1.5747 0.62988-0.61524 0.62988-0.61524 1.604 0 0.9668 0.62988 1.582 0.62988 0.60791 1.6187 0.60791 0.98145 0 1.604-0.61523 0.62988-0.62256 0.62988-1.5894 0-0.95947-0.65186-1.5894-0.65186-0.62988-1.6406-0.62988z"/><path d="m-13.395 15.262v0.85693q0.89356-0.98877 2.0288-0.98877 0.62988 0 1.1719 0.32959 0.54199 0.32226 0.82031 0.89355 0.28564 0.56396 0.28564 1.7944v3.8525h-1.333v-3.8379q0-1.0327-0.31494-1.4722-0.31494-0.44678-1.0547-0.44678-0.94482 0-1.604 0.94482v4.812h-1.3623v-6.7383h1.3623z"/><path d="m-5.8947 15.262v0.85693q0.89355-0.98877 2.0288-0.98877 0.62988 0 1.1719 0.32959 0.54199 0.32226 0.82031 0.89355 0.28564 0.56396 0.28564 1.7944v3.8525h-1.333v-3.8379q0-1.0327-0.31494-1.4722-0.31494-0.44678-1.0547-0.44678-0.94482 0-1.604 0.94482v4.812h-1.3623v-6.7383h1.3623z"/><path d="m6.0145 18.748h-4.7388q0.051269 0.9668 0.64453 1.5381 0.60059 0.57129 1.5454 0.57129 1.3184 0 2.4316-0.82031v1.3037q-0.61523 0.41016-1.2231 0.58594-0.60059 0.17578-1.4136 0.17578-1.1133 0-1.8018-0.46143-0.68848-0.46143-1.106-1.2378-0.41016-0.78369-0.41016-1.8091 0-1.5381 0.87158-2.4976 0.87158-0.9668 2.2632-0.9668 1.3403 0 2.1387 0.9375t0.79834 2.5122v0.16846zm-4.7095-0.79834h3.3911q-0.05127-0.79834-0.47607-1.2305-0.4248-0.43213-1.1426-0.43213-0.71777 0-1.1792 0.43213-0.4541 0.43213-0.59326 1.2305z"/><path d="m12.504 20.425v1.3184q-1.0034 0.37354-1.9629 0.37354-1.582 0-2.5269-0.9375-0.9375-0.9375-0.9375-2.5122 0-1.5894 0.91553-2.5635 0.91553-0.97412 2.4097-0.97412 0.52002 0 0.93018 0.10254 0.41748 0.09521 1.0254 0.36621v1.4209q-1.0107-0.64453-1.875-0.64453-0.90088 0-1.4795 0.63721-0.57861 0.62988-0.57861 1.6113 0 1.0327 0.62256 1.6406 0.62988 0.60791 1.6919 0.60791 0.76904 0 1.7651-0.44678z"/><path d="m13.068 16.331 2.5049-2.4609v1.3916h2.1313v1.2012h-2.1313v3.3032q0 1.1572 0.95947 1.1572 0.71777 0 1.5161-0.4834v1.2451q-0.76904 0.43213-1.6772 0.43213-0.91553 0-1.5234-0.53467-0.19043-0.16113-0.31494-0.35889-0.12451-0.20508-0.2124-0.52734-0.08057-0.32959-0.08057-1.2451v-2.9883h-1.1719v-0.13184z"/><path d="m22.245 15.247q1.5381 0 2.5562 0.99609 1.0181 0.98877 1.0181 2.4902 0 1.4575-1.0327 2.4243-1.0327 0.95947-2.6001 0.95947-1.5161 0-2.5342-0.97412-1.0181-0.98144-1.0181-2.4463 0-1.4795 1.0254-2.4609 1.0327-0.98877 2.5854-0.98877zm-0.07324 1.2012q-0.95947 0-1.5747 0.62988-0.61523 0.62988-0.61523 1.604 0 0.9668 0.62988 1.582 0.62988 0.60791 1.6187 0.60791 0.98144 0 1.604-0.61523 0.62988-0.62256 0.62988-1.5894 0-0.95947-0.65186-1.5894-0.65186-0.62988-1.6406-0.62988z"/><path d="m28.712 15.262v1.5454l0.07324-0.11719q0.9668-1.5601 1.9336-1.5601 0.75439 0 1.5747 0.76172l-0.70312 1.1719q-0.6958-0.65918-1.2891-0.65918-0.64453 0-1.1206 0.61523-0.46875 0.61524-0.46875 1.4575v3.5229h-1.3403v-6.7383h1.3403z"/></g><path d="m130.85 58.881 61.941-16.597" fill="#358ec4"/><path d="m130.85 58.881 61.941-16.597" fill-opacity="0" stroke="#358ec4" stroke-miterlimit="10" stroke-width="3.606"/><path d="m124.82 60.495 10.184-10.195 3.733 13.932-13.917-3.737z" fill="#358ec4"/><path d="m124.82 60.495 10.184-10.195 3.733 13.932-13.917-3.737z" fill-opacity="0" stroke="#358ec4" stroke-width=".4"/><g transform="matrix(.966 -.259 .259 .966 154.62 40.533)" fill="#2a86c0" style=""><path d="m-22.381 4.5166v-1.4355q0.56396 0.39551 1.1499 0.64453 0.59326 0.2417 0.99609 0.2417 0.41748 0 0.71777-0.20508 0.30029-0.20508 0.30029-0.49072 0-0.29297-0.19775-0.4834-0.19043-0.19775-0.83496-0.56396-1.2891-0.71777-1.6919-1.2231-0.39551-0.5127-0.39551-1.1133 0-0.77637 0.60059-1.2671 0.60791-0.49072 1.5601-0.49072 0.98877 0 2.0288 0.55664v1.3184q-1.1865-0.71777-1.9409-0.71777-0.38818 0-0.62988 0.16846-0.23438 0.16113-0.23438 0.43213 0 0.23438 0.2124 0.44678 0.21973 0.2124 0.76172 0.5127l0.47607 0.271q1.6846 0.95215 1.6846 2.1094 0 0.82764-0.65186 1.3623-0.64453 0.52734-1.6626 0.52734-0.60059 0-1.0693-0.12451-0.46875-0.13184-1.1792-0.47607z"/><path d="m-11.255 3.4253v1.3184q-1.0034 0.37354-1.9629 0.37354-1.582 0-2.5269-0.9375-0.9375-0.9375-0.9375-2.5122 0-1.5894 0.91553-2.5635 0.91553-0.97412 2.4097-0.97412 0.52002 0 0.93018 0.10254 0.41748 0.095215 1.0254 0.36621v1.4209q-1.0107-0.64453-1.875-0.64453-0.90088 0-1.4795 0.63721-0.57861 0.62988-0.57861 1.6113 0 1.0327 0.62256 1.6406 0.62988 0.60791 1.6919 0.60791 0.76904 0 1.7651-0.44678z"/><path d="m-9.7758-5.2319h1.333v4.3799q0.83496-1.0181 2.0728-1.0181 0.67383 0 1.2085 0.33691 0.53467 0.33691 0.79102 0.93018 0.26367 0.59326 0.26367 1.7651v3.8379h-1.333v-4.1675q0-0.73975-0.36621-1.1865-0.35889-0.4541-0.95215-0.4541-0.43945 0-0.82764 0.22705t-0.85693 0.75439v4.8267h-1.333v-10.232z"/><path d="m3.4957 1.748h-4.7388q0.05127 0.9668 0.64453 1.5381 0.60059 0.57129 1.5454 0.57129 1.3184 0 2.4316-0.82031v1.3037q-0.61523 0.41016-1.2231 0.58594-0.60059 0.17578-1.4136 0.17578-1.1133 0-1.8018-0.46143-0.68848-0.46143-1.106-1.2378-0.41016-0.78369-0.41016-1.8091 0-1.5381 0.87158-2.4976 0.87158-0.9668 2.2632-0.9668 1.3403 0 2.1387 0.9375 0.79834 0.9375 0.79834 2.5122v0.16846zm-4.7095-0.79834h3.3911q-0.05127-0.79834-0.47607-1.2305-0.4248-0.43213-1.1426-0.43213-0.71777 0-1.1792 0.43213-0.4541 0.43213-0.59326 1.2305z"/><path d="m10.454 0.10742v4.8926h-1.3403v-3.75q0-1.1206-0.30029-1.5601-0.30029-0.44678-1.0474-0.44678-0.41748 0-0.76904 0.19043-0.34424 0.19043-0.79102 0.67383v4.8926h-1.333v-6.7383h1.333v0.88623q1.0181-1.0181 1.9922-1.0181 1.2817 0 1.9849 1.2158 1.0693-1.2305 2.2339-1.2305 0.98145 0 1.6113 0.71777 0.63721 0.71777 0.63721 2.1899v3.9771h-1.333v-3.9917q0-0.84229-0.34424-1.2891-0.34424-0.44678-0.98877-0.44678-0.82764 0-1.5454 0.83496z"/><path d="m20.708 0.94971v2.8638q0 0.34424 0.23438 0.34424 0.2417 0 0.7544-0.35889v0.81299q-0.4541 0.29297-0.73242 0.39551-0.271 0.10986-0.57129 0.10986-0.85693 0-1.0107-0.67383-0.84961 0.65918-1.8091 0.65918-0.70312 0-1.1719-0.46143-0.46875-0.46875-0.46875-1.1719 0-0.63721 0.4541-1.1353 0.46143-0.50537 1.3037-0.79834l1.7065-0.58594v-0.35889q0-1.2158-1.2158-1.2158-1.0913 0-2.124 1.1279v-1.4575q0.77637-0.91553 2.2339-0.91553 1.0913 0 1.7505 0.57129 0.21973 0.18311 0.39551 0.49072 0.17578 0.30029 0.21973 0.60791 0.05127 0.30029 0.05127 1.1499zm-1.311 2.7173v-1.9995l-0.89356 0.34424q-0.68115 0.271-0.9668 0.54932-0.27832 0.271-0.27832 0.68115 0 0.41748 0.26367 0.68115 0.271 0.26367 0.6958 0.26367 0.63721 0 1.1792-0.52002z"/></g><path d="m124.82 86.452 61.941-16.597" fill="#6cb33f"/><path d="m124.82 86.452 61.941-16.597" fill-opacity="0" stroke="#6cb33f" stroke-linecap="square" stroke-miterlimit="10" stroke-width="3.606"/><path d="m192.79 68.24-10.184 10.195-3.733-13.931 13.917 3.736z" fill="#6cb33f"/><path d="m192.79 68.24-10.184 10.195-3.733-13.931 13.917 3.736z" fill-opacity="0" stroke="#6cb33f" stroke-linecap="square" stroke-miterlimit="10" stroke-width=".4"/><g transform="matrix(.966 -.259 .259 .966 154.62 64.875)" fill="#6cb33f" style=""><path d="m-18.561-1.7383h2.5195v10.173h-1.333v-3.5522q-0.87158 0.23438-1.4722 0.23438-1.4355 0-2.373-0.9668-0.9375-0.9668-0.9375-2.4536 0-1.5747 0.97412-2.5049 0.97412-0.93018 2.6221-0.93018zm1.1865 5.4639v-4.2187h-0.84228q-0.86426 0-1.1572 0.080566-0.28564 0.073242-0.49805 0.2124-0.2124 0.13184-0.38818 0.32959-0.54932 0.62256-0.54932 1.5381 0 1.0327 0.61523 1.6919 0.62256 0.65186 1.604 0.65186 0.22705 0 0.37354-0.029297t0.64453-0.19775l0.10254-0.029297 0.09521-0.029297z"/><path d="m-9.9482 5v-0.85693q-0.4248 0.46143-0.97412 0.71777-0.54199 0.25635-1.084 0.25635-0.63721 0-1.1792-0.31494-0.53467-0.32227-0.81299-0.86426-0.271-0.54932-0.271-1.8164v-3.8599h1.333v3.8452q0 1.062 0.30029 1.4868 0.30762 0.41748 1.0693 0.41748 0.95215 0 1.6187-0.93018v-4.8193h1.333v6.7383h-1.333z"/><path d="m-0.99799 1.748h-4.7388q0.05127 0.9668 0.64453 1.5381 0.60059 0.57129 1.5454 0.57129 1.3184 0 2.4316-0.82031v1.3037q-0.61523 0.41016-1.2231 0.58594-0.60059 0.17578-1.4136 0.17578-1.1133 0-1.8018-0.46143t-1.106-1.2378q-0.41016-0.78369-0.41016-1.8091 0-1.5381 0.87158-2.4976 0.87158-0.9668 2.2632-0.9668 1.3403 0 2.1387 0.9375 0.79834 0.9375 0.79834 2.5122v0.16846zm-4.7095-0.79834h3.3911q-0.05127-0.79834-0.47607-1.2305-0.4248-0.43213-1.1426-0.43213-0.71777 0-1.1792 0.43213-0.4541 0.43213-0.59326 1.2305z"/><path d="m1.8658-1.7383v1.5454l0.073242-0.11719q0.9668-1.5601 1.9336-1.5601 0.75439 0 1.5747 0.76172l-0.70312 1.1719q-0.6958-0.65918-1.2891-0.65918-0.64453 0-1.1206 0.61523-0.46875 0.61523-0.46875 1.4575v3.5229h-1.3403v-6.7383h1.3403z"/><path d="m7.0733-4.5728q0.32959 0 0.56396 0.22705t0.23438 0.55664q0 0.32227-0.23438 0.55664t-0.56396 0.23438q-0.30762 0-0.54199-0.23438-0.23438-0.2417-0.23438-0.55664 0-0.30762 0.23438-0.54199 0.23438-0.2417 0.54199-0.2417zm-0.65918 2.8345h1.333v6.7383h-1.333v-6.7383z"/><path d="m15.408 1.748h-4.7388q0.05127 0.9668 0.64453 1.5381 0.60059 0.57129 1.5454 0.57129 1.3184 0 2.4316-0.82031v1.3037q-0.61524 0.41016-1.2231 0.58594-0.60059 0.17578-1.4136 0.17578-1.1133 0-1.8018-0.46143-0.68848-0.46143-1.106-1.2378-0.41016-0.78369-0.41016-1.8091 0-1.5381 0.87158-2.4976 0.87158-0.9668 2.2632-0.9668 1.3403 0 2.1387 0.9375 0.79834 0.9375 0.79834 2.5122v0.16846zm-4.7095-0.79834h3.3911q-0.05127-0.79834-0.47607-1.2305-0.4248-0.43213-1.1426-0.43213-0.71777 0-1.1792 0.43213-0.4541 0.43213-0.59326 1.2305z"/><path d="m16.514 4.5166v-1.4355q0.56396 0.39551 1.1499 0.64453 0.59326 0.2417 0.99609 0.2417 0.41748 0 0.71777-0.20508 0.30029-0.20508 0.30029-0.49072 0-0.29297-0.19775-0.4834-0.19043-0.19775-0.83496-0.56396-1.2891-0.71777-1.6919-1.2231-0.39551-0.5127-0.39551-1.1133 0-0.77637 0.60059-1.2671 0.60791-0.49072 1.5601-0.49072 0.98877 0 2.0288 0.55664v1.3184q-1.1865-0.71777-1.9409-0.71777-0.38818 0-0.62988 0.16846-0.23438 0.16113-0.23438 0.43213 0 0.23438 0.2124 0.44678 0.21973 0.2124 0.76172 0.5127l0.47607 0.271q1.6846 0.95215 1.6846 2.1094 0 0.82764-0.65186 1.3623-0.64453 0.52734-1.6626 0.52734-0.60058 0-1.0693-0.12451-0.46875-0.13184-1.1792-0.47607z"/></g><path d="m130.85 108.42 61.941-16.597" fill="#358ec4"/><path d="m130.85 108.42 61.941-16.597" fill-opacity="0" stroke="#358ec4" stroke-linecap="square" stroke-miterlimit="10" stroke-width="3.606"/><path d="m124.82 110.03 10.184-10.194 3.733 13.931-13.917-3.737z" fill="#358ec4"/><path d="m124.82 110.03 10.184-10.194 3.733 13.931-13.917-3.737z" fill-opacity="0" stroke="#358ec4" stroke-linecap="square" stroke-miterlimit="10" stroke-width=".4"/><g transform="matrix(.966 -.259 .259 .966 154.62 89.174)" fill="#2a86c0" style=""><path d="m-28.427-1.7383v1.5454l0.07324-0.11719q0.9668-1.5601 1.9336-1.5601 0.75439 0 1.5747 0.76172l-0.70312 1.1719q-0.6958-0.65918-1.2891-0.65918-0.64453 0-1.1206 0.61523-0.46875 0.61523-0.46875 1.4575v3.5229h-1.3403v-6.7383h1.3403z"/><path d="m-18.459 1.748h-4.7388q0.05127 0.9668 0.64453 1.5381 0.60059 0.57129 1.5454 0.57129 1.3184 0 2.4316-0.82031v1.3037q-0.61524 0.41016-1.2231 0.58594-0.60059 0.17578-1.4136 0.17578-1.1133 0-1.8018-0.46143-0.68848-0.46143-1.106-1.2378-0.41016-0.78369-0.41016-1.8091 0-1.5381 0.87158-2.4976 0.87158-0.9668 2.2632-0.9668 1.3403 0 2.1387 0.9375 0.79834 0.9375 0.79834 2.5122v0.16846zm-4.7095-0.79834h3.3911q-0.05127-0.79834-0.47607-1.2305-0.4248-0.43213-1.1426-0.43213-0.71777 0-1.1792 0.43213-0.4541 0.43213-0.59326 1.2305z"/><path d="m-17.353 4.5166v-1.4355q0.56396 0.39551 1.1499 0.64453 0.59326 0.2417 0.99609 0.2417 0.41748 0 0.71777-0.20508 0.30029-0.20508 0.30029-0.49072 0-0.29297-0.19775-0.4834-0.19043-0.19775-0.83496-0.56396-1.2891-0.71777-1.6919-1.2231-0.39551-0.5127-0.39551-1.1133 0-0.77637 0.60059-1.2671 0.60791-0.49072 1.5601-0.49072 0.98877 0 2.0288 0.55664v1.3184q-1.1865-0.71777-1.9409-0.71777-0.38818 0-0.62988 0.16846-0.23438 0.16113-0.23438 0.43213 0 0.23438 0.2124 0.44678 0.21973 0.2124 0.76172 0.5127l0.47607 0.271q1.6846 0.95215 1.6846 2.1094 0 0.82764-0.65186 1.3623-0.64453 0.52734-1.6626 0.52734-0.60059 0-1.0693-0.12451-0.46875-0.13184-1.1792-0.47607z"/><path d="m-11.369 8.4351v-10.173h2.3364q1.7944 0 2.7905 0.89355 1.0034 0.89355 1.0034 2.4976 0 1.5161-0.94482 2.4902-0.9375 0.97412-2.395 0.97412-0.64453 0-1.4282-0.28564v3.6035h-1.3623zm2.3071-8.9282h-0.94482v4.1455q0.61523 0.31494 1.2891 0.31494 0.9375 0 1.5308-0.65186 0.60059-0.65186 0.60059-1.6772 0-0.65918-0.28564-1.1646-0.27832-0.50537-0.76904-0.73242-0.4834-0.23438-1.4209-0.23438z"/><path d="m-0.5583-1.7529q1.5381 0 2.5562 0.99609 1.0181 0.98877 1.0181 2.4902 0 1.4575-1.0327 2.4243-1.0327 0.95947-2.6001 0.95947-1.5161 0-2.5342-0.97412-1.0181-0.98145-1.0181-2.4463 0-1.4795 1.0254-2.4609 1.0327-0.98877 2.5854-0.98877zm-0.073242 1.2012q-0.95947 0-1.5747 0.62988-0.61523 0.62988-0.61523 1.604 0 0.9668 0.62988 1.582 0.62988 0.60791 1.6187 0.60791 0.98145 0 1.604-0.61523 0.62988-0.62256 0.62988-1.5894 0-0.95947-0.65186-1.5894-0.65186-0.62988-1.6406-0.62988z"/><path d="m5.8138-1.7383v0.85693q0.89355-0.98877 2.0288-0.98877 0.62988 0 1.1719 0.32959 0.54199 0.32227 0.82031 0.89355 0.28564 0.56396 0.28564 1.7944v3.8525h-1.333v-3.8379q0-1.0327-0.31494-1.4722-0.31494-0.44678-1.0547-0.44678-0.94482 0-1.604 0.94482v4.812h-1.3623v-6.7383h1.3623z"/><path d="m11.651 4.5166v-1.4355q0.56396 0.39551 1.1499 0.64453 0.59326 0.2417 0.99609 0.2417 0.41748 0 0.71777-0.20508 0.30029-0.20508 0.30029-0.49072 0-0.29297-0.19775-0.4834-0.19043-0.19775-0.83496-0.56396-1.2891-0.71777-1.6919-1.2231-0.39551-0.5127-0.39551-1.1133 0-0.77637 0.60059-1.2671 0.60791-0.49072 1.5601-0.49072 0.98877 0 2.0288 0.55664v1.3184q-1.1865-0.71777-1.9409-0.71777-0.38818 0-0.62988 0.16846-0.23438 0.16113-0.23438 0.43213 0 0.23438 0.2124 0.44678 0.21973 0.2124 0.76172 0.5127l0.47608 0.271q1.6846 0.95215 1.6846 2.1094 0 0.82764-0.65186 1.3623-0.64453 0.52734-1.6626 0.52734-0.60059 0-1.0693-0.12451-0.46875-0.13184-1.1792-0.47607z"/><path d="m23.465 1.748h-4.7388q0.05127 0.9668 0.64453 1.5381 0.60059 0.57129 1.5454 0.57129 1.3184 0 2.4316-0.82031v1.3037q-0.61523 0.41016-1.2231 0.58594-0.60058 0.17578-1.4136 0.17578-1.1133 0-1.8018-0.46143-0.68848-0.46143-1.106-1.2378-0.41016-0.78369-0.41016-1.8091 0-1.5381 0.87158-2.4976 0.87158-0.9668 2.2632-0.9668 1.3403 0 2.1387 0.9375 0.79834 0.9375 0.79834 2.5122v0.16846zm-4.7095-0.79834h3.3911q-0.05127-0.79834-0.47607-1.2305-0.4248-0.43213-1.1426-0.43213-0.71777 0-1.1792 0.43213-0.4541 0.43213-0.59326 1.2305z"/><path d="m24.571 4.5166v-1.4355q0.56396 0.39551 1.1499 0.64453 0.59326 0.2417 0.99609 0.2417 0.41748 0 0.71777-0.20508 0.30029-0.20508 0.30029-0.49072 0-0.29297-0.19775-0.4834-0.19043-0.19775-0.83496-0.56396-1.2891-0.71777-1.6919-1.2231-0.39551-0.5127-0.39551-1.1133 0-0.77637 0.60059-1.2671 0.60791-0.49072 1.5601-0.49072 0.98877 0 2.0288 0.55664v1.3184q-1.1865-0.71777-1.9409-0.71777-0.38818 0-0.62988 0.16846-0.23438 0.16113-0.23438 0.43213 0 0.23438 0.2124 0.44678 0.21973 0.2124 0.76172 0.5127l0.47607 0.271q1.6846 0.95215 1.6846 2.1094 0 0.82764-0.65186 1.3623-0.64453 0.52734-1.6626 0.52734-0.60059 0-1.0693-0.12451-0.46875-0.13184-1.1792-0.47607z"/></g><path d="m303.3 60.334 61.941 16.597" fill="#6cb33f"/><path d="m303.3 60.334 61.941 16.597" fill-opacity="0" stroke="#6cb33f" stroke-linecap="square" stroke-miterlimit="10" stroke-width="3.606"/><path d="m371.26 78.546-13.917 3.736 3.733-13.931 10.184 10.195z" fill="#6cb33f"/><path d="m371.26 78.546-13.917 3.736 3.733-13.931 10.184 10.195z" fill-opacity="0" stroke="#6cb33f" stroke-linecap="square" stroke-miterlimit="10" stroke-width=".4"/><g transform="matrix(.966 .259 -.259 .966 341.86 56.848)" fill="#6cb33f" style=""><path d="m-18.561-1.7383h2.5195v10.173h-1.333v-3.5522q-0.87158 0.23438-1.4722 0.23438-1.4355 0-2.373-0.9668-0.9375-0.9668-0.9375-2.4536 0-1.5747 0.97412-2.5049 0.97412-0.93018 2.6221-0.93018zm1.1865 5.4639v-4.2187h-0.84228q-0.86426 0-1.1572 0.080566-0.28564 0.073242-0.49805 0.2124-0.2124 0.13184-0.38818 0.32959-0.54932 0.62256-0.54932 1.5381 0 1.0327 0.61523 1.6919 0.62256 0.65186 1.604 0.65186 0.22705 0 0.37354-0.029297t0.64453-0.19775l0.10254-0.029297 0.09521-0.029297z"/><path d="m-9.9482 5v-0.85693q-0.4248 0.46143-0.97412 0.71777-0.54199 0.25635-1.084 0.25635-0.63721 0-1.1792-0.31494-0.53467-0.32227-0.81299-0.86426-0.271-0.54932-0.271-1.8164v-3.8599h1.333v3.8452q0 1.062 0.30029 1.4868 0.30762 0.41748 1.0693 0.41748 0.95215 0 1.6187-0.93018v-4.8193h1.333v6.7383h-1.333z"/><path d="m-0.99799 1.748h-4.7388q0.05127 0.9668 0.64453 1.5381 0.60059 0.57129 1.5454 0.57129 1.3184 0 2.4316-0.82031v1.3037q-0.61523 0.41016-1.2231 0.58594-0.60059 0.17578-1.4136 0.17578-1.1133 0-1.8018-0.46143t-1.106-1.2378q-0.41016-0.78369-0.41016-1.8091 0-1.5381 0.87158-2.4976 0.87158-0.9668 2.2632-0.9668 1.3403 0 2.1387 0.9375 0.79834 0.9375 0.79834 2.5122v0.16846zm-4.7095-0.79834h3.3911q-0.05127-0.79834-0.47607-1.2305-0.4248-0.43213-1.1426-0.43213-0.71777 0-1.1792 0.43213-0.4541 0.43213-0.59326 1.2305z"/><path d="m1.8658-1.7383v1.5454l0.073242-0.11719q0.9668-1.5601 1.9336-1.5601 0.75439 0 1.5747 0.76172l-0.70312 1.1719q-0.6958-0.65918-1.2891-0.65918-0.64453 0-1.1206 0.61523-0.46875 0.61523-0.46875 1.4575v3.5229h-1.3403v-6.7383h1.3403z"/><path d="m7.0733-4.5728q0.32959 0 0.56396 0.22705t0.23438 0.55664q0 0.32227-0.23438 0.55664t-0.56396 0.23438q-0.30762 0-0.54199-0.23438-0.23438-0.2417-0.23438-0.55664 0-0.30762 0.23438-0.54199 0.23438-0.2417 0.54199-0.2417zm-0.65918 2.8345h1.333v6.7383h-1.333v-6.7383z"/><path d="m15.408 1.748h-4.7388q0.05127 0.9668 0.64453 1.5381 0.60059 0.57129 1.5454 0.57129 1.3184 0 2.4316-0.82031v1.3037q-0.61524 0.41016-1.2231 0.58594-0.60059 0.17578-1.4136 0.17578-1.1133 0-1.8018-0.46143-0.68848-0.46143-1.106-1.2378-0.41016-0.78369-0.41016-1.8091 0-1.5381 0.87158-2.4976 0.87158-0.9668 2.2632-0.9668 1.3403 0 2.1387 0.9375 0.79834 0.9375 0.79834 2.5122v0.16846zm-4.7095-0.79834h3.3911q-0.05127-0.79834-0.47607-1.2305-0.4248-0.43213-1.1426-0.43213-0.71777 0-1.1792 0.43213-0.4541 0.43213-0.59326 1.2305z"/><path d="m16.514 4.5166v-1.4355q0.56396 0.39551 1.1499 0.64453 0.59326 0.2417 0.99609 0.2417 0.41748 0 0.71777-0.20508 0.30029-0.20508 0.30029-0.49072 0-0.29297-0.19775-0.4834-0.19043-0.19775-0.83496-0.56396-1.2891-0.71777-1.6919-1.2231-0.39551-0.5127-0.39551-1.1133 0-0.77637 0.60059-1.2671 0.60791-0.49072 1.5601-0.49072 0.98877 0 2.0288 0.55664v1.3184q-1.1865-0.71777-1.9409-0.71777-0.38818 0-0.62988 0.16846-0.23438 0.16113-0.23438 0.43213 0 0.23438 0.2124 0.44678 0.21973 0.2124 0.76172 0.5127l0.47607 0.271q1.6846 0.95215 1.6846 2.1094 0 0.82764-0.65186 1.3623-0.64453 0.52734-1.6626 0.52734-0.60058 0-1.0693-0.12451-0.46875-0.13184-1.1792-0.47607z"/></g><path d="m307.32 92.246 61.941 16.597" fill="#358ec4"/><path d="m307.32 92.246 61.941 16.597" fill-opacity="0" stroke="#358ec4" stroke-linecap="square" stroke-miterlimit="10" stroke-width="3.606"/><path d="m301.3 90.631 13.917-3.736-3.733 13.931-10.184-10.195z" fill="#358ec4"/><path d="m301.3 90.631 13.917-3.736-3.733 13.931-10.184-10.195z" fill-opacity="0" stroke="#358ec4" stroke-linecap="square" stroke-miterlimit="10" stroke-width=".4"/><g transform="matrix(.966 .259 -.259 .966 339.28 87.174)" fill="#2a86c0" style=""><path d="m-28.427-1.7383v1.5454l0.07324-0.11719q0.9668-1.5601 1.9336-1.5601 0.75439 0 1.5747 0.76172l-0.70312 1.1719q-0.6958-0.65918-1.2891-0.65918-0.64453 0-1.1206 0.61523-0.46875 0.61523-0.46875 1.4575v3.5229h-1.3403v-6.7383h1.3403z"/><path d="m-18.459 1.748h-4.7388q0.05127 0.9668 0.64453 1.5381 0.60059 0.57129 1.5454 0.57129 1.3184 0 2.4316-0.82031v1.3037q-0.61524 0.41016-1.2231 0.58594-0.60059 0.17578-1.4136 0.17578-1.1133 0-1.8018-0.46143-0.68848-0.46143-1.106-1.2378-0.41016-0.78369-0.41016-1.8091 0-1.5381 0.87158-2.4976 0.87158-0.9668 2.2632-0.9668 1.3403 0 2.1387 0.9375 0.79834 0.9375 0.79834 2.5122v0.16846zm-4.7095-0.79834h3.3911q-0.05127-0.79834-0.47607-1.2305-0.4248-0.43213-1.1426-0.43213-0.71777 0-1.1792 0.43213-0.4541 0.43213-0.59326 1.2305z"/><path d="m-17.353 4.5166v-1.4355q0.56396 0.39551 1.1499 0.64453 0.59326 0.2417 0.99609 0.2417 0.41748 0 0.71777-0.20508 0.30029-0.20508 0.30029-0.49072 0-0.29297-0.19775-0.4834-0.19043-0.19775-0.83496-0.56396-1.2891-0.71777-1.6919-1.2231-0.39551-0.5127-0.39551-1.1133 0-0.77637 0.60059-1.2671 0.60791-0.49072 1.5601-0.49072 0.98877 0 2.0288 0.55664v1.3184q-1.1865-0.71777-1.9409-0.71777-0.38818 0-0.62988 0.16846-0.23438 0.16113-0.23438 0.43213 0 0.23438 0.2124 0.44678 0.21973 0.2124 0.76172 0.5127l0.47607 0.271q1.6846 0.95215 1.6846 2.1094 0 0.82764-0.65186 1.3623-0.64453 0.52734-1.6626 0.52734-0.60059 0-1.0693-0.12451-0.46875-0.13184-1.1792-0.47607z"/><path d="m-11.369 8.4351v-10.173h2.3364q1.7944 0 2.7905 0.89355 1.0034 0.89355 1.0034 2.4976 0 1.5161-0.94482 2.4902-0.9375 0.97412-2.395 0.97412-0.64453 0-1.4282-0.28564v3.6035h-1.3623zm2.3071-8.9282h-0.94482v4.1455q0.61523 0.31494 1.2891 0.31494 0.9375 0 1.5308-0.65186 0.60059-0.65186 0.60059-1.6772 0-0.65918-0.28564-1.1646-0.27832-0.50537-0.76904-0.73242-0.4834-0.23438-1.4209-0.23438z"/><path d="m-0.5583-1.7529q1.5381 0 2.5562 0.99609 1.0181 0.98877 1.0181 2.4902 0 1.4575-1.0327 2.4243-1.0327 0.95947-2.6001 0.95947-1.5161 0-2.5342-0.97412-1.0181-0.98145-1.0181-2.4463 0-1.4795 1.0254-2.4609 1.0327-0.98877 2.5854-0.98877zm-0.073242 1.2012q-0.95947 0-1.5747 0.62988-0.61523 0.62988-0.61523 1.604 0 0.9668 0.62988 1.582 0.62988 0.60791 1.6187 0.60791 0.98145 0 1.604-0.61523 0.62988-0.62256 0.62988-1.5894 0-0.95947-0.65186-1.5894-0.65186-0.62988-1.6406-0.62988z"/><path d="m5.8138-1.7383v0.85693q0.89355-0.98877 2.0288-0.98877 0.62988 0 1.1719 0.32959 0.54199 0.32227 0.82031 0.89355 0.28564 0.56396 0.28564 1.7944v3.8525h-1.333v-3.8379q0-1.0327-0.31494-1.4722-0.31494-0.44678-1.0547-0.44678-0.94482 0-1.604 0.94482v4.812h-1.3623v-6.7383h1.3623z"/><path d="m11.651 4.5166v-1.4355q0.56396 0.39551 1.1499 0.64453 0.59326 0.2417 0.99609 0.2417 0.41748 0 0.71777-0.20508 0.30029-0.20508 0.30029-0.49072 0-0.29297-0.19775-0.4834-0.19043-0.19775-0.83496-0.56396-1.2891-0.71777-1.6919-1.2231-0.39551-0.5127-0.39551-1.1133 0-0.77637 0.60059-1.2671 0.60791-0.49072 1.5601-0.49072 0.98877 0 2.0288 0.55664v1.3184q-1.1865-0.71777-1.9409-0.71777-0.38818 0-0.62988 0.16846-0.23438 0.16113-0.23438 0.43213 0 0.23438 0.2124 0.44678 0.21973 0.2124 0.76172 0.5127l0.47608 0.271q1.6846 0.95215 1.6846 2.1094 0 0.82764-0.65186 1.3623-0.64453 0.52734-1.6626 0.52734-0.60059 0-1.0693-0.12451-0.46875-0.13184-1.1792-0.47607z"/><path d="m23.465 1.748h-4.7388q0.05127 0.9668 0.64453 1.5381 0.60059 0.57129 1.5454 0.57129 1.3184 0 2.4316-0.82031v1.3037q-0.61523 0.41016-1.2231 0.58594-0.60058 0.17578-1.4136 0.17578-1.1133 0-1.8018-0.46143-0.68848-0.46143-1.106-1.2378-0.41016-0.78369-0.41016-1.8091 0-1.5381 0.87158-2.4976 0.87158-0.9668 2.2632-0.9668 1.3403 0 2.1387 0.9375 0.79834 0.9375 0.79834 2.5122v0.16846zm-4.7095-0.79834h3.3911q-0.05127-0.79834-0.47607-1.2305-0.4248-0.43213-1.1426-0.43213-0.71777 0-1.1792 0.43213-0.4541 0.43213-0.59326 1.2305z"/><path d="m24.571 4.5166v-1.4355q0.56396 0.39551 1.1499 0.64453 0.59326 0.2417 0.99609 0.2417 0.41748 0 0.71777-0.20508 0.30029-0.20508 0.30029-0.49072 0-0.29297-0.19775-0.4834-0.19043-0.19775-0.83496-0.56396-1.2891-0.71777-1.6919-1.2231-0.39551-0.5127-0.39551-1.1133 0-0.77637 0.60059-1.2671 0.60791-0.49072 1.5601-0.49072 0.98877 0 2.0288 0.55664v1.3184q-1.1865-0.71777-1.9409-0.71777-0.38818 0-0.62988 0.16846-0.23438 0.16113-0.23438 0.43213 0 0.23438 0.2124 0.44678 0.21973 0.2124 0.76172 0.5127l0.47607 0.271q1.6846 0.95215 1.6846 2.1094 0 0.82764-0.65186 1.3623-0.64453 0.52734-1.6626 0.52734-0.60059 0-1.0693-0.12451-0.46875-0.13184-1.1792-0.47607z"/></g><path d="m17.215 52.283h82.984c7.851 0 14.215 7.368 14.215 16.456v52.023c0 9.089-6.364 16.457-14.215 16.457h-82.984c-7.851 0-14.215-7.368-14.215-16.457v-52.023c0-9.088 6.364-16.456 14.215-16.456z" fill="#fff"/><path d="m17.215 52.283h82.984c7.851 0 14.215 7.368 14.215 16.456v52.023c0 9.089-6.364 16.457-14.215 16.457h-82.984c-7.851 0-14.215-7.368-14.215-16.457v-52.023c0-9.088 6.364-16.456 14.215-16.456z" fill-opacity="0" stroke="#358ec4" stroke-width="2"/><g transform="translate(58.707,94.751)" fill="#4b4b4b" style=""><path d="m-38.015-14.86h-4.1572v-12.278h3.2168q1.5205 0 2.373 0.41309 0.85254 0.4043 1.3008 1.125 0.44824 0.71191 0.44824 1.6523 0 1.8105-1.8721 2.5928 1.3447 0.25488 2.1357 1.1074 0.7998 0.85254 0.7998 2.0391 0 0.94043-0.4834 1.6787-0.4834 0.73828-1.4238 1.2041-0.93164 0.46582-2.3379 0.46582zm-0.8877-10.714h-1.5117v3.6914h1.1689q1.4062 0 1.9951-0.53613 0.59766-0.53613 0.59766-1.3887 0-1.7666-2.25-1.7666zm0.13184 5.2559h-1.6436v3.8936h1.7314q1.4414 0 1.9512-0.21973 0.51856-0.22852 0.82617-0.70312 0.31641-0.47461 0.31641-1.0195 0-0.5625-0.33398-1.0283-0.3252-0.46582-0.93164-0.69434-0.60644-0.22852-1.916-0.22852z"/><path d="m-27.117-14.86v-1.0283q-0.50977 0.55371-1.1689 0.86133-0.65039 0.30762-1.3008 0.30762-0.76465 0-1.415-0.37793-0.6416-0.38672-0.97559-1.0371-0.3252-0.65918-0.3252-2.1797v-4.6318h1.5996v4.6143q0 1.2744 0.36035 1.7842 0.36914 0.50098 1.2832 0.50098 1.1426 0 1.9424-1.1162v-5.7832h1.5996v8.0859h-1.5996z"/><path d="m-23.663-15.44v-1.7227q0.67676 0.47461 1.3799 0.77344 0.71191 0.29004 1.1953 0.29004 0.50098 0 0.86133-0.24609 0.36035-0.24609 0.36035-0.58887 0-0.35156-0.2373-0.58008-0.22852-0.2373-1.002-0.67676-1.5469-0.86133-2.0303-1.4678-0.47461-0.61523-0.47461-1.3359 0-0.93164 0.7207-1.5205 0.72949-0.58887 1.8721-0.58887 1.1865 0 2.4346 0.66797v1.582q-1.4238-0.86133-2.3291-0.86133-0.46582 0-0.75586 0.20215-0.28125 0.19336-0.28125 0.51856 0 0.28125 0.25488 0.53613 0.26367 0.25488 0.91406 0.61523l0.57129 0.3252q2.0215 1.1426 2.0215 2.5312 0 0.99316-0.78223 1.6348-0.77344 0.63281-1.9951 0.63281-0.7207 0-1.2832-0.14941-0.5625-0.1582-1.415-0.57129z"/><path d="m-15.55-26.347q0.39551 0 0.67676 0.27246t0.28125 0.66797q0 0.38672-0.28125 0.66797t-0.67676 0.28125q-0.36914 0-0.65039-0.28125-0.28125-0.29004-0.28125-0.66797 0-0.36914 0.28125-0.65039 0.28125-0.29004 0.65039-0.29004zm-0.79102 3.4014h1.5996v8.0859h-1.5996v-8.0859z"/><path d="m-10.839-22.946v1.0283q1.0723-1.1865 2.4346-1.1865 0.75586 0 1.4062 0.39551 0.65039 0.38672 0.98438 1.0723 0.34277 0.67676 0.34277 2.1533v4.623h-1.5996v-4.6055q0-1.2393-0.37793-1.7666-0.37793-0.53613-1.2656-0.53613-1.1338 0-1.9248 1.1338v5.7744h-1.6348v-8.0859h1.6348z"/><path d="m3.4515-18.762h-5.6865q0.061523 1.1602 0.77344 1.8457 0.7207 0.68555 1.8545 0.68555 1.582 0 2.918-0.98438v1.5645q-0.73828 0.49219-1.4678 0.70312-0.7207 0.21094-1.6963 0.21094-1.3359 0-2.1621-0.55371t-1.3271-1.4854q-0.49219-0.94043-0.49219-2.1709 0-1.8457 1.0459-2.9971 1.0459-1.1602 2.7158-1.1602 1.6084 0 2.5664 1.125t0.95801 3.0146v0.20215zm-5.6514-0.95801h4.0693q-0.061523-0.95801-0.57129-1.4766-0.50977-0.51855-1.3711-0.51855-0.86133 0-1.415 0.51855-0.54492 0.51856-0.71191 1.4766z"/><path d="m4.7787-15.44v-1.7227q0.67676 0.47461 1.3799 0.77344 0.71191 0.29004 1.1953 0.29004 0.50098 0 0.86133-0.24609 0.36035-0.24609 0.36035-0.58887 0-0.35156-0.2373-0.58008-0.22852-0.2373-1.002-0.67676-1.5469-0.86133-2.0303-1.4678-0.47461-0.61523-0.47461-1.3359 0-0.93164 0.7207-1.5205 0.72949-0.58887 1.8721-0.58887 1.1865 0 2.4346 0.66797v1.582q-1.4238-0.86133-2.3291-0.86133-0.46582 0-0.75586 0.20215-0.28125 0.19336-0.28125 0.51856 0 0.28125 0.25488 0.53613 0.26367 0.25488 0.91406 0.61523l0.57129 0.3252q2.0215 1.1426 2.0215 2.5312 0 0.99316-0.78223 1.6348-0.77344 0.63281-1.9951 0.63281-0.7207 0-1.2832-0.14941-0.5625-0.1582-1.415-0.57129z"/><path d="m11.669-15.44v-1.7227q0.67676 0.47461 1.3799 0.77344 0.71191 0.29004 1.1953 0.29004 0.50098 0 0.86133-0.24609t0.36035-0.58887q0-0.35156-0.2373-0.58008-0.22852-0.2373-1.002-0.67676-1.5469-0.86133-2.0303-1.4678-0.47461-0.61523-0.47461-1.3359 0-0.93164 0.7207-1.5205 0.72949-0.58887 1.8721-0.58887 1.1865 0 2.4346 0.66797v1.582q-1.4238-0.86133-2.3291-0.86133-0.46582 0-0.75586 0.20215-0.28125 0.19336-0.28125 0.51856 0 0.28125 0.25488 0.53613 0.26367 0.25488 0.91406 0.61523l0.57129 0.3252q2.0215 1.1426 2.0215 2.5312 0 0.99316-0.78223 1.6348-0.77344 0.63281-1.9951 0.63281-0.7207 0-1.2832-0.14941-0.5625-0.1582-1.415-0.57129z"/><path d="m-42.155-6.1383h1.7578v12.278h-1.7578v-12.278z"/><path d="m-36.293-1.9459v1.0283q1.0723-1.1865 2.4346-1.1865 0.75586 0 1.4062 0.39551 0.65039 0.38672 0.98438 1.0723 0.34277 0.67676 0.34277 2.1533v4.623h-1.5996v-4.6055q0-1.2393-0.37793-1.7666-0.37793-0.53613-1.2656-0.53613-1.1338 0-1.9248 1.1338v5.7744h-1.6348v-8.0859h1.6348z"/><path d="m-30.026-0.66273 3.0059-2.9531v1.6699h2.5576v1.4414h-2.5576v3.9639q0 1.3887 1.1514 1.3887 0.86133 0 1.8193-0.58008v1.4941q-0.92285 0.51855-2.0127 0.51855-1.0986 0-1.8281-0.6416-0.22852-0.19336-0.37793-0.43066-0.14942-0.24609-0.25488-0.63281-0.09668-0.39551-0.09668-1.4941v-3.5859h-1.4062v-0.1582z"/><path d="m-15.99 2.2377h-5.6865q0.06152 1.1602 0.77344 1.8457 0.7207 0.68555 1.8545 0.68555 1.582 0 2.918-0.98438v1.5645q-0.73828 0.49219-1.4678 0.70312-0.7207 0.21094-1.6963 0.21094-1.3359 0-2.1621-0.55371-0.82617-0.55371-1.3271-1.4854-0.49219-0.94043-0.49219-2.1709 0-1.8457 1.0459-2.9971 1.0459-1.1602 2.7158-1.1602 1.6084 0 2.5664 1.125 0.95801 1.125 0.95801 3.0146v0.20215zm-5.6514-0.95801h4.0693q-0.06152-0.95801-0.57129-1.4766-0.50977-0.51855-1.3711-0.51855t-1.415 0.51855q-0.54492 0.51855-0.71191 1.4766z"/><path d="m-14.232-6.1383h1.5996v12.278h-1.5996v-12.278z"/><path d="m-10.259-6.1383h1.5996v12.278h-1.5996v-12.278z"/><path d="m-5.4957-5.3473q0.39551 0 0.67676 0.27246t0.28125 0.66797q0 0.38672-0.28125 0.66797t-0.67676 0.28125q-0.36914 0-0.65039-0.28125-0.28125-0.29004-0.28125-0.66797 0-0.36914 0.28125-0.65039 0.28125-0.29004 0.65039-0.29004zm-0.79102 3.4014h1.5996v8.0859h-1.5996v-8.0859z"/><path d="m-2.7975 0.84898q0-1.292 0.94043-2.0391 0.94922-0.75586 2.584-0.75586h3.3311v1.248h-1.6348q0.47461 0.4834 0.65918 0.87891 0.18457 0.39551 0.18457 0.90527 0 0.63281-0.36035 1.248-0.36035 0.60645-0.93164 0.93164-0.5625 0.3252-1.8545 0.51855-0.90527 0.13184-0.90527 0.62402 0 0.28125 0.33398 0.46582 0.34277 0.17578 1.2305 0.36914 1.4854 0.3252 1.9072 0.50977 0.43066 0.18457 0.77344 0.52734 0.58008 0.58008 0.58008 1.459 0 1.1514-1.0283 1.8369-1.0195 0.68555-2.7334 0.68555-1.7314 0-2.7686-0.69434-1.0283-0.68555-1.0283-1.8457 0-1.6436 2.0303-2.1182-0.80859-0.51855-0.80859-1.0283 0-0.38672 0.34277-0.70312 0.35156-0.31641 0.94043-0.46582-1.7842-0.79102-1.7842-2.5576zm3.0059-1.4062q-0.65039 0-1.1074 0.43945-0.45703 0.43945-0.45703 1.0547 0 0.62402 0.44824 1.0371 0.44824 0.4043 1.1338 0.4043 0.67676 0 1.125-0.41309 0.45703-0.42188 0.45703-1.0459 0-0.63281-0.45703-1.0547-0.45703-0.42188-1.1426-0.42188zm-0.37793 7.0752q-0.80859 0-1.3271 0.34277-0.50977 0.34277-0.50977 0.87891 0 1.248 2.25 1.248 1.0635 0 1.6436-0.31641 0.58887-0.30762 0.58887-0.87891 0-0.5625-0.73828-0.92285-0.73828-0.35156-1.9072-0.35156z"/><path d="m12.205 2.2377h-5.6865q0.061523 1.1602 0.77344 1.8457 0.7207 0.68555 1.8545 0.68555 1.582 0 2.918-0.98438v1.5645q-0.73828 0.49219-1.4678 0.70312-0.7207 0.21094-1.6963 0.21094-1.3359 0-2.1621-0.55371-0.82617-0.55371-1.3271-1.4854-0.49219-0.94043-0.49219-2.1709 0-1.8457 1.0459-2.9971 1.0459-1.1602 2.7158-1.1602 1.6084 0 2.5664 1.125 0.95801 1.125 0.95801 3.0146v0.20215zm-5.6514-0.95801h4.0693q-0.061523-0.95801-0.57129-1.4766-0.50977-0.51855-1.3711-0.51855-0.86133 0-1.415 0.51855-0.54492 0.51855-0.71191 1.4766z"/><path d="m15.528-1.9459v1.0283q1.0723-1.1865 2.4346-1.1865 0.75586 0 1.4062 0.39551 0.65039 0.38672 0.98438 1.0723 0.34277 0.67676 0.34277 2.1533v4.623h-1.5996v-4.6055q0-1.2393-0.37793-1.7666-0.37793-0.53613-1.2656-0.53613-1.1338 0-1.9248 1.1338v5.7744h-1.6348v-8.0859h1.6348z"/><path d="m28.993 4.2504v1.582q-1.2041 0.44824-2.3555 0.44824-1.8984 0-3.0322-1.125-1.125-1.125-1.125-3.0146 0-1.9072 1.0986-3.0762 1.0986-1.1689 2.8916-1.1689 0.62402 0 1.1162 0.12305 0.50098 0.11426 1.2305 0.43945v1.7051q-1.2129-0.77344-2.25-0.77344-1.0811 0-1.7754 0.76465-0.69434 0.75586-0.69434 1.9336 0 1.2393 0.74707 1.9688 0.75586 0.72949 2.0303 0.72949 0.92285 0 2.1182-0.53613z"/><path d="m37.694 2.2377h-5.6865q0.06152 1.1602 0.77344 1.8457 0.7207 0.68555 1.8545 0.68555 1.582 0 2.918-0.98438v1.5645q-0.73828 0.49219-1.4678 0.70312-0.7207 0.21094-1.6963 0.21094-1.3359 0-2.1621-0.55371-0.82617-0.55371-1.3271-1.4854-0.49219-0.94043-0.49219-2.1709 0-1.8457 1.0459-2.9971 1.0459-1.1602 2.7158-1.1602 1.6084 0 2.5664 1.125 0.95801 1.125 0.95801 3.0146v0.20215zm-5.6514-0.95801h4.0693q-0.06152-0.95801-0.57129-1.4766-0.50976-0.51855-1.3711-0.51855-0.86133 0-1.415 0.51855-0.54492 0.51855-0.71191 1.4766z"/><path d="m-43.218 14.844h10.257v1.5645h-4.2803v10.731h-1.7666v-10.731h-4.21v-1.5645z"/><path d="m-30.334 19.036q1.8457 0 3.0674 1.1953 1.2217 1.1865 1.2217 2.9883 0 1.749-1.2393 2.9092-1.2393 1.1514-3.1201 1.1514-1.8193 0-3.041-1.1689-1.2217-1.1777-1.2217-2.9355 0-1.7754 1.2305-2.9531 1.2393-1.1865 3.1025-1.1865zm-0.08789 1.4414q-1.1514 0-1.8896 0.75586-0.73828 0.75586-0.73828 1.9248 0 1.1602 0.75586 1.8984 0.75586 0.72949 1.9424 0.72949 1.1777 0 1.9248-0.73828 0.75586-0.74707 0.75586-1.9072 0-1.1514-0.78223-1.9072-0.78223-0.75586-1.9688-0.75586z"/><path d="m-20.42 19.036q1.8457 0 3.0674 1.1953 1.2217 1.1865 1.2217 2.9883 0 1.749-1.2393 2.9092-1.2393 1.1514-3.1201 1.1514-1.8193 0-3.041-1.1689-1.2217-1.1777-1.2217-2.9355 0-1.7754 1.2305-2.9531 1.2393-1.1865 3.1025-1.1865zm-0.08789 1.4414q-1.1514 0-1.8896 0.75586-0.73828 0.75586-0.73828 1.9248 0 1.1602 0.75586 1.8984 0.75586 0.72949 1.9424 0.72949 1.1777 0 1.9248-0.73828 0.75586-0.74707 0.75586-1.9072 0-1.1514-0.78223-1.9072-0.78223-0.75586-1.9688-0.75586z"/><path d="m-14.338 14.862h1.5996v12.278h-1.5996v-12.278z"/></g><g transform="translate(434.29 94.751)" fill="#4b4b4b" style=""><path d="m-32.399-27.138h1.6348v12.278h-1.7666v-9.5537l-3.7793 4.7461h-0.3252l-3.8145-4.7461v9.5537h-1.7578v-12.278h1.6523l4.0869 5.0449 4.0693-5.0449z"/><path d="m-24.498-22.964q1.8457 0 3.0674 1.1953 1.2217 1.1865 1.2217 2.9883 0 1.749-1.2393 2.9092-1.2393 1.1514-3.1201 1.1514-1.8193 0-3.041-1.1689-1.2217-1.1777-1.2217-2.9355 0-1.7754 1.2305-2.9531 1.2393-1.1865 3.1025-1.1865zm-0.08789 1.4414q-1.1514 0-1.8896 0.75586-0.73828 0.75586-0.73828 1.9248 0 1.1602 0.75586 1.8984 0.75586 0.72949 1.9424 0.72949 1.1777 0 1.9248-0.73828 0.75586-0.74707 0.75586-1.9072 0-1.1514-0.78223-1.9072-0.78223-0.75586-1.9688-0.75586z"/><path d="m-16.851-22.946v1.0283q1.0723-1.1865 2.4346-1.1865 0.75586 0 1.4062 0.39551 0.65039 0.38672 0.98438 1.0723 0.34277 0.67676 0.34277 2.1533v4.623h-1.5996v-4.6055q0-1.2393-0.37793-1.7666-0.37793-0.53613-1.2656-0.53613-1.1338 0-1.9248 1.1338v5.7744h-1.6348v-8.0859h1.6348z"/><path d="m-9.8639-20.151q0-1.292 0.94043-2.0391 0.94922-0.75586 2.584-0.75586h3.3311v1.248h-1.6348q0.47461 0.4834 0.65918 0.87891t0.18457 0.90527q0 0.63281-0.36035 1.248-0.36035 0.60645-0.93164 0.93164-0.5625 0.3252-1.8545 0.51856-0.90527 0.13184-0.90527 0.62402 0 0.28125 0.33398 0.46582 0.34277 0.17578 1.2305 0.36914 1.4854 0.3252 1.9072 0.50977 0.43066 0.18457 0.77344 0.52734 0.58008 0.58008 0.58008 1.459 0 1.1514-1.0283 1.8369-1.0195 0.68555-2.7334 0.68555-1.7314 0-2.7686-0.69434-1.0283-0.68555-1.0283-1.8457 0-1.6436 2.0303-2.1182-0.80859-0.51856-0.80859-1.0283 0-0.38672 0.34277-0.70312 0.35156-0.31641 0.94043-0.46582-1.7842-0.79102-1.7842-2.5576zm3.0059-1.4062q-0.65039 0-1.1074 0.43945-0.45703 0.43945-0.45703 1.0547 0 0.62402 0.44824 1.0371 0.44824 0.4043 1.1338 0.4043 0.67676 0 1.125-0.41309 0.45703-0.42188 0.45703-1.0459 0-0.63281-0.45703-1.0547-0.45703-0.42188-1.1426-0.42188zm-0.37793 7.0752q-0.80859 0-1.3271 0.34277-0.50977 0.34277-0.50977 0.87891 0 1.248 2.25 1.248 1.0635 0 1.6436-0.31641 0.58887-0.30762 0.58887-0.87891 0-0.5625-0.73828-0.92285-0.73828-0.35156-1.9072-0.35156z"/><path d="m1.9398-22.964q1.8457 0 3.0674 1.1953 1.2217 1.1865 1.2217 2.9883 0 1.749-1.2393 2.9092-1.2393 1.1514-3.1201 1.1514-1.8193 0-3.041-1.1689-1.2217-1.1777-1.2217-2.9355 0-1.7754 1.2305-2.9531 1.2393-1.1865 3.1025-1.1865zm-0.087891 1.4414q-1.1514 0-1.8896 0.75586-0.73828 0.75586-0.73828 1.9248 0 1.1602 0.75586 1.8984 0.75586 0.72949 1.9424 0.72949 1.1777 0 1.9248-0.73828 0.75586-0.74707 0.75586-1.9072 0-1.1514-0.78223-1.9072-0.78223-0.75586-1.9688-0.75586z"/><path d="m8.224-14.878v-12.261h4.1396q2.5049 0 3.9639 0.75586 1.459 0.74707 2.3203 2.2061t0.86133 3.1816q0 1.2305-0.47461 2.3555t-1.3535 1.9775q-0.89648 0.87891-2.083 1.3271-0.69434 0.27246-1.2744 0.36914-0.58008 0.08789-2.2148 0.08789h-3.8848zm3.9551-10.696h-2.1973v9.1318h2.25q1.3184 0 2.0479-0.17578 0.72949-0.18457 1.2129-0.45703 0.49219-0.28125 0.89648-0.68555 1.3008-1.3184 1.3008-3.3311 0-1.9775-1.3359-3.2256-0.49219-0.46582-1.1338-0.76465-0.63281-0.29883-1.2041-0.39551t-1.8369-0.09668z"/><path d="m25.864-14.86h-4.1572v-12.278h3.2168q1.5205 0 2.373 0.41309 0.85254 0.4043 1.3008 1.125 0.44824 0.71191 0.44824 1.6523 0 1.8105-1.8721 2.5928 1.3447 0.25488 2.1357 1.1074 0.7998 0.85254 0.7998 2.0391 0 0.94043-0.4834 1.6787-0.4834 0.73828-1.4238 1.2041-0.93164 0.46582-2.3379 0.46582zm-0.8877-10.714h-1.5117v3.6914h1.1689q1.4062 0 1.9951-0.53613 0.59766-0.53613 0.59766-1.3887 0-1.7666-2.25-1.7666zm0.13184 5.2559h-1.6436v3.8936h1.7314q1.4414 0 1.9512-0.21973 0.51855-0.22852 0.82617-0.70312 0.31641-0.47461 0.31641-1.0195 0-0.5625-0.33398-1.0283-0.3252-0.46582-0.93164-0.69434-0.60645-0.22852-1.916-0.22852z"/></g><path d="m428.2 48.471c-27.402 0-49.616-2.504-49.616-5.594 0-3.089 22.214-5.593 49.616-5.593 27.403 0 49.617 2.504 49.617 5.593 0 3.09-22.214 5.594-49.617 5.594z" fill="#fff"/><path d="m428.2 48.471c-27.402 0-49.616-2.504-49.616-5.594 0-3.089 22.214-5.593 49.616-5.593 27.403 0 49.617 2.504 49.617 5.593 0 3.09-22.214 5.594-49.617 5.594z" fill-opacity="0" stroke="#6cb33e" stroke-width="2"/><path d="m428.2 132.36c-27.402 0-49.616-2.504-49.616-5.593 0-3.09 22.214-5.594 49.616-5.594 27.403 0 49.617 2.504 49.617 5.594 0 3.089-22.214 5.593-49.617 5.593z" fill="#fff"/><path d="m428.2 132.36c-27.402 0-49.616-2.504-49.616-5.593 0-3.09 22.214-5.594 49.616-5.594 27.403 0 49.617 2.504 49.617 5.594 0 3.089-22.214 5.593-49.617 5.593z" fill-opacity="0" stroke="#6cb33e" stroke-width="2"/><path d="m584 62" fill="#fff"/><path d="m584 62.001c1e-3 0 2e-3 0 2e-3 -1e-3v-1e-3c-1e-3 0-2e-3 0-2e-3 1e-3v1e-3" fill="#6cb33e"/><path d="m428.2 128.17c-27.402 0-49.616-1.657-49.616-3.701 0-2.045 22.214-3.702 49.616-3.702 27.403 0 49.617 1.657 49.617 3.702 0 2.044-22.214 3.701-49.617 3.701z" fill="#fff"/><path d="m231 68" fill="url(#a)"/></svg>
