<?xml version="1.0" encoding="utf-8"?>
<!-- Generator: Adobe Illustrator 16.0.4, SVG Export Plug-In . SVG Version: 6.00 Build 0)  -->
<svg version="1.2" baseProfile="tiny" id="Layer_1" xmlns="http://www.w3.org/2000/svg" xmlns:xlink="http://www.w3.org/1999/xlink"
	 x="0px" y="0px" width="940px" height="500px" viewBox="0 0 94 50" xml:space="preserve">
<g>
	<path fill="#1D70A2" d="M66.748,16.671h-0.014c0,0,0.002,0.009,0.009,0.025L66.748,16.671z"/>
	<path fill="#1D70A2" d="M26.693,16.7h-0.029H18.62l0,0c-7.555,0.033-5.133,6.069-3.229,4.774c0.826-0.562,1.674-0.85,2.371-0.998
		v0.004c0.439-0.085,0.957-0.142,1.565-0.148l-1.364,6.025c-1.063,1.416-2.428,1.873-4.3,1.873c-4.198,0-5.868-3.847-5.868-8.349
		c0-8.046,5.666-17.506,11.231-17.506c3.238,0,3.491,2.782,3.491,3.593c0,0.08-0.005,0.165-0.012,0.254v0.001
		c-0.042,0.333-0.098,0.636-0.167,0.909c-0.104,0.389-0.252,0.798-0.432,1.185c-0.258,0.52-0.547,0.891-0.784,1.198
		c-0.476,0.612-0.429,1.573,2.375,1.573c2.804,0,3.46-1.873,3.46-1.873c0.249-0.697,0.364-1.526,0.364-2.439
		C27.319,1.87,22.614,0,17.91,0C6.627,0,0,9.813,0,19.476C0,26.458,2.63,32.43,10.877,32.43c0.455,0,3.236-0.255,6.172-1.822
		l-1.444,6.461c-3.539-3.491-8.106-2.45-8.106-2.45H7.5c-3.228,0.623-4.971,3.739-4.971,6.815c0,3.281,1.969,6.562,6.198,6.942
		l-0.002,0.002c0,0,0.762,0.106,1.914,0.065c-0.017,0.007-0.029,0.011-0.029,0.011s1.063,0.01,2.524-0.323
		c0.044-0.009,0.089-0.021,0.134-0.031c0.058-0.013,0.117-0.026,0.178-0.041c0.627-0.154,1.275-0.367,1.923-0.652
		c0.006-0.002,0.013-0.006,0.02-0.008c0.114-0.051,0.227-0.102,0.34-0.156c1.82-0.863,3.688-2.344,4.794-4.879
		c0.005-0.014,0.01-0.023,0.016-0.039c0.281-0.602,0.577-1.346,0.863-2.271c0.001-0.003,0.001-0.005,0.002-0.007
		c0.319-0.959,0.651-2.147,0.973-3.612c0.001-0.007,0.002-0.011,0.003-0.019c0.045-0.197,0.09-0.394,0.134-0.599l3.893-17.848
		L26.693,16.7z M9.966,45.887c-2.126,0-3.187-1.67-3.187-3.439c0-1.872,1.214-3.846,3.541-3.846c0.589,0,1.093,0.09,1.659,0.369
		c1.393,0.728,2.208,1.516,2.682,2.141C13.529,45.064,12.014,45.887,9.966,45.887z"/>
	<path fill="#1D70A2" d="M93.627,19.568c-0.535,0-0.869,0.345-0.996,0.509c-0.02,0.029-0.04,0.057-0.061,0.086
		c-0.537,0.733-1.274,1.492-2.176,1.672c-0.246-3.647-1.965-5.534-5.205-5.534c-8.445,0-11.107,9.838-11.107,14.553
		c0,4.674,2.745,6.477,6.559,6.477c5.164,0,9.264-4.959,9.756-12.83c1.213-0.663,2.131-1.749,2.851-2.885
		C93.948,20.371,94.328,19.568,93.627,19.568z M86.912,25.115c-0.615,4.838-2.623,8.525-4.631,8.525
		c-1.561,0-2.094-0.613-2.094-3.32c0-4.016,2.418-11.517,5.328-11.517c1.025,0,1.477,0.615,1.56,2.335
		c-0.698,0.329-1.147,1.026-1.147,2.132C85.928,24.294,86.256,24.869,86.912,25.115z"/>
	<path fill="#1D70A2" d="M42.012,19.745c0-1.557-0.983-3.074-2.829-3.074c-1.967,0-3.525,1.312-4.959,2.542l0.531-2.542h-5.902
		l-4.346,20.496h5.903l3.055-14.511l0.106-0.506c0.189-0.479,0.704-1.233,2.114-1.959c0.302-0.103,0.627-0.159,0.997-0.159
		c1.23,0,0.083,2.706,2.378,2.706C41.069,22.738,42.012,21.18,42.012,19.745z"/>
	<path fill="#1D70A2" d="M75.432,19.36c0.174-0.412,0.289-0.708,0.344-0.893c0.002-0.004,1.007-2.192-1.193-2.192
		c-0.591,0-0.812,0.359-0.872,0.486c0,0.001,0,0.002,0,0.002c-0.004,0.005-0.006,0.01-0.008,0.016
		c-0.005,0.011-0.009,0.016-0.011,0.021c-0.457,1.102-0.963,2.212-1.514,3.332c-0.557,1.13-1.137,2.261-1.734,3.394
		c-0.6,1.129-1.223,2.244-1.864,3.34c-0.644,1.098-1.271,2.159-1.888,3.188c-0.123-0.723-0.221-1.557-0.297-2.508
		c-0.078-0.951-0.172-1.932-0.283-2.942c-0.11-1.012-0.252-2.006-0.424-2.983c-0.172-0.978-0.412-1.851-0.721-2.621
		c-0.308-0.771-0.693-1.393-1.156-1.865c-0.463-0.471-1.045-0.707-1.748-0.707c-0.377,0-0.811,0.069-1.299,0.206
		c-0.486,0.137-0.953,0.321-1.4,0.554c-0.445,0.231-0.821,0.505-1.131,0.821c-0.309,0.318-0.461,0.664-0.461,1.041
		c0,0.207,0.103,0.377,0.308,0.514c0.205,0.14,0.429,0.206,0.668,0.206c0.305,0,0.582,0.045,0.83,0.13
		c-0.548,0.803-1.353,1.732-2.359,1.934c-0.245-3.647-1.967-5.534-5.204-5.534c-8.446,0-11.11,9.838-11.11,14.553
		c0,4.674,2.746,6.477,6.56,6.477c5.165,0,9.263-4.959,9.756-12.83c1.54-0.842,2.604-2.364,3.388-3.808
		c0.304,0.407,0.543,0.896,0.713,1.482c0.205,0.71,0.332,1.508,0.386,2.39c0.051,0.882,0.076,1.762,0.076,2.634
		c0,0.978-0.025,1.972-0.076,2.983c-0.054,1.01-0.078,1.979-0.078,2.902c0,0.688,0.029,1.32,0.09,1.902
		c0.062,0.582,0.168,1.098,0.322,1.543c0,0,0.353,0.843,0.873,0.798c0.514,0,1.088-0.261,1.723-0.784
		c0.636-0.521,1.304-1.212,2.005-2.07c0.703-0.855,1.42-1.838,2.146-2.941c0.729-1.105,1.431-2.236,2.107-3.393
		c0.678-1.158,1.314-2.303,1.914-3.435c0.602-1.13,1.123-2.155,1.57-3.071C74.82,20.717,75.172,19.959,75.432,19.36z M53.734,25.115
		c-0.615,4.838-2.625,8.525-4.633,8.525c-1.56,0-2.093-0.613-2.093-3.32c0-4.016,2.418-11.517,5.33-11.517
		c1.022,0,1.474,0.615,1.558,2.335c-0.697,0.329-1.148,1.026-1.148,2.132C52.75,24.294,53.077,24.869,53.734,25.115z"/>
</g>
</svg>
