<?xml version="1.0" encoding="utf-8"?>
<!-- Generator: Adobe Illustrator 17.1.0, SVG Export Plug-In . SVG Version: 6.00 Build 0)  -->
<!DOCTYPE svg PUBLIC "-//W3C//DTD SVG 1.1//EN" "http://www.w3.org/Graphics/SVG/1.1/DTD/svg11.dtd">
<svg version="1.1" id="Layer_1" xmlns="http://www.w3.org/2000/svg" xmlns:xlink="http://www.w3.org/1999/xlink" x="0px" y="0px"
	 viewBox="0 0 203.594 28.24" enable-background="new 0 0 203.594 28.24" xml:space="preserve">
<g>
	<g>
		<path fill="#FFFFFF" d="M5.887,9.024c0.337-0.54,0.691-1.001,1.06-1.38c0.368-0.378,0.755-0.685,1.155-0.924
			c0.781-0.475,1.741-0.714,2.881-0.714c1.223,0,2.236,0.248,3.038,0.747c0.76,0.477,1.329,1.244,1.71,2.306
			c0.569-1.018,1.286-1.787,2.151-2.306c0.865-0.499,1.857-0.747,2.977-0.747c1.835,0,3.121,0.476,3.86,1.427
			c0.697,0.974,1.044,2.339,1.044,4.091v6.363c0,0.93,0.106,1.503,0.316,1.72c0.232,0.238,0.728,0.357,1.487,0.357l0.918-0.033
			v1.722h-8.418v-1.722h0.792h0.188c0.697,0,1.14-0.109,1.329-0.324c0.191-0.217,0.284-0.779,0.284-1.687v-6.072
			c0-1.254-0.221-2.162-0.664-2.725c-0.465-0.543-1.235-0.812-2.31-0.812c-1.14,0-2.036,0.391-2.69,1.169
			c-0.675,0.801-1.013,1.85-1.013,3.147v5.261c0,0.93,0.105,1.503,0.316,1.72c0.232,0.238,0.729,0.357,1.488,0.357l0.919-0.033
			v1.722h-8.546v-1.722h0.95h0.189c0.717,0,1.149-0.109,1.297-0.324c0.189-0.217,0.285-0.779,0.285-1.687v-6.072
			c0-1.275-0.232-2.185-0.696-2.725c-0.464-0.543-1.244-0.812-2.342-0.812c-1.223,0-2.162,0.401-2.816,1.201
			c-0.654,0.801-0.981,1.947-0.981,3.441v4.936c0,0.93,0.105,1.503,0.316,1.72c0.19,0.238,0.675,0.357,1.456,0.357l0.95-0.033v1.722
			H0v-1.713h1.14h0.189c0.697,0,1.14-0.107,1.33-0.324c0.19-0.214,0.285-0.774,0.285-1.678v-7.626c0-0.86-0.094-1.41-0.285-1.647
			C2.448,8.45,1.941,8.343,1.14,8.343L0,8.308V6.492h5.981L5.887,9.024z"/>
		<path fill="#FFFFFF" d="M47.156,15.256v1.331c0,1.364-0.148,2.619-0.443,3.767c-0.316,1.125-1.392,1.688-3.228,1.688
			c-0.928,0-1.656-0.261-2.184-0.779c-0.548-0.498-0.886-1.256-1.012-2.272c-0.02,0.022-0.032,0.043-0.032,0.065
			c0,0.022-0.01,0.044-0.031,0.065c-0.021,0.022-0.038,0.045-0.047,0.066c-0.012,0.02-0.028,0.043-0.049,0.065
			c-0.717,1.06-1.478,1.818-2.279,2.272c-0.801,0.455-1.772,0.682-2.911,0.682c-1.372,0-2.447-0.368-3.228-1.104
			c-0.824-0.736-1.234-1.73-1.234-2.986c0-1.537,0.421-2.672,1.266-3.409c0.801-0.713,2.267-1.254,4.399-1.623
			c0.105-0.021,0.217-0.042,0.333-0.066c0.115-0.02,0.225-0.043,0.331-0.065c0.106-0.019,0.202-0.033,0.285-0.033
			c0.106,0,0.211-0.009,0.318-0.032c1.265-0.217,2.077-0.498,2.436-0.844c0.359-0.303,0.538-0.822,0.538-1.558
			c0-0.929-0.296-1.633-0.886-2.111c-0.612-0.453-1.498-0.681-2.658-0.681c-0.696,0-1.277,0.076-1.74,0.227
			c-0.549,0.174-0.993,0.433-1.329,0.78c0.443,0.086,0.78,0.248,1.013,0.485c0.189,0.238,0.286,0.574,0.286,1.007
			c0,0.54-0.18,0.995-0.539,1.362c-0.36,0.349-0.844,0.52-1.457,0.52c-0.548,0-0.992-0.206-1.329-0.618
			c-0.358-0.41-0.538-0.908-0.538-1.493c0-1.211,0.526-2.175,1.581-2.889c1.035-0.714,2.48-1.071,4.337-1.071
			c1.097,0,2.004,0.076,2.721,0.227c0.76,0.173,1.393,0.411,1.9,0.713c0.611,0.369,1.044,0.813,1.298,1.332
			c0.231,0.541,0.347,1.298,0.347,2.272v7.727c0,0.54,0.084,0.952,0.253,1.233c0.148,0.282,0.391,0.422,0.729,0.422
			c0.463,0,0.78-0.215,0.949-0.648c0.126-0.412,0.189-1.299,0.189-2.663v-1.364H47.156z M40.02,13.601
			c-0.074,0.044-0.143,0.087-0.206,0.129c-0.147,0.087-0.295,0.163-0.442,0.229c-0.021,0.021-0.043,0.032-0.063,0.032
			c-0.021,0-0.053,0.011-0.095,0.033c-0.043,0.022-0.074,0.031-0.096,0.031c-0.021,0-0.042,0.012-0.063,0.031
			c-0.106,0.022-0.264,0.077-0.474,0.164c-0.084,0.043-0.18,0.076-0.285,0.097c-0.105,0.022-0.211,0.054-0.317,0.098l-1.709,0.584
			c-0.506,0.173-0.907,0.336-1.201,0.487c-0.55,0.301-0.899,0.594-1.046,0.875c-0.147,0.305-0.221,0.747-0.221,1.332
			c0,0.67,0.221,1.201,0.665,1.591c0.4,0.412,0.992,0.616,1.773,0.616c1.245,0,2.226-0.4,2.943-1.201
			c0.738-0.821,1.107-1.871,1.107-3.148v-2.111C40.183,13.515,40.093,13.558,40.02,13.601z"/>
		<path fill="#FFFFFF" d="M63.33,15.418c-0.297,2.078-1.005,3.723-2.121,4.935c-1.14,1.234-2.765,1.85-4.874,1.85
			c-2.259,0-4.074-0.703-5.444-2.11c-1.351-1.385-2.026-3.268-2.026-5.648c0-2.619,0.686-4.686,2.057-6.201
			c1.35-1.493,3.239-2.239,5.665-2.239c1.899,0,3.438,0.388,4.621,1.161c1.201,0.807,1.804,1.848,1.804,3.125
			c0,0.801-0.201,1.438-0.603,1.915c-0.421,0.497-0.992,0.746-1.708,0.746c-0.591,0-1.075-0.193-1.455-0.584
			c-0.38-0.39-0.571-0.877-0.571-1.461c0-0.389,0.096-0.735,0.285-1.038c0.189-0.304,0.421-0.465,0.696-0.487h0.063h0.033
			c0.021-0.023,0.052-0.033,0.094-0.033h0.063c0.064,0,0.138-0.022,0.221-0.064c0.064-0.023,0.095-0.075,0.095-0.162
			c0-0.261-0.189-0.488-0.569-0.683c-0.211-0.086-0.422-0.168-0.633-0.244c-0.21-0.076-0.432-0.134-0.665-0.177
			c-0.146-0.022-0.284-0.043-0.411-0.065c-0.126-0.023-0.253-0.044-0.379-0.065c-0.126-0.021-0.242-0.033-0.349-0.033
			c-0.105,0-0.201,0-0.285,0c-1.455,0-2.615,0.544-3.481,1.631c-0.845,1.088-1.266,2.644-1.266,4.667
			c0,1.829,0.433,3.275,1.297,4.341c0.845,1.066,2.047,1.599,3.608,1.599c1.119,0,2.078-0.423,2.881-1.266
			c0.779-0.845,1.287-1.969,1.519-3.377v-0.033H63.33z"/>
		<path fill="#FFFFFF" d="M71.619,8.634c0.528-0.844,1.247-1.505,2.153-1.98c0.886-0.455,1.91-0.682,3.07-0.682
			c1.521,0,2.742,0.412,3.672,1.233c0.907,0.802,1.361,1.916,1.361,3.344v7.337c0,0.93,0.104,1.503,0.316,1.72
			c0.232,0.238,0.728,0.357,1.488,0.357l1.14-0.033v1.722h-8.767v-1.722h0.95h0.189c0.717,0,1.149-0.109,1.299-0.324
			c0.19-0.217,0.284-0.779,0.284-1.687v-6.785c0-0.887-0.284-1.611-0.855-2.175c-0.57-0.519-1.351-0.779-2.341-0.779
			c-1.162,0-2.11,0.347-2.849,1.039c-0.738,0.693-1.109,1.58-1.109,2.662v6.006c0,0.93,0.106,1.503,0.317,1.72
			c0.19,0.238,0.674,0.357,1.457,0.357l1.044-0.033v1.722h-8.862v-1.716h1.141h0.188c0.696,0,1.139-0.107,1.329-0.324
			c0.19-0.215,0.286-0.775,0.286-1.681V3.823c0-0.863-0.095-1.412-0.286-1.65c-0.211-0.216-0.718-0.324-1.518-0.324l-1.141-0.034V0
			h6.044V8.634z"/>
		<path fill="#FFFFFF" d="M92.824,17.914c0,0.933,0.106,1.509,0.317,1.724c0.19,0.239,0.674,0.359,1.457,0.359l1.138-0.033v1.689
			H86.59v-1.689h1.327h0.191c0.697,0,1.14-0.109,1.329-0.326c0.189-0.219,0.284-0.786,0.284-1.703V10.21
			c0-0.873-0.095-1.43-0.284-1.67c-0.21-0.218-0.717-0.327-1.52-0.327L86.59,8.179V6.492h6.233V17.914z M92.634,0.616
			c0.401,0.412,0.602,0.909,0.602,1.494c0,0.563-0.201,1.049-0.602,1.46c-0.4,0.413-0.886,0.619-1.454,0.619
			c-0.55,0-1.025-0.206-1.425-0.619c-0.401-0.411-0.601-0.896-0.601-1.46c0-0.585,0.2-1.081,0.601-1.494
			c0.4-0.389,0.876-0.585,1.425-0.585V0C91.748,0.044,92.234,0.248,92.634,0.616z"/>
		<path fill="#FFFFFF" d="M103.458,8.959c0.106-0.15,0.216-0.292,0.333-0.422c0.115-0.131,0.225-0.259,0.331-0.39
			c0.106-0.107,0.213-0.216,0.318-0.323c0.104-0.108,0.21-0.216,0.315-0.325c0.612-0.564,1.234-0.952,1.869-1.169
			c0.61-0.216,1.359-0.324,2.246-0.324c1.561,0,2.806,0.422,3.735,1.265c0.907,0.866,1.36,2.111,1.36,3.734v6.883
			c0,0.93,0.107,1.503,0.317,1.72c0.189,0.238,0.674,0.357,1.455,0.357l0.95-0.033v1.722h-8.639v-1.722h0.918h0.19
			c0.695,0,1.139-0.109,1.327-0.324c0.19-0.217,0.285-0.779,0.285-1.687v-6.265c0-1.17-0.242-2.033-0.727-2.597
			c-0.485-0.562-1.234-0.844-2.248-0.844c-1.222,0-2.237,0.346-3.038,1.038c-0.782,0.714-1.171,1.645-1.171,2.792v5.844
			c0,0.93,0.106,1.503,0.317,1.72c0.191,0.238,0.675,0.357,1.456,0.357l0.949-0.033v1.722h-8.767v-1.713h1.14h0.19
			c0.694,0,1.138-0.107,1.328-0.324c0.19-0.214,0.285-0.774,0.285-1.678v-7.626c0-0.86-0.094-1.41-0.285-1.647
			c-0.211-0.215-0.718-0.321-1.519-0.321l-1.14-0.035V6.492h6.045L103.458,8.959z"/>
		<path fill="#FFFFFF" d="M120.2,14.218c0.021,1.559,0.381,2.921,1.075,4.09c0.676,1.148,1.88,1.72,3.609,1.72
			c1.141,0,2.142-0.357,3.008-1.07c0.801-0.693,1.349-1.667,1.645-2.923l2.026-0.033c-0.422,1.993-1.246,3.517-2.469,4.578
			c-1.287,1.083-2.838,1.624-4.652,1.624c-2.302,0-4.151-0.725-5.554-2.175c-1.405-1.45-2.106-3.354-2.106-5.713
			c0-2.553,0.692-4.588,2.077-6.102c1.38-1.472,3.22-2.208,5.518-2.208c1.71,0,3.198,0.422,4.464,1.265
			c1.288,0.887,2.1,2.024,2.437,3.408c0.04,0.11,0.074,0.202,0.095,0.277c0.02,0.076,0.041,0.158,0.063,0.244
			c0.02,0.088,0.031,0.174,0.031,0.259c0,0.066,0.011,0.131,0.033,0.196c0.042,0.152,0.067,0.309,0.079,0.471
			c0.01,0.162,0.027,0.33,0.047,0.502v1.624v-0.033H120.2z M127.162,9.015c-0.696-0.774-1.646-1.16-2.847-1.16
			c-1.118,0-2.047,0.408-2.785,1.224c-0.76,0.838-1.203,1.945-1.33,3.32l8.071-0.033C128.248,10.949,127.879,9.833,127.162,9.015z"
			/>
	</g>
	<path fill="#E93C25" d="M145.327,6.265h1.615v5.582h-1.615c-0.378-1.232-0.989-2.175-1.835-2.823
		c-0.863-0.65-1.95-0.974-3.258-0.974c-0.909,0-1.647,0.194-2.214,0.584c-0.593,0.39-0.888,0.889-0.888,1.494
		c0,0.629,0.358,1.081,1.076,1.362c0.359,0.152,0.748,0.283,1.171,0.391c0.42,0.109,0.875,0.216,1.36,0.325
		c0.146,0.044,0.289,0.077,0.427,0.097c0.136,0.022,0.28,0.044,0.427,0.065c0.148,0.043,0.285,0.076,0.411,0.098
		c0.127,0.022,0.264,0.054,0.411,0.098c0.674,0.173,1.315,0.378,1.913,0.616c0.603,0.24,1.179,0.51,1.725,0.812
		c1.098,0.605,1.648,1.666,1.648,3.182c0,1.602-0.517,2.834-1.55,3.7c-1.057,0.887-2.545,1.331-4.465,1.331
		c-1.074,0-2.046-0.173-2.91-0.519c-0.865-0.346-1.669-0.867-2.405-1.558l-0.476,1.785h-1.55v-6.071h1.742
		c0.019,0.109,0.039,0.205,0.061,0.291c0.021,0.087,0.054,0.173,0.096,0.259c0.021,0.088,0.043,0.169,0.063,0.244
		c0.022,0.077,0.041,0.147,0.064,0.211c0.083,0.261,0.178,0.498,0.284,0.715c0.084,0.195,0.202,0.39,0.348,0.585l0.189,0.194
		c0.021,0.044,0.075,0.108,0.159,0.195c0.317,0.368,0.782,0.703,1.393,1.005c0.569,0.281,1.161,0.477,1.772,0.586
		c0.104,0.021,0.252,0.032,0.443,0.032c0.104,0.022,0.253,0.033,0.443,0.033c1.012,0,1.813-0.207,2.405-0.618
		c0.591-0.41,0.886-0.952,0.886-1.623c0-0.8-0.401-1.364-1.204-1.687c-0.843-0.347-1.783-0.629-2.816-0.846
		c-0.106-0.021-0.206-0.043-0.301-0.065c-0.095-0.02-0.196-0.043-0.301-0.065c-0.105-0.02-0.206-0.043-0.302-0.065
		c-0.095-0.02-0.196-0.043-0.301-0.064c-0.674-0.152-1.307-0.336-1.897-0.553c-0.591-0.216-1.161-0.475-1.71-0.778
		c-1.098-0.606-1.646-1.688-1.646-3.247c0-1.623,0.559-2.781,1.677-3.473c1.096-0.671,2.321-1.039,3.671-1.104h0.253h0.189
		c0.991,0,1.911,0.151,2.754,0.455c0.78,0.324,1.476,0.801,2.089,1.429V7.856L145.327,6.265z"/>
	<path fill="#E93C25" d="M155.994,8.634c0.527-0.844,1.244-1.505,2.15-1.98c0.888-0.455,1.911-0.682,3.073-0.682
		c1.518,0,2.741,0.412,3.671,1.233c0.905,0.802,1.36,1.916,1.36,3.344v7.337c0,0.93,0.105,1.503,0.315,1.72
		c0.234,0.238,0.73,0.357,1.487,0.357l1.14-0.033v1.722h-8.767v-1.722h0.951h0.188c0.718,0,1.151-0.109,1.297-0.324
		c0.191-0.217,0.285-0.779,0.285-1.687v-6.785c0-0.887-0.285-1.611-0.854-2.175c-0.57-0.519-1.351-0.779-2.343-0.779
		c-1.16,0-2.109,0.347-2.847,1.039c-0.74,0.693-1.107,1.58-1.107,2.662v6.006c0,0.93,0.103,1.503,0.316,1.72
		c0.189,0.238,0.676,0.357,1.456,0.357l1.046-0.033v1.722h-8.864v-1.716h1.141h0.19c0.695,0,1.139-0.107,1.328-0.324
		c0.191-0.215,0.287-0.775,0.287-1.681V3.823c0-0.863-0.095-1.412-0.287-1.65c-0.211-0.216-0.717-0.324-1.518-0.324l-1.141-0.034V0
		h6.046V8.634z"/>
	<path fill="#E93C25" d="M182.968,8.213c1.469,1.493,2.205,3.419,2.205,5.778c0,2.511-0.716,4.501-2.144,5.972
		c-1.429,1.494-3.352,2.24-5.768,2.24c-2.291,0-4.192-0.714-5.706-2.143c-1.535-1.384-2.3-3.3-2.3-5.746
		c0-2.553,0.723-4.577,2.174-6.071c1.408-1.493,3.343-2.239,5.801-2.239V5.972C179.584,6.015,181.495,6.762,182.968,8.213z
		 M173.884,9.669c-0.808,1.144-1.212,2.677-1.212,4.597c0,2.03,0.393,3.542,1.18,4.533c0.785,1.038,1.943,1.555,3.474,1.555
		c1.38,0,2.464-0.529,3.251-1.587c0.785-1.014,1.178-2.462,1.178-4.339c0-2.115-0.393-3.714-1.178-4.792
		c-0.807-1.1-1.945-1.65-3.408-1.65V7.953C175.765,7.996,174.67,8.568,173.884,9.669z"/>
	<path fill="#E93C25" d="M191.853,9.089c0.188-0.238,0.374-0.465,0.555-0.683c0.179-0.216,0.356-0.41,0.526-0.583
		c0.17-0.173,0.33-0.34,0.478-0.503c0.148-0.163,0.306-0.298,0.478-0.407c0.486-0.367,0.986-0.616,1.495-0.746
		c0.509-0.13,1.123-0.194,1.845-0.194c1.889,0,3.427,0.714,4.616,2.142c1.167,1.409,1.75,3.258,1.75,5.552
		c0,2.489-0.614,4.524-1.845,6.102c-1.253,1.603-2.823,2.403-4.712,2.403c-0.996,0-1.877-0.184-2.641-0.551
		c-0.742-0.347-1.443-0.964-2.102-1.852c-0.02-0.041-0.042-0.08-0.062-0.113c-0.021-0.032-0.043-0.071-0.064-0.114
		c-0.083-0.085-0.136-0.151-0.158-0.194v5.147c0,0.915,0.106,1.482,0.315,1.702c0.191,0.238,0.676,0.359,1.457,0.359h1.456v1.686
		h-9.273v-1.686h1.139c0.781,0,1.288-0.119,1.519-0.359c0.191-0.217,0.286-0.784,0.286-1.698V10.203
		c0-0.871-0.095-1.425-0.286-1.663c-0.231-0.241-0.738-0.36-1.519-0.36l-1.139-0.03V6.492h6.045L191.853,9.089z M193.054,9.933
		c-0.801,1.127-1.201,2.542-1.201,4.252c0,1.667,0.379,3.032,1.139,4.092c0.758,1.081,1.739,1.622,2.943,1.622
		c1.393,0,2.447-0.529,3.165-1.59c0.717-1.017,1.075-2.521,1.075-4.512c0-1.775-0.347-3.137-1.045-4.09
		c-0.717-0.931-1.741-1.396-3.07-1.396V8.277C194.859,8.299,193.856,8.851,193.054,9.933z"/>
</g>
</svg>
