<svg xmlns="http://www.w3.org/2000/svg" xmlns:xlink="http://www.w3.org/1999/xlink" width="1360" height="1760"><g transform="translate(0 0)"><path d="M0 0h1360v1760H0z" fill="#fff"/><path d="M120 445c0-2.76 2.24-5 5-5h270c2.76 0 5 2.24 5 5v48c0 2.76-2.24 5-5 5H125c-2.76 0-5-2.24-5-5z" fill="#fff"/><path d="M120 469h280v29H120z" fill="#fff"/><path d="M125 900c-2.76 0-5-2.24-5-5V445c0-2.76 2.24-5 5-5h270c2.76 0 5 2.24 5 5v450c0 2.76-2.24 5-5 5zM120 498h280" stroke="#000" stroke-width="2" fill="none"/><use xlink:href="#a" transform="matrix(1,0,0,1,120,440) translate(3.25 21.799999999999997)"/><use xlink:href="#b" transform="matrix(1,0,0,1,120,440) translate(59.10000000000001 21.799999999999997)"/><use xlink:href="#c" transform="matrix(1,0,0,1,120,440) translate(108.10000000000001 21.799999999999997)"/><use xlink:href="#d" transform="matrix(1,0,0,1,120,440) translate(153.10000000000002 21.799999999999997)"/><use xlink:href="#e" transform="matrix(1,0,0,1,120,440) translate(178.10000000000002 21.799999999999997)"/><use xlink:href="#f" transform="matrix(1,0,0,1,120,440) translate(208.10000000000002 21.799999999999997)"/><use xlink:href="#g" transform="matrix(1,0,0,1,120,440) translate(123.55 43.4)"/><path d="M160 525c0-2.76 2.24-5 5-5h190c2.76 0 5 2.24 5 5v50c0 2.76-2.24 5-5 5H165c-2.76 0-5-2.24-5-5z" stroke="#000" stroke-width="2" fill="#fff"/><use xlink:href="#h" transform="matrix(1,0,0,1,160,520) translate(95.00500000000001 33.15)"/><path d="M160 585c0-2.76 2.24-5 5-5h190c2.76 0 5 2.24 5 5v50c0 2.76-2.24 5-5 5H165c-2.76 0-5-2.24-5-5z" stroke="#000" stroke-width="2" fill="#fff"/><use xlink:href="#i" transform="matrix(1,0,0,1,160,580) translate(95.00500000000001 33.15)"/><path d="M160 645c0-2.76 2.24-5 5-5h190c2.76 0 5 2.24 5 5v50c0 2.76-2.24 5-5 5H165c-2.76 0-5-2.24-5-5z" stroke="#000" stroke-width="2" fill="#fff"/><use xlink:href="#j" transform="matrix(1,0,0,1,160,640) translate(90.00500000000001 33.15)"/><path d="M160 705c0-2.76 2.24-5 5-5h190c2.76 0 5 2.24 5 5v50c0 2.76-2.24 5-5 5H165c-2.76 0-5-2.24-5-5z" stroke="#000" stroke-width="2" fill="#fff"/><use xlink:href="#j" transform="matrix(1,0,0,1,160,700) translate(90.00500000000001 33.15)"/><path d="M160 765c0-2.76 2.24-5 5-5h190c2.76 0 5 2.24 5 5v50c0 2.76-2.24 5-5 5H165c-2.76 0-5-2.24-5-5z" stroke="#000" stroke-width="2" fill="#fff"/><use xlink:href="#k" transform="matrix(1,0,0,1,160,760) translate(90.00500000000001 33.15)"/><path d="M160 825c0-2.76 2.24-5 5-5h190c2.76 0 5 2.24 5 5v50c0 2.76-2.24 5-5 5H165c-2.76 0-5-2.24-5-5z" stroke="#000" stroke-width="2" fill="#fff"/><use xlink:href="#l" transform="matrix(1,0,0,1,160,820) translate(90.00500000000001 33.15)"/><path d="M700 25c0-2.76 2.24-5 5-5h450c2.76 0 5 2.24 5 5v30c0 2.76-2.24 5-5 5H705c-2.76 0-5-2.24-5-5z" fill="#fff"/><path d="M700 40h460v20H700z" fill="#fff"/><path d="M705 1300c-2.76 0-5-2.24-5-5V25c0-2.76 2.24-5 5-5h450c2.76 0 5 2.24 5 5v1270c0 2.76-2.24 5-5 5zM700 60h460" stroke="#000" stroke-width="2" fill="none"/><use xlink:href="#m" transform="matrix(1,0,0,1,700,20) translate(58.275000000000006 23.6)"/><use xlink:href="#n" transform="matrix(1,0,0,1,700,20) translate(154.175 23.6)"/><use xlink:href="#e" transform="matrix(1,0,0,1,700,20) translate(173.125 23.6)"/><use xlink:href="#o" transform="matrix(1,0,0,1,700,20) translate(203.12500000000003 23.6)"/><use xlink:href="#p" transform="matrix(1,0,0,1,700,20) translate(286.92500000000007 23.6)"/><use xlink:href="#q" transform="matrix(1,0,0,1,700,20) translate(347.82500000000005 23.6)"/><use xlink:href="#r" transform="matrix(1,0,0,1,700,20) translate(371.82500000000005 23.6)"/><path d="M719.17 85c0-2.76 2.24-5 5-5h411.66c2.76 0 5 2.24 5 5v50c0 2.76-2.24 5-5 5H724.17c-2.76 0-5-2.24-5-5z" stroke="#000" stroke-width="2" fill="#fff"/><use xlink:href="#s" transform="matrix(1,0,0,1,719.1666666666667,80) translate(30.755000000000003 33.15)"/><use xlink:href="#t" transform="matrix(1,0,0,1,719.1666666666667,80) translate(41.755 33.15)"/><use xlink:href="#u" transform="matrix(1,0,0,1,719.1666666666667,80) translate(83.405 33.15)"/><use xlink:href="#v" transform="matrix(1,0,0,1,719.1666666666667,80) translate(93.405 33.15)"/><use xlink:href="#w" transform="matrix(1,0,0,1,719.1666666666667,80) translate(113.405 33.15)"/><use xlink:href="#u" transform="matrix(1,0,0,1,719.1666666666667,80) translate(186.005 33.15)"/><use xlink:href="#x" transform="matrix(1,0,0,1,719.1666666666667,80) translate(196.005 33.15)"/><use xlink:href="#y" transform="matrix(1,0,0,1,719.1666666666667,80) translate(226.005 33.15)"/><use xlink:href="#u" transform="matrix(1,0,0,1,719.1666666666667,80) translate(332.555 33.15)"/><use xlink:href="#z" transform="matrix(1,0,0,1,719.1666666666667,80) translate(342.555 33.15)"/><use xlink:href="#A" transform="matrix(1,0,0,1,719.1666666666667,80) translate(385.255 33.15)"/><path d="M719.17 145c0-2.76 2.24-5 5-5h411.66c2.76 0 5 2.24 5 5v50c0 2.76-2.24 5-5 5H724.17c-2.76 0-5-2.24-5-5z" stroke="#000" stroke-width="2" fill="#fff"/><use xlink:href="#s" transform="matrix(1,0,0,1,719.1666666666667,140) translate(31.28000000000001 33.15)"/><use xlink:href="#t" transform="matrix(1,0,0,1,719.1666666666667,140) translate(42.28000000000001 33.15)"/><use xlink:href="#u" transform="matrix(1,0,0,1,719.1666666666667,140) translate(83.93 33.15)"/><use xlink:href="#B" transform="matrix(1,0,0,1,719.1666666666667,140) translate(93.93 33.15)"/><use xlink:href="#w" transform="matrix(1,0,0,1,719.1666666666667,140) translate(113.93 33.15)"/><use xlink:href="#u" transform="matrix(1,0,0,1,719.1666666666667,140) translate(186.53 33.15)"/><use xlink:href="#v" transform="matrix(1,0,0,1,719.1666666666667,140) translate(196.53 33.15)"/><use xlink:href="#y" transform="matrix(1,0,0,1,719.1666666666667,140) translate(216.53 33.15)"/><use xlink:href="#u" transform="matrix(1,0,0,1,719.1666666666667,140) translate(323.08000000000004 33.15)"/><use xlink:href="#C" transform="matrix(1,0,0,1,719.1666666666667,140) translate(333.08000000000004 33.15)"/><use xlink:href="#A" transform="matrix(1,0,0,1,719.1666666666667,140) translate(384.73 33.15)"/><path d="M719.17 205c0-2.76 2.24-5 5-5h411.66c2.76 0 5 2.24 5 5v50c0 2.76-2.24 5-5 5H724.17c-2.76 0-5-2.24-5-5z" stroke="#000" stroke-width="2" fill="#fff"/><use xlink:href="#s" transform="matrix(1,0,0,1,719.1666666666667,200) translate(30.755000000000003 33.15)"/><use xlink:href="#t" transform="matrix(1,0,0,1,719.1666666666667,200) translate(41.755 33.15)"/><use xlink:href="#u" transform="matrix(1,0,0,1,719.1666666666667,200) translate(83.405 33.15)"/><use xlink:href="#D" transform="matrix(1,0,0,1,719.1666666666667,200) translate(93.405 33.15)"/><use xlink:href="#w" transform="matrix(1,0,0,1,719.1666666666667,200) translate(113.405 33.15)"/><use xlink:href="#u" transform="matrix(1,0,0,1,719.1666666666667,200) translate(186.005 33.15)"/><use xlink:href="#E" transform="matrix(1,0,0,1,719.1666666666667,200) translate(196.005 33.15)"/><use xlink:href="#y" transform="matrix(1,0,0,1,719.1666666666667,200) translate(226.005 33.15)"/><use xlink:href="#u" transform="matrix(1,0,0,1,719.1666666666667,200) translate(332.555 33.15)"/><use xlink:href="#z" transform="matrix(1,0,0,1,719.1666666666667,200) translate(342.555 33.15)"/><use xlink:href="#A" transform="matrix(1,0,0,1,719.1666666666667,200) translate(385.255 33.15)"/><path d="M719.17 265c0-2.76 2.24-5 5-5h411.66c2.76 0 5 2.24 5 5v50c0 2.76-2.24 5-5 5H724.17c-2.76 0-5-2.24-5-5z" stroke="#000" stroke-width="2" fill="#fff"/><use xlink:href="#s" transform="matrix(1,0,0,1,719.1666666666667,260) translate(30.755000000000003 33.15)"/><use xlink:href="#t" transform="matrix(1,0,0,1,719.1666666666667,260) translate(41.755 33.15)"/><use xlink:href="#u" transform="matrix(1,0,0,1,719.1666666666667,260) translate(83.405 33.15)"/><use xlink:href="#F" transform="matrix(1,0,0,1,719.1666666666667,260) translate(93.405 33.15)"/><use xlink:href="#w" transform="matrix(1,0,0,1,719.1666666666667,260) translate(113.405 33.15)"/><use xlink:href="#u" transform="matrix(1,0,0,1,719.1666666666667,260) translate(186.005 33.15)"/><use xlink:href="#G" transform="matrix(1,0,0,1,719.1666666666667,260) translate(196.005 33.15)"/><use xlink:href="#y" transform="matrix(1,0,0,1,719.1666666666667,260) translate(226.005 33.15)"/><use xlink:href="#u" transform="matrix(1,0,0,1,719.1666666666667,260) translate(332.555 33.15)"/><use xlink:href="#z" transform="matrix(1,0,0,1,719.1666666666667,260) translate(342.555 33.15)"/><use xlink:href="#A" transform="matrix(1,0,0,1,719.1666666666667,260) translate(385.255 33.15)"/><path d="M719.17 325c0-2.76 2.24-5 5-5h411.66c2.76 0 5 2.24 5 5v50c0 2.76-2.24 5-5 5H724.17c-2.76 0-5-2.24-5-5z" stroke="#000" stroke-width="2" fill="#fff"/><use xlink:href="#s" transform="matrix(1,0,0,1,719.1666666666667,320) translate(26.28000000000001 33.15)"/><use xlink:href="#t" transform="matrix(1,0,0,1,719.1666666666667,320) translate(37.28000000000001 33.15)"/><use xlink:href="#u" transform="matrix(1,0,0,1,719.1666666666667,320) translate(78.93 33.15)"/><use xlink:href="#H" transform="matrix(1,0,0,1,719.1666666666667,320) translate(88.93 33.15)"/><use xlink:href="#w" transform="matrix(1,0,0,1,719.1666666666667,320) translate(108.93 33.15)"/><use xlink:href="#u" transform="matrix(1,0,0,1,719.1666666666667,320) translate(181.53 33.15)"/><use xlink:href="#I" transform="matrix(1,0,0,1,719.1666666666667,320) translate(191.53 33.15)"/><use xlink:href="#y" transform="matrix(1,0,0,1,719.1666666666667,320) translate(221.53 33.15)"/><use xlink:href="#u" transform="matrix(1,0,0,1,719.1666666666667,320) translate(328.08000000000004 33.15)"/><use xlink:href="#C" transform="matrix(1,0,0,1,719.1666666666667,320) translate(338.08000000000004 33.15)"/><use xlink:href="#A" transform="matrix(1,0,0,1,719.1666666666667,320) translate(389.73 33.15)"/><path d="M719.17 385c0-2.76 2.24-5 5-5h411.66c2.76 0 5 2.24 5 5v50c0 2.76-2.24 5-5 5H724.17c-2.76 0-5-2.24-5-5z" stroke="#000" stroke-width="2" fill="#fff"/><g><use xlink:href="#s" transform="matrix(1,0,0,1,719.1666666666667,380) translate(30.755000000000003 33.15)"/><use xlink:href="#t" transform="matrix(1,0,0,1,719.1666666666667,380) translate(41.755 33.15)"/><use xlink:href="#u" transform="matrix(1,0,0,1,719.1666666666667,380) translate(83.405 33.15)"/><use xlink:href="#J" transform="matrix(1,0,0,1,719.1666666666667,380) translate(93.405 33.15)"/><use xlink:href="#w" transform="matrix(1,0,0,1,719.1666666666667,380) translate(113.405 33.15)"/><use xlink:href="#u" transform="matrix(1,0,0,1,719.1666666666667,380) translate(186.005 33.15)"/><use xlink:href="#K" transform="matrix(1,0,0,1,719.1666666666667,380) translate(196.005 33.15)"/><use xlink:href="#y" transform="matrix(1,0,0,1,719.1666666666667,380) translate(226.005 33.15)"/><use xlink:href="#u" transform="matrix(1,0,0,1,719.1666666666667,380) translate(332.555 33.15)"/><use xlink:href="#z" transform="matrix(1,0,0,1,719.1666666666667,380) translate(342.555 33.15)"/><use xlink:href="#A" transform="matrix(1,0,0,1,719.1666666666667,380) translate(385.255 33.15)"/></g><path d="M719.17 445c0-2.76 2.24-5 5-5h411.66c2.76 0 5 2.24 5 5v50c0 2.76-2.24 5-5 5H724.17c-2.76 0-5-2.24-5-5z" stroke="#000" stroke-width="2" fill="#fff"/><g><use xlink:href="#s" transform="matrix(1,0,0,1,719.1666666666667,440) translate(31.28000000000001 33.15)"/><use xlink:href="#t" transform="matrix(1,0,0,1,719.1666666666667,440) translate(42.28000000000001 33.15)"/><use xlink:href="#u" transform="matrix(1,0,0,1,719.1666666666667,440) translate(83.93 33.15)"/><use xlink:href="#L" transform="matrix(1,0,0,1,719.1666666666667,440) translate(93.93 33.15)"/><use xlink:href="#w" transform="matrix(1,0,0,1,719.1666666666667,440) translate(113.93 33.15)"/><use xlink:href="#u" transform="matrix(1,0,0,1,719.1666666666667,440) translate(186.53 33.15)"/><use xlink:href="#L" transform="matrix(1,0,0,1,719.1666666666667,440) translate(196.53 33.15)"/><use xlink:href="#y" transform="matrix(1,0,0,1,719.1666666666667,440) translate(216.53 33.15)"/><use xlink:href="#u" transform="matrix(1,0,0,1,719.1666666666667,440) translate(323.08000000000004 33.15)"/><use xlink:href="#C" transform="matrix(1,0,0,1,719.1666666666667,440) translate(333.08000000000004 33.15)"/><use xlink:href="#A" transform="matrix(1,0,0,1,719.1666666666667,440) translate(384.73 33.15)"/></g><path d="M719.17 505c0-2.76 2.24-5 5-5h411.66c2.76 0 5 2.24 5 5v50c0 2.76-2.24 5-5 5H724.17c-2.76 0-5-2.24-5-5z" stroke="#000" stroke-width="2" fill="#fff"/><g><use xlink:href="#s" transform="matrix(1,0,0,1,719.1666666666667,500) translate(26.28000000000001 33.15)"/><use xlink:href="#t" transform="matrix(1,0,0,1,719.1666666666667,500) translate(37.28000000000001 33.15)"/><use xlink:href="#u" transform="matrix(1,0,0,1,719.1666666666667,500) translate(78.93 33.15)"/><use xlink:href="#M" transform="matrix(1,0,0,1,719.1666666666667,500) translate(88.93 33.15)"/><use xlink:href="#w" transform="matrix(1,0,0,1,719.1666666666667,500) translate(108.93 33.15)"/><use xlink:href="#u" transform="matrix(1,0,0,1,719.1666666666667,500) translate(181.53 33.15)"/><use xlink:href="#N" transform="matrix(1,0,0,1,719.1666666666667,500) translate(191.53 33.15)"/><use xlink:href="#y" transform="matrix(1,0,0,1,719.1666666666667,500) translate(221.53 33.15)"/><use xlink:href="#u" transform="matrix(1,0,0,1,719.1666666666667,500) translate(328.08000000000004 33.15)"/><use xlink:href="#C" transform="matrix(1,0,0,1,719.1666666666667,500) translate(338.08000000000004 33.15)"/><use xlink:href="#A" transform="matrix(1,0,0,1,719.1666666666667,500) translate(389.73 33.15)"/></g><path d="M719.17 565c0-2.76 2.24-5 5-5h411.66c2.76 0 5 2.24 5 5v50c0 2.76-2.24 5-5 5H724.17c-2.76 0-5-2.24-5-5z" stroke="#000" stroke-width="2" fill="#fff"/><g><use xlink:href="#s" transform="matrix(1,0,0,1,719.1666666666667,560) translate(30.755000000000003 33.15)"/><use xlink:href="#t" transform="matrix(1,0,0,1,719.1666666666667,560) translate(41.755 33.15)"/><use xlink:href="#u" transform="matrix(1,0,0,1,719.1666666666667,560) translate(83.405 33.15)"/><use xlink:href="#O" transform="matrix(1,0,0,1,719.1666666666667,560) translate(93.405 33.15)"/><use xlink:href="#w" transform="matrix(1,0,0,1,719.1666666666667,560) translate(113.405 33.15)"/><use xlink:href="#u" transform="matrix(1,0,0,1,719.1666666666667,560) translate(186.005 33.15)"/><use xlink:href="#P" transform="matrix(1,0,0,1,719.1666666666667,560) translate(196.005 33.15)"/><use xlink:href="#y" transform="matrix(1,0,0,1,719.1666666666667,560) translate(226.005 33.15)"/><use xlink:href="#u" transform="matrix(1,0,0,1,719.1666666666667,560) translate(332.555 33.15)"/><use xlink:href="#z" transform="matrix(1,0,0,1,719.1666666666667,560) translate(342.555 33.15)"/><use xlink:href="#A" transform="matrix(1,0,0,1,719.1666666666667,560) translate(385.255 33.15)"/></g><path d="M719.17 625c0-2.76 2.24-5 5-5h411.66c2.76 0 5 2.24 5 5v50c0 2.76-2.24 5-5 5H724.17c-2.76 0-5-2.24-5-5z" stroke="#000" stroke-width="2" fill="#fff"/><g><use xlink:href="#s" transform="matrix(1,0,0,1,719.1666666666667,620) translate(25.755000000000003 33.15)"/><use xlink:href="#t" transform="matrix(1,0,0,1,719.1666666666667,620) translate(36.755 33.15)"/><use xlink:href="#u" transform="matrix(1,0,0,1,719.1666666666667,620) translate(78.405 33.15)"/><use xlink:href="#Q" transform="matrix(1,0,0,1,719.1666666666667,620) translate(88.405 33.15)"/><use xlink:href="#w" transform="matrix(1,0,0,1,719.1666666666667,620) translate(118.405 33.15)"/><use xlink:href="#u" transform="matrix(1,0,0,1,719.1666666666667,620) translate(191.005 33.15)"/><use xlink:href="#R" transform="matrix(1,0,0,1,719.1666666666667,620) translate(201.005 33.15)"/><use xlink:href="#y" transform="matrix(1,0,0,1,719.1666666666667,620) translate(231.005 33.15)"/><use xlink:href="#u" transform="matrix(1,0,0,1,719.1666666666667,620) translate(337.555 33.15)"/><use xlink:href="#z" transform="matrix(1,0,0,1,719.1666666666667,620) translate(347.555 33.15)"/><use xlink:href="#A" transform="matrix(1,0,0,1,719.1666666666667,620) translate(390.255 33.15)"/></g><path d="M719.17 685c0-2.76 2.24-5 5-5h411.66c2.76 0 5 2.24 5 5v50c0 2.76-2.24 5-5 5H724.17c-2.76 0-5-2.24-5-5z" stroke="#000" stroke-width="2" fill="#fff"/><g><use xlink:href="#s" transform="matrix(1,0,0,1,719.1666666666667,680) translate(21.95500000000002 33.15)"/><use xlink:href="#t" transform="matrix(1,0,0,1,719.1666666666667,680) translate(32.95500000000002 33.15)"/><use xlink:href="#u" transform="matrix(1,0,0,1,719.1666666666667,680) translate(74.60500000000002 33.15)"/><use xlink:href="#S" transform="matrix(1,0,0,1,719.1666666666667,680) translate(84.60500000000002 33.15)"/><use xlink:href="#w" transform="matrix(1,0,0,1,719.1666666666667,680) translate(113.25500000000002 33.15)"/><use xlink:href="#u" transform="matrix(1,0,0,1,719.1666666666667,680) translate(185.85500000000002 33.15)"/><use xlink:href="#T" transform="matrix(1,0,0,1,719.1666666666667,680) translate(195.85500000000002 33.15)"/><use xlink:href="#y" transform="matrix(1,0,0,1,719.1666666666667,680) translate(225.85500000000002 33.15)"/><use xlink:href="#u" transform="matrix(1,0,0,1,719.1666666666667,680) translate(332.405 33.15)"/><use xlink:href="#C" transform="matrix(1,0,0,1,719.1666666666667,680) translate(342.405 33.15)"/><use xlink:href="#A" transform="matrix(1,0,0,1,719.1666666666667,680) translate(394.05499999999995 33.15)"/></g><path d="M719.17 745c0-2.76 2.24-5 5-5h411.66c2.76 0 5 2.24 5 5v50c0 2.76-2.24 5-5 5H724.17c-2.76 0-5-2.24-5-5z" stroke="#000" stroke-width="2" fill="#fff"/><g><use xlink:href="#s" transform="matrix(1,0,0,1,719.1666666666667,740) translate(25.755000000000003 33.15)"/><use xlink:href="#t" transform="matrix(1,0,0,1,719.1666666666667,740) translate(36.755 33.15)"/><use xlink:href="#u" transform="matrix(1,0,0,1,719.1666666666667,740) translate(78.405 33.15)"/><use xlink:href="#U" transform="matrix(1,0,0,1,719.1666666666667,740) translate(88.405 33.15)"/><use xlink:href="#w" transform="matrix(1,0,0,1,719.1666666666667,740) translate(118.405 33.15)"/><use xlink:href="#u" transform="matrix(1,0,0,1,719.1666666666667,740) translate(191.005 33.15)"/><use xlink:href="#V" transform="matrix(1,0,0,1,719.1666666666667,740) translate(201.005 33.15)"/><use xlink:href="#y" transform="matrix(1,0,0,1,719.1666666666667,740) translate(231.005 33.15)"/><use xlink:href="#u" transform="matrix(1,0,0,1,719.1666666666667,740) translate(337.555 33.15)"/><use xlink:href="#z" transform="matrix(1,0,0,1,719.1666666666667,740) translate(347.555 33.15)"/><use xlink:href="#A" transform="matrix(1,0,0,1,719.1666666666667,740) translate(390.255 33.15)"/></g><path d="M720 805c0-2.76 2.24-5 5-5h411.67c2.76 0 5 2.24 5 5v50c0 2.76-2.24 5-5 5H725c-2.76 0-5-2.24-5-5z" stroke="#000" stroke-width="2" fill="#fff"/><g><use xlink:href="#s" transform="matrix(1,0,0,1,720,800) translate(20.755000000000003 33.15)"/><use xlink:href="#t" transform="matrix(1,0,0,1,720,800) translate(31.755000000000003 33.15)"/><use xlink:href="#u" transform="matrix(1,0,0,1,720,800) translate(73.405 33.15)"/><use xlink:href="#W" transform="matrix(1,0,0,1,720,800) translate(83.405 33.15)"/><use xlink:href="#w" transform="matrix(1,0,0,1,720,800) translate(113.405 33.15)"/><use xlink:href="#u" transform="matrix(1,0,0,1,720,800) translate(186.005 33.15)"/><use xlink:href="#X" transform="matrix(1,0,0,1,720,800) translate(196.005 33.15)"/><use xlink:href="#y" transform="matrix(1,0,0,1,720,800) translate(236.005 33.15)"/><use xlink:href="#u" transform="matrix(1,0,0,1,720,800) translate(342.555 33.15)"/><use xlink:href="#z" transform="matrix(1,0,0,1,720,800) translate(352.555 33.15)"/><use xlink:href="#A" transform="matrix(1,0,0,1,720,800) translate(395.255 33.15)"/></g><path d="M720 865c0-2.76 2.24-5 5-5h411.67c2.76 0 5 2.24 5 5v50c0 2.76-2.24 5-5 5H725c-2.76 0-5-2.24-5-5z" stroke="#000" stroke-width="2" fill="#fff"/><g><use xlink:href="#s" transform="matrix(1,0,0,1,720,860) translate(25.755000000000003 33.15)"/><use xlink:href="#t" transform="matrix(1,0,0,1,720,860) translate(36.755 33.15)"/><use xlink:href="#u" transform="matrix(1,0,0,1,720,860) translate(78.405 33.15)"/><use xlink:href="#Y" transform="matrix(1,0,0,1,720,860) translate(88.405 33.15)"/><use xlink:href="#w" transform="matrix(1,0,0,1,720,860) translate(118.405 33.15)"/><use xlink:href="#u" transform="matrix(1,0,0,1,720,860) translate(191.005 33.15)"/><use xlink:href="#Z" transform="matrix(1,0,0,1,720,860) translate(201.005 33.15)"/><use xlink:href="#y" transform="matrix(1,0,0,1,720,860) translate(231.005 33.15)"/><use xlink:href="#u" transform="matrix(1,0,0,1,720,860) translate(337.555 33.15)"/><use xlink:href="#z" transform="matrix(1,0,0,1,720,860) translate(347.555 33.15)"/><use xlink:href="#A" transform="matrix(1,0,0,1,720,860) translate(390.255 33.15)"/></g><path d="M720 925c0-2.76 2.24-5 5-5h411.67c2.76 0 5 2.24 5 5v50c0 2.76-2.24 5-5 5H725c-2.76 0-5-2.24-5-5z" stroke="#000" stroke-width="2" fill="#fff"/><g><use xlink:href="#s" transform="matrix(1,0,0,1,720,920) translate(25.755000000000003 33.15)"/><use xlink:href="#t" transform="matrix(1,0,0,1,720,920) translate(36.755 33.15)"/><use xlink:href="#u" transform="matrix(1,0,0,1,720,920) translate(78.405 33.15)"/><use xlink:href="#aa" transform="matrix(1,0,0,1,720,920) translate(88.405 33.15)"/><use xlink:href="#w" transform="matrix(1,0,0,1,720,920) translate(118.405 33.15)"/><use xlink:href="#u" transform="matrix(1,0,0,1,720,920) translate(191.005 33.15)"/><use xlink:href="#ab" transform="matrix(1,0,0,1,720,920) translate(201.005 33.15)"/><use xlink:href="#y" transform="matrix(1,0,0,1,720,920) translate(231.005 33.15)"/><use xlink:href="#u" transform="matrix(1,0,0,1,720,920) translate(337.555 33.15)"/><use xlink:href="#z" transform="matrix(1,0,0,1,720,920) translate(347.555 33.15)"/><use xlink:href="#A" transform="matrix(1,0,0,1,720,920) translate(390.255 33.15)"/></g><path d="M720 985c0-2.76 2.24-5 5-5h411.67c2.76 0 5 2.24 5 5v50c0 2.76-2.24 5-5 5H725c-2.76 0-5-2.24-5-5z" stroke="#000" stroke-width="2" fill="#fff"/><g><use xlink:href="#s" transform="matrix(1,0,0,1,720,980) translate(21.28000000000001 33.15)"/><use xlink:href="#t" transform="matrix(1,0,0,1,720,980) translate(32.28000000000001 33.15)"/><use xlink:href="#u" transform="matrix(1,0,0,1,720,980) translate(73.93 33.15)"/><use xlink:href="#Z" transform="matrix(1,0,0,1,720,980) translate(83.93 33.15)"/><use xlink:href="#w" transform="matrix(1,0,0,1,720,980) translate(113.93 33.15)"/><use xlink:href="#u" transform="matrix(1,0,0,1,720,980) translate(186.53 33.15)"/><use xlink:href="#I" transform="matrix(1,0,0,1,720,980) translate(196.53 33.15)"/><use xlink:href="#y" transform="matrix(1,0,0,1,720,980) translate(226.53 33.15)"/><use xlink:href="#u" transform="matrix(1,0,0,1,720,980) translate(333.08000000000004 33.15)"/><use xlink:href="#C" transform="matrix(1,0,0,1,720,980) translate(343.08000000000004 33.15)"/><use xlink:href="#A" transform="matrix(1,0,0,1,720,980) translate(394.73 33.15)"/></g><path d="M720 1045c0-2.76 2.24-5 5-5h411.67c2.76 0 5 2.24 5 5v50c0 2.76-2.24 5-5 5H725c-2.76 0-5-2.24-5-5z" stroke="#000" stroke-width="2" fill="#fff"/><g><use xlink:href="#s" transform="matrix(1,0,0,1,720,1040) translate(25.755000000000003 33.15)"/><use xlink:href="#t" transform="matrix(1,0,0,1,720,1040) translate(36.755 33.15)"/><use xlink:href="#u" transform="matrix(1,0,0,1,720,1040) translate(78.405 33.15)"/><use xlink:href="#ac" transform="matrix(1,0,0,1,720,1040) translate(88.405 33.15)"/><use xlink:href="#w" transform="matrix(1,0,0,1,720,1040) translate(118.405 33.15)"/><use xlink:href="#u" transform="matrix(1,0,0,1,720,1040) translate(191.005 33.15)"/><use xlink:href="#ad" transform="matrix(1,0,0,1,720,1040) translate(201.005 33.15)"/><use xlink:href="#y" transform="matrix(1,0,0,1,720,1040) translate(231.005 33.15)"/><use xlink:href="#u" transform="matrix(1,0,0,1,720,1040) translate(337.555 33.15)"/><use xlink:href="#z" transform="matrix(1,0,0,1,720,1040) translate(347.555 33.15)"/><use xlink:href="#A" transform="matrix(1,0,0,1,720,1040) translate(390.255 33.15)"/></g><path d="M720 1105c0-2.76 2.24-5 5-5h411.67c2.76 0 5 2.24 5 5v50c0 2.76-2.24 5-5 5H725c-2.76 0-5-2.24-5-5z" stroke="#000" stroke-width="2" fill="#fff"/><g><use xlink:href="#s" transform="matrix(1,0,0,1,720,1100) translate(25.755000000000003 33.15)"/><use xlink:href="#t" transform="matrix(1,0,0,1,720,1100) translate(36.755 33.15)"/><use xlink:href="#u" transform="matrix(1,0,0,1,720,1100) translate(78.405 33.15)"/><use xlink:href="#ae" transform="matrix(1,0,0,1,720,1100) translate(88.405 33.15)"/><use xlink:href="#w" transform="matrix(1,0,0,1,720,1100) translate(118.405 33.15)"/><use xlink:href="#u" transform="matrix(1,0,0,1,720,1100) translate(191.005 33.15)"/><use xlink:href="#af" transform="matrix(1,0,0,1,720,1100) translate(201.005 33.15)"/><use xlink:href="#y" transform="matrix(1,0,0,1,720,1100) translate(231.005 33.15)"/><use xlink:href="#u" transform="matrix(1,0,0,1,720,1100) translate(337.555 33.15)"/><use xlink:href="#z" transform="matrix(1,0,0,1,720,1100) translate(347.555 33.15)"/><use xlink:href="#A" transform="matrix(1,0,0,1,720,1100) translate(390.255 33.15)"/></g><path d="M720.17 1165c0-2.76 2.24-5 5-5h411.66c2.76 0 5 2.24 5 5v50c0 2.76-2.24 5-5 5H725.17c-2.76 0-5-2.24-5-5z" stroke="#000" stroke-width="2" fill="#fff"/><g><use xlink:href="#s" transform="matrix(1,0,0,1,720.1666666666667,1160) translate(25.755000000000003 33.15)"/><use xlink:href="#t" transform="matrix(1,0,0,1,720.1666666666667,1160) translate(36.755 33.15)"/><use xlink:href="#u" transform="matrix(1,0,0,1,720.1666666666667,1160) translate(78.405 33.15)"/><use xlink:href="#ag" transform="matrix(1,0,0,1,720.1666666666667,1160) translate(88.405 33.15)"/><use xlink:href="#w" transform="matrix(1,0,0,1,720.1666666666667,1160) translate(118.405 33.15)"/><use xlink:href="#u" transform="matrix(1,0,0,1,720.1666666666667,1160) translate(191.005 33.15)"/><use xlink:href="#ah" transform="matrix(1,0,0,1,720.1666666666667,1160) translate(201.005 33.15)"/><use xlink:href="#y" transform="matrix(1,0,0,1,720.1666666666667,1160) translate(231.005 33.15)"/><use xlink:href="#u" transform="matrix(1,0,0,1,720.1666666666667,1160) translate(337.555 33.15)"/><use xlink:href="#z" transform="matrix(1,0,0,1,720.1666666666667,1160) translate(347.555 33.15)"/><use xlink:href="#A" transform="matrix(1,0,0,1,720.1666666666667,1160) translate(390.255 33.15)"/></g><path d="M720.17 1225c0-2.76 2.24-5 5-5h411.66c2.76 0 5 2.24 5 5v50c0 2.76-2.24 5-5 5H725.17c-2.76 0-5-2.24-5-5z" stroke="#000" stroke-width="2" fill="#fff"/><g><use xlink:href="#s" transform="matrix(1,0,0,1,720.1666666666667,1220) translate(25.755000000000003 33.15)"/><use xlink:href="#t" transform="matrix(1,0,0,1,720.1666666666667,1220) translate(36.755 33.15)"/><use xlink:href="#u" transform="matrix(1,0,0,1,720.1666666666667,1220) translate(78.405 33.15)"/><use xlink:href="#ai" transform="matrix(1,0,0,1,720.1666666666667,1220) translate(88.405 33.15)"/><use xlink:href="#w" transform="matrix(1,0,0,1,720.1666666666667,1220) translate(118.405 33.15)"/><use xlink:href="#u" transform="matrix(1,0,0,1,720.1666666666667,1220) translate(191.005 33.15)"/><use xlink:href="#aj" transform="matrix(1,0,0,1,720.1666666666667,1220) translate(201.005 33.15)"/><use xlink:href="#y" transform="matrix(1,0,0,1,720.1666666666667,1220) translate(231.005 33.15)"/><use xlink:href="#u" transform="matrix(1,0,0,1,720.1666666666667,1220) translate(337.555 33.15)"/><use xlink:href="#z" transform="matrix(1,0,0,1,720.1666666666667,1220) translate(347.555 33.15)"/><use xlink:href="#A" transform="matrix(1,0,0,1,720.1666666666667,1220) translate(390.255 33.15)"/></g><path d="M360 550l5.24-.1 5.05-.33 4.9-.5 4.76-.72 4.67-.9 4.6-1.06 4.52-1.28 4.48-1.45 4.46-1.66 4.45-1.87 4.47-2.1 4.5-2.36 4.57-2.64 4.63-2.94 4.75-3.3 4.88-3.72 5.04-4.17 5.26-4.73 5.5-5.4 5.84-6.2 6.23-7.25 6.77-8.54 7.47-10.3 8.48-12.8 10.08-16.67 13.2-24.1 74.7-149.9 10.08-16.7 8.5-12.78 7.47-10.3 6.76-8.54 6.24-7.24 5.83-6.2 5.5-5.4 5.26-4.75 5.05-4.18 4.9-3.7 4.73-3.3 4.65-2.95 4.56-2.64 4.5-2.36 4.48-2.1 4.45-1.88 4.46-1.67 4.5-1.45 4.52-1.27 4.58-1.06 4.67-.9 4.78-.7 4.9-.5 5.05-.33 5.23-.1" stroke="#000" stroke-width="2" fill="none"/><path d="M360.07 551H360v-1.1zM719.17 170l-13.96 5.5-.56-9.25z"/><path d="M719.17 168.97v2.1l-14.87 5.86-.74-12zm-13.04 5.1l9.8-3.87-10.2-2.64z"/><path d="M360 610l13.75-.28 12.5-.8 11.47-1.2 10.66-1.56 10-1.9 9.45-2.22 9.07-2.53 8.77-2.84 8.6-3.2 8.54-3.6 8.64-4.06 8.92-4.66 9.5-5.5 10.68-6.78 13.48-9.4 64.6-48.32 10.7-6.8 9.5-5.48 8.9-4.66 8.63-4.07 8.55-3.6 8.6-3.2 8.77-2.84 9.06-2.54 9.47-2.22 10-1.9 10.64-1.57 11.48-1.2 12.5-.8 13.74-.27" stroke="#000" stroke-width="2" fill="none"/><path d="M360.03 611H360v-1.22zM719.17 470l-14.15 4.98-.23-9.27z"/><path d="M719.17 468.96v2.1l-15.12 5.32-.3-12.02zm-13.2 4.62l9.96-3.5-10.1-3.02z"/><path d="M360 670l6.2-.13 5.93-.37 5.72-.6 5.54-.82 5.38-1.03 5.26-1.23 5.17-1.44 5.1-1.66 5.05-1.88 5.02-2.1 5.02-2.37 5.03-2.64 5.1-2.94 5.16-3.3 5.27-3.66 5.43-4.12 5.62-4.66 5.87-5.28 6.18-6.07 6.6-7.03 7.18-8.33 8-10.08 9.2-12.72 11.48-17.3.38-.64m0 0c-2.37-1.43-3.13-4.5-1.7-6.86 1.42-2.37 4.5-3.13 6.86-1.7l12.4-20.63 50.15-86.63 11.47-17.3 9.22-12.73 7.98-10.08 7.18-8.33 6.6-7.04 6.2-6.08 5.87-5.28 5.62-4.66 5.42-4.12 5.27-3.67 5.17-3.3 5.1-2.93 5.04-2.64 5.02-2.36 5.02-2.1 5.04-1.9 5.1-1.65 5.17-1.44 5.26-1.23 5.38-1.03 5.53-.82 5.73-.6 5.94-.37 6.2-.13" stroke="#000" stroke-width="2" fill="none"/><path d="M360.06 671H360v-1.1zM719.17 350l-14 5.4-.5-9.27z"/><path d="M719.17 348.97v2.1l-14.93 5.75-.64-12zm-13.08 5l9.84-3.8-10.2-2.72z"/><path d="M360 790l23.2-.47 19.76-1.24 17.28-1.8 15.5-2.3 14.26-2.72 13.5-3.16 13.28-3.7 13.74-4.48 15.74-5.87 31.13-13.3 35.5-15.24 15.75-5.87 13.74-4.47 13.26-3.72 13.5-3.16 14.27-2.72 15.5-2.3 17.27-1.8 19.76-1.23 23.2-.47" stroke="#000" stroke-width="2" fill="none"/><path d="M360.03 791H360v-1.26zM719.17 710L705 714.92l-.2-9.26z"/><path d="M719.17 708.96v2.1l-15.14 5.26-.25-12.02zm-13.2 4.57l9.96-3.46-10.1-3.06z"/><path d="M360 850l6.2-.13 5.93-.37 5.72-.6 5.54-.82 5.38-1.03 5.26-1.23 5.17-1.44 5.1-1.66 5.05-1.88 5.02-2.1 5.02-2.37 5.03-2.64 5.1-2.94 5.16-3.3 5.27-3.66 5.43-4.12 5.62-4.66 5.87-5.28 6.18-6.07 6.6-7.03 7.18-8.33 8-10.08 3.02-4.18m0 0c-2.24-1.62-2.74-4.75-1.12-6.98 1.62-2.24 4.75-2.74 7-1.1l.3-.46 11.48-17.3 17.95-29.83 50.13-86.63 11.47-17.3 9.22-12.73 7.98-10.08 7.18-8.33 6.6-7.04 6.2-6.08 5.87-5.28 5.62-4.66 5.42-4.12 5.27-3.67 5.17-3.3 5.1-2.93 5.04-2.64 5.02-2.36 5.02-2.1 5.04-1.9 5.1-1.65 5.17-1.44 5.26-1.23 5.38-1.03 5.53-.82 5.73-.6 5.94-.37 6.2-.13" stroke="#000" stroke-width="2" fill="none"/><path d="M360.06 851H360v-1.1zM719.17 530l-14 5.4-.5-9.27z"/><path d="M719.17 528.97v2.1l-14.93 5.75-.64-12zm-13.08 5l9.84-3.8-10.2-2.72z"/><path d="M360 730l7.15.15 6.1.38 5.3.55 4.67.7 4.15.78 3.72.87 3.36.94 3.1 1 2.83 1.06 2.63 1.1 2.46 1.16 2.3 1.2 2.2 1.27 2.07 1.32 2 1.37 1.9 1.46 1.87 1.53 1.8 1.63 1.77 1.72 1.75 1.85 1.72 2 1.73 2.18 1.74 2.4 1.78 2.67 1.83 3.04 1.94 3.52 2.1 4.25 2.4 5.45.42 1.03m0 0c2.57-1 5.47.26 6.5 2.83 1 2.57-.26 5.48-2.83 6.5l7.7 21.65m0 0c2.6-.94 5.46.4 6.4 3 .93 2.6-.42 5.47-3.02 6.4l4.48 12.46 3.6 8.13 3.43 6.9 3.37 6.13 3.4 5.63 3.5 5.25 3.6 4.97 3.77 4.76 3.95 4.6 4.17 4.44 4.44 4.35 4.76 4.26 5.1 4.22 1.18.92 20.83 16.92 23.54 20.87 40.25 37.07 7.56 6.15 6.07 4.52 5.37 3.66 5 3.12 4.86 2.74 4.82 2.47 4.92 2.26 5.1 2.08 5.4 1.95 5.8 1.83 6.4 1.72 7.2 1.6 8.24 1.5 9.74 1.34 11.9 1.14 15.2.8 15.48.24" stroke="#000" stroke-width="2" fill="none"/><path d="M360.05 729l-.05 1.07V729zM720 1010l-14.34 4.4.15-9.26z"/><path d="M720 1008.94v2.1l-15.36 4.73.2-12.02zm-13.32 4.1l10.08-3.1-9.97-3.4z"/><defs><path d="M30-248c87 1 191-15 191 75 0 78-77 80-158 76V0H30v-248zm33 125c57 0 124 11 124-50 0-59-68-47-124-48v98" id="ak"/><path d="M141-36C126-15 110 5 73 4 37 3 15-17 15-53c-1-64 63-63 125-63 3-35-9-54-41-54-24 1-41 7-42 31l-33-3c5-37 33-52 76-52 45 0 72 20 72 64v82c-1 20 7 32 28 27v20c-31 9-61-2-59-35zM48-53c0 20 12 33 32 33 41-3 63-29 60-74-43 2-92-5-92 41" id="al"/><path d="M114-163C36-179 61-72 57 0H25l-1-190h30c1 12-1 29 2 39 6-27 23-49 58-41v29" id="am"/><path d="M59-47c-2 24 18 29 38 22v24C64 9 27 4 27-40v-127H5v-23h24l9-43h21v43h35v23H59v120" id="an"/><path d="M24-231v-30h32v30H24zM24 0v-190h32V0H24" id="ao"/><path d="M24 0v-261h32V0H24" id="ap"/><g id="a"><use transform="matrix(0.05,0,0,0.05,0,0)" xlink:href="#ak"/><use transform="matrix(0.05,0,0,0.05,12,0)" xlink:href="#al"/><use transform="matrix(0.05,0,0,0.05,22,0)" xlink:href="#am"/><use transform="matrix(0.05,0,0,0.05,27.950000000000003,0)" xlink:href="#an"/><use transform="matrix(0.05,0,0,0.05,32.95,0)" xlink:href="#ao"/><use transform="matrix(0.05,0,0,0.05,36.900000000000006,0)" xlink:href="#al"/><use transform="matrix(0.05,0,0,0.05,46.900000000000006,0)" xlink:href="#ap"/></g><path d="M33 0v-248h34V0H33" id="aq"/><path d="M117-194c89-4 53 116 60 194h-32v-121c0-31-8-49-39-48C34-167 62-67 57 0H25l-1-190h30c1 10-1 24 2 32 11-22 29-35 61-36" id="ar"/><path d="M85-194c31 0 48 13 60 33l-1-100h32l1 261h-30c-2-10 0-23-3-31C134-8 116 4 85 4 32 4 16-35 15-94c0-66 23-100 70-100zm9 24c-40 0-46 34-46 75 0 40 6 74 45 74 42 0 51-32 51-76 0-42-9-74-50-73" id="as"/><path d="M100-194c63 0 86 42 84 106H49c0 40 14 67 53 68 26 1 43-12 49-29l28 8c-11 28-37 45-77 45C44 4 14-33 15-96c1-61 26-98 85-98zm52 81c6-60-76-77-97-28-3 7-6 17-6 28h103" id="at"/><path d="M141 0L90-78 38 0H4l68-98-65-92h35l48 74 47-74h35l-64 92 68 98h-35" id="au"/><g id="b"><use transform="matrix(0.05,0,0,0.05,0,0)" xlink:href="#aq"/><use transform="matrix(0.05,0,0,0.05,5,0)" xlink:href="#ar"/><use transform="matrix(0.05,0,0,0.05,15,0)" xlink:href="#as"/><use transform="matrix(0.05,0,0,0.05,25,0)" xlink:href="#at"/><use transform="matrix(0.05,0,0,0.05,35,0)" xlink:href="#au"/></g><path d="M194 0L95-120 63-95V0H30v-248h33v124l119-124h40L117-140 236 0h-42" id="av"/><path d="M179-190L93 31C79 59 56 82 12 73V49c39 6 53-20 64-50L1-190h34L92-34l54-156h33" id="aw"/><path d="M135-143c-3-34-86-38-87 0 15 53 115 12 119 90S17 21 10-45l28-5c4 36 97 45 98 0-10-56-113-15-118-90-4-57 82-63 122-42 12 7 21 19 24 35" id="ax"/><g id="c"><use transform="matrix(0.05,0,0,0.05,0,0)" xlink:href="#av"/><use transform="matrix(0.05,0,0,0.05,12,0)" xlink:href="#at"/><use transform="matrix(0.05,0,0,0.05,22,0)" xlink:href="#aw"/><use transform="matrix(0.05,0,0,0.05,31,0)" xlink:href="#ax"/></g><path d="M100-194c62-1 85 37 85 99 1 63-27 99-86 99S16-35 15-95c0-66 28-99 85-99zM99-20c44 1 53-31 53-75 0-43-8-75-51-75s-53 32-53 75 10 74 51 75" id="ay"/><g id="d"><use transform="matrix(0.05,0,0,0.05,0,0)" xlink:href="#ay"/><use transform="matrix(0.05,0,0,0.05,10,0)" xlink:href="#ar"/></g><path d="M106-169C34-169 62-67 57 0H25v-261h32l-1 103c12-21 28-36 61-36 89 0 53 116 60 194h-32v-121c2-32-8-49-39-48" id="az"/><g id="e"><use transform="matrix(0.05,0,0,0.05,0,0)" xlink:href="#an"/><use transform="matrix(0.05,0,0,0.05,5,0)" xlink:href="#az"/><use transform="matrix(0.05,0,0,0.05,15,0)" xlink:href="#at"/></g><path d="M109-170H84l-4-78h32zm-65 0H19l-4-78h33" id="aA"/><path d="M177-190C167-65 218 103 67 71c-23-6-38-20-44-43l32-5c15 47 100 32 89-28v-30C133-14 115 1 83 1 29 1 15-40 15-95c0-56 16-97 71-98 29-1 48 16 59 35 1-10 0-23 2-32h30zM94-22c36 0 50-32 50-73 0-42-14-75-50-75-39 0-46 34-46 75s6 73 46 73" id="aB"/><g id="f"><use transform="matrix(0.05,0,0,0.05,0,0)" xlink:href="#aA"/><use transform="matrix(0.05,0,0,0.05,6.3500000000000005,0)" xlink:href="#aq"/><use transform="matrix(0.05,0,0,0.05,11.350000000000001,0)" xlink:href="#ar"/><use transform="matrix(0.05,0,0,0.05,21.35,0)" xlink:href="#an"/><use transform="matrix(0.05,0,0,0.05,26.35,0)" xlink:href="#at"/><use transform="matrix(0.05,0,0,0.05,36.35,0)" xlink:href="#aB"/><use transform="matrix(0.05,0,0,0.05,46.35,0)" xlink:href="#at"/><use transform="matrix(0.05,0,0,0.05,56.35,0)" xlink:href="#am"/><use transform="matrix(0.05,0,0,0.05,62.300000000000004,0)" xlink:href="#aA"/></g><path d="M101-234c-31-9-42 10-38 44h38v23H63V0H32v-167H5v-23h27c-7-52 17-82 69-68v24" id="aC"/><g id="g"><use transform="matrix(0.05,0,0,0.05,0,0)" xlink:href="#aC"/><use transform="matrix(0.05,0,0,0.05,5,0)" xlink:href="#ao"/><use transform="matrix(0.05,0,0,0.05,8.95,0)" xlink:href="#at"/><use transform="matrix(0.05,0,0,0.05,18.95,0)" xlink:href="#ap"/><use transform="matrix(0.05,0,0,0.05,22.9,0)" xlink:href="#as"/></g><path d="M27 0v-27h64v-190l-56 39v-29l58-41h29v221h61V0H27" id="aD"/><use transform="matrix(0.05,0,0,0.05,0,0)" xlink:href="#aD" id="h"/><path d="M64 0c3-98 48-159 88-221H18v-27h164v26C143-157 98-101 97 0H64" id="aE"/><use transform="matrix(0.05,0,0,0.05,0,0)" xlink:href="#aE" id="i"/><path d="M126-127c33 6 58 20 58 59 0 88-139 92-164 29-3-8-5-16-6-25l32-3c6 27 21 44 54 44 32 0 52-15 52-46 0-38-36-46-79-43v-28c39 1 72-4 72-42 0-27-17-43-46-43-28 0-47 15-49 41l-32-3c6-42 35-63 81-64 48-1 79 21 79 65 0 36-21 52-52 59" id="aF"/><path d="M101-251c68 0 85 55 85 127S166 4 100 4C33 4 14-52 14-124c0-73 17-127 87-127zm-1 229c47 0 54-49 54-102s-4-102-53-102c-51 0-55 48-55 102 0 53 5 102 54 102" id="aG"/><g id="j"><use transform="matrix(0.05,0,0,0.05,0,0)" xlink:href="#aF"/><use transform="matrix(0.05,0,0,0.05,10,0)" xlink:href="#aG"/></g><g id="k"><use transform="matrix(0.05,0,0,0.05,0,0)" xlink:href="#aF"/><use transform="matrix(0.05,0,0,0.05,10,0)" xlink:href="#aE"/></g><path d="M134-131c28 9 52 24 51 62-1 50-34 73-85 73S17-19 16-69c0-36 21-54 49-61-75-25-45-126 34-121 46 3 78 18 79 63 0 33-17 51-44 57zm-34-11c31 1 46-15 46-44 0-28-17-43-47-42-29 0-46 13-45 42 1 28 16 44 46 44zm1 122c35 0 51-18 51-52 0-30-18-46-53-46-33 0-51 17-51 47 0 34 19 51 53 51" id="aH"/><path d="M99-251c64 0 84 50 84 122C183-37 130 33 47-8c-14-7-20-23-25-40l30-5c6 39 69 39 84 7 9-19 16-44 16-74-10 22-31 35-62 35-49 0-73-33-73-83 0-54 28-83 82-83zm-1 141c31-1 51-18 51-49 0-36-14-67-51-67-34 0-49 23-49 58 0 34 15 58 49 58" id="aI"/><g id="l"><use transform="matrix(0.05,0,0,0.05,0,0)" xlink:href="#aH"/><use transform="matrix(0.05,0,0,0.05,10,0)" xlink:href="#aI"/></g><path d="M30-248c118-7 216 8 213 122C240-48 200 0 122 0H30v-248zM63-27c89 8 146-16 146-99s-60-101-146-95v194" id="aJ"/><path d="M96-169c-40 0-48 33-48 73s9 75 48 75c24 0 41-14 43-38l32 2c-6 37-31 61-74 61-59 0-76-41-82-99-10-93 101-131 147-64 4 7 5 14 7 22l-32 3c-4-21-16-35-41-35" id="aK"/><path d="M84 4C-5 8 30-112 23-190h32v120c0 31 7 50 39 49 72-2 45-101 50-169h31l1 190h-30c-1-10 1-25-2-33-11 22-28 36-60 37" id="aL"/><path d="M210-169c-67 3-38 105-44 169h-31v-121c0-29-5-50-35-48C34-165 62-65 56 0H25l-1-190h30c1 10-1 24 2 32 10-44 99-50 107 0 11-21 27-35 58-36 85-2 47 119 55 194h-31v-121c0-29-5-49-35-48" id="aM"/><g id="m"><use transform="matrix(0.05,0,0,0.05,0,0)" xlink:href="#aJ"/><use transform="matrix(0.05,0,0,0.05,12.950000000000001,0)" xlink:href="#ay"/><use transform="matrix(0.05,0,0,0.05,22.950000000000003,0)" xlink:href="#aK"/><use transform="matrix(0.05,0,0,0.05,31.950000000000003,0)" xlink:href="#aL"/><use transform="matrix(0.05,0,0,0.05,41.95,0)" xlink:href="#aM"/><use transform="matrix(0.05,0,0,0.05,56.900000000000006,0)" xlink:href="#at"/><use transform="matrix(0.05,0,0,0.05,66.9,0)" xlink:href="#ar"/><use transform="matrix(0.05,0,0,0.05,76.9,0)" xlink:href="#an"/><use transform="matrix(0.05,0,0,0.05,81.9,0)" xlink:href="#ax"/></g><g id="n"><use transform="matrix(0.05,0,0,0.05,0,0)" xlink:href="#ao"/><use transform="matrix(0.05,0,0,0.05,3.95,0)" xlink:href="#ar"/></g><path d="M212-179c-10-28-35-45-73-45-59 0-87 40-87 99 0 60 29 101 89 101 43 0 62-24 78-52l27 14C228-24 195 4 139 4 59 4 22-46 18-125c-6-104 99-153 187-111 19 9 31 26 39 46" id="aN"/><g id="o"><use transform="matrix(0.05,0,0,0.05,0,0)" xlink:href="#aN"/><use transform="matrix(0.05,0,0,0.05,12.950000000000001,0)" xlink:href="#ay"/><use transform="matrix(0.05,0,0,0.05,22.950000000000003,0)" xlink:href="#ap"/><use transform="matrix(0.05,0,0,0.05,26.900000000000002,0)" xlink:href="#ap"/><use transform="matrix(0.05,0,0,0.05,30.85,0)" xlink:href="#at"/><use transform="matrix(0.05,0,0,0.05,40.85,0)" xlink:href="#aK"/><use transform="matrix(0.05,0,0,0.05,49.85,0)" xlink:href="#an"/><use transform="matrix(0.05,0,0,0.05,54.85,0)" xlink:href="#ao"/><use transform="matrix(0.05,0,0,0.05,58.800000000000004,0)" xlink:href="#ay"/><use transform="matrix(0.05,0,0,0.05,68.80000000000001,0)" xlink:href="#ar"/></g><path d="M87 75C49 33 22-17 22-94c0-76 28-126 65-167h31c-38 41-64 92-64 168S80 34 118 75H87" id="aO"/><g id="p"><use transform="matrix(0.05,0,0,0.05,0,0)" xlink:href="#aO"/><use transform="matrix(0.05,0,0,0.05,5.95,0)" xlink:href="#ax"/><use transform="matrix(0.05,0,0,0.05,14.949999999999998,0)" xlink:href="#ay"/><use transform="matrix(0.05,0,0,0.05,24.95,0)" xlink:href="#am"/><use transform="matrix(0.05,0,0,0.05,30.899999999999995,0)" xlink:href="#an"/><use transform="matrix(0.05,0,0,0.05,35.9,0)" xlink:href="#at"/><use transform="matrix(0.05,0,0,0.05,45.9,0)" xlink:href="#as"/></g><path d="M115-194c53 0 69 39 70 98 0 66-23 100-70 100C84 3 66-7 56-30L54 0H23l1-261h32v101c10-23 28-34 59-34zm-8 174c40 0 45-34 45-75 0-40-5-75-45-74-42 0-51 32-51 76 0 43 10 73 51 73" id="aP"/><g id="q"><use transform="matrix(0.05,0,0,0.05,0,0)" xlink:href="#aP"/><use transform="matrix(0.05,0,0,0.05,10,0)" xlink:href="#aw"/></g><path d="M-5 72V49h209v23H-5" id="aQ"/><path d="M33-261c38 41 65 92 65 168S71 34 33 75H2C39 34 66-17 66-93S39-220 2-261h31" id="aR"/><g id="r"><use transform="matrix(0.05,0,0,0.05,0,0)" xlink:href="#aQ"/><use transform="matrix(0.05,0,0,0.05,10,0)" xlink:href="#ao"/><use transform="matrix(0.05,0,0,0.05,13.949999999999998,0)" xlink:href="#as"/><use transform="matrix(0.05,0,0,0.05,23.95,0)" xlink:href="#aR"/></g><path d="M39-94c74 12-11 154 75 146v23c-44 4-70-10-70-52C44-23 55-84 6-82v-22c81 4-7-162 84-157h24v23c-82-15-2 131-75 144" id="aS"/><use transform="matrix(0.05,0,0,0.05,0,0)" xlink:href="#aS" id="s"/><g id="t"><use transform="matrix(0.05,0,0,0.05,0,0)" xlink:href="#aA"/><use transform="matrix(0.05,0,0,0.05,6.3500000000000005,0)" xlink:href="#aQ"/><use transform="matrix(0.05,0,0,0.05,16.35,0)" xlink:href="#ao"/><use transform="matrix(0.05,0,0,0.05,20.3,0)" xlink:href="#as"/><use transform="matrix(0.05,0,0,0.05,30.3,0)" xlink:href="#aA"/></g><path d="M33-154v-36h34v36H33zM33 0v-36h34V0H33" id="aT"/><use transform="matrix(0.05,0,0,0.05,0,0)" xlink:href="#aT" id="u"/><path d="M68-38c1 34 0 65-14 84H32c9-13 17-26 17-46H33v-38h35" id="aU"/><g id="v"><use transform="matrix(0.05,0,0,0.05,0,0)" xlink:href="#aD"/><use transform="matrix(0.05,0,0,0.05,10,0)" xlink:href="#aU"/></g><g id="w"><use transform="matrix(0.05,0,0,0.05,0,0)" xlink:href="#aA"/><use transform="matrix(0.05,0,0,0.05,6.3500000000000005,0)" xlink:href="#ao"/><use transform="matrix(0.05,0,0,0.05,10.3,0)" xlink:href="#ar"/><use transform="matrix(0.05,0,0,0.05,20.3,0)" xlink:href="#an"/><use transform="matrix(0.05,0,0,0.05,25.3,0)" xlink:href="#at"/><use transform="matrix(0.05,0,0,0.05,35.3,0)" xlink:href="#aB"/><use transform="matrix(0.05,0,0,0.05,45.3,0)" xlink:href="#at"/><use transform="matrix(0.05,0,0,0.05,55.29999999999999,0)" xlink:href="#am"/><use transform="matrix(0.05,0,0,0.05,61.25,0)" xlink:href="#aA"/></g><path d="M110-160c48 1 74 30 74 79 0 53-28 85-80 85-65 0-83-55-86-122-5-90 50-162 133-122 14 7 22 21 27 39l-31 6c-5-40-67-38-82-6-9 19-15 44-15 74 11-20 30-34 60-33zm-7 138c34 0 49-23 49-58s-16-56-50-56c-29 0-50 16-49 49 1 36 15 65 50 65" id="aV"/><g id="x"><use transform="matrix(0.05,0,0,0.05,0,0)" xlink:href="#aE"/><use transform="matrix(0.05,0,0,0.05,10,0)" xlink:href="#aV"/><use transform="matrix(0.05,0,0,0.05,20,0)" xlink:href="#aU"/></g><path d="M115-194c55 1 70 41 70 98S169 2 115 4C84 4 66-9 55-30l1 105H24l-1-265h31l2 30c10-21 28-34 59-34zm-8 174c40 0 45-34 45-75s-6-73-45-74c-42 0-51 32-51 76 0 43 10 73 51 73" id="aW"/><g id="y"><use transform="matrix(0.05,0,0,0.05,0,0)" xlink:href="#aA"/><use transform="matrix(0.05,0,0,0.05,6.3500000000000005,0)" xlink:href="#ao"/><use transform="matrix(0.05,0,0,0.05,10.3,0)" xlink:href="#aM"/><use transform="matrix(0.05,0,0,0.05,25.25,0)" xlink:href="#aW"/><use transform="matrix(0.05,0,0,0.05,35.25,0)" xlink:href="#ay"/><use transform="matrix(0.05,0,0,0.05,45.25,0)" xlink:href="#am"/><use transform="matrix(0.05,0,0,0.05,51.2,0)" xlink:href="#an"/><use transform="matrix(0.05,0,0,0.05,56.2,0)" xlink:href="#al"/><use transform="matrix(0.05,0,0,0.05,66.2,0)" xlink:href="#ar"/><use transform="matrix(0.05,0,0,0.05,76.2,0)" xlink:href="#aK"/><use transform="matrix(0.05,0,0,0.05,85.2,0)" xlink:href="#at"/><use transform="matrix(0.05,0,0,0.05,95.2,0)" xlink:href="#aA"/></g><g id="z"><use transform="matrix(0.05,0,0,0.05,0,0)" xlink:href="#aA"/><use transform="matrix(0.05,0,0,0.05,6.3500000000000005,0)" xlink:href="#ar"/><use transform="matrix(0.05,0,0,0.05,16.35,0)" xlink:href="#ay"/><use transform="matrix(0.05,0,0,0.05,26.35,0)" xlink:href="#an"/><use transform="matrix(0.05,0,0,0.05,31.35,0)" xlink:href="#aA"/></g><path d="M76-40C78 24 84 88 6 75V52C86 64 9-79 80-94c-40-6-34-59-34-106 1-29-11-41-40-38v-23c44-4 70 10 70 52 0 47-12 108 38 105v22c-26 1-39 14-38 42" id="aX"/><use transform="matrix(0.05,0,0,0.05,0,0)" xlink:href="#aX" id="A"/><path d="M101-251c82-7 93 87 43 132L82-64C71-53 59-42 53-27h129V0H18c2-99 128-94 128-182 0-28-16-43-45-43s-46 15-49 41l-32-3c6-41 34-60 81-64" id="aY"/><g id="B"><use transform="matrix(0.05,0,0,0.05,0,0)" xlink:href="#aY"/><use transform="matrix(0.05,0,0,0.05,10,0)" xlink:href="#aU"/></g><path d="M108 0H70L1-190h34L89-25l56-165h34" id="aZ"/><g id="C"><use transform="matrix(0.05,0,0,0.05,0,0)" xlink:href="#aA"/><use transform="matrix(0.05,0,0,0.05,6.3500000000000005,0)" xlink:href="#aZ"/><use transform="matrix(0.05,0,0,0.05,15.350000000000001,0)" xlink:href="#at"/><use transform="matrix(0.05,0,0,0.05,25.35,0)" xlink:href="#am"/><use transform="matrix(0.05,0,0,0.05,31.3,0)" xlink:href="#aw"/><use transform="matrix(0.05,0,0,0.05,40.3,0)" xlink:href="#aA"/></g><g id="D"><use transform="matrix(0.05,0,0,0.05,0,0)" xlink:href="#aF"/><use transform="matrix(0.05,0,0,0.05,10,0)" xlink:href="#aU"/></g><g id="E"><use transform="matrix(0.05,0,0,0.05,0,0)" xlink:href="#aY"/><use transform="matrix(0.05,0,0,0.05,10,0)" xlink:href="#aE"/><use transform="matrix(0.05,0,0,0.05,20,0)" xlink:href="#aU"/></g><path d="M155-56V0h-30v-56H8v-25l114-167h33v167h35v25h-35zm-30-156c-27 46-58 90-88 131h88v-131" id="ba"/><g id="F"><use transform="matrix(0.05,0,0,0.05,0,0)" xlink:href="#ba"/><use transform="matrix(0.05,0,0,0.05,10,0)" xlink:href="#aU"/></g><g id="G"><use transform="matrix(0.05,0,0,0.05,0,0)" xlink:href="#aV"/><use transform="matrix(0.05,0,0,0.05,10,0)" xlink:href="#ba"/><use transform="matrix(0.05,0,0,0.05,20,0)" xlink:href="#aU"/></g><path d="M54-142c48-35 137-8 131 61C196 18 31 33 14-55l32-4c7 23 22 37 52 37 35-1 51-22 54-58 4-55-73-65-99-34H22l8-134h141v27H59" id="bb"/><g id="H"><use transform="matrix(0.05,0,0,0.05,0,0)" xlink:href="#bb"/><use transform="matrix(0.05,0,0,0.05,10,0)" xlink:href="#aU"/></g><g id="I"><use transform="matrix(0.05,0,0,0.05,0,0)" xlink:href="#aF"/><use transform="matrix(0.05,0,0,0.05,10,0)" xlink:href="#aG"/><use transform="matrix(0.05,0,0,0.05,20,0)" xlink:href="#aU"/></g><g id="J"><use transform="matrix(0.05,0,0,0.05,0,0)" xlink:href="#aV"/><use transform="matrix(0.05,0,0,0.05,10,0)" xlink:href="#aU"/></g><g id="K"><use transform="matrix(0.05,0,0,0.05,0,0)" xlink:href="#aE"/><use transform="matrix(0.05,0,0,0.05,10,0)" xlink:href="#aY"/><use transform="matrix(0.05,0,0,0.05,20,0)" xlink:href="#aU"/></g><g id="L"><use transform="matrix(0.05,0,0,0.05,0,0)" xlink:href="#aE"/><use transform="matrix(0.05,0,0,0.05,10,0)" xlink:href="#aU"/></g><g id="M"><use transform="matrix(0.05,0,0,0.05,0,0)" xlink:href="#aH"/><use transform="matrix(0.05,0,0,0.05,10,0)" xlink:href="#aU"/></g><g id="N"><use transform="matrix(0.05,0,0,0.05,0,0)" xlink:href="#aH"/><use transform="matrix(0.05,0,0,0.05,10,0)" xlink:href="#aI"/><use transform="matrix(0.05,0,0,0.05,20,0)" xlink:href="#aU"/></g><g id="O"><use transform="matrix(0.05,0,0,0.05,0,0)" xlink:href="#aI"/><use transform="matrix(0.05,0,0,0.05,10,0)" xlink:href="#aU"/></g><g id="P"><use transform="matrix(0.05,0,0,0.05,0,0)" xlink:href="#bb"/><use transform="matrix(0.05,0,0,0.05,10,0)" xlink:href="#aG"/><use transform="matrix(0.05,0,0,0.05,20,0)" xlink:href="#aU"/></g><g id="Q"><use transform="matrix(0.05,0,0,0.05,0,0)" xlink:href="#aD"/><use transform="matrix(0.05,0,0,0.05,10,0)" xlink:href="#aG"/><use transform="matrix(0.05,0,0,0.05,20,0)" xlink:href="#aU"/></g><g id="R"><use transform="matrix(0.05,0,0,0.05,0,0)" xlink:href="#ba"/><use transform="matrix(0.05,0,0,0.05,10,0)" xlink:href="#ba"/><use transform="matrix(0.05,0,0,0.05,20,0)" xlink:href="#aU"/></g><g id="S"><use transform="matrix(0.05,0,0,0.05,0,0)" xlink:href="#aD"/><use transform="matrix(0.05,0,0,0.05,8.65,0)" xlink:href="#aD"/><use transform="matrix(0.05,0,0,0.05,18.65,0)" xlink:href="#aU"/></g><g id="T"><use transform="matrix(0.05,0,0,0.05,0,0)" xlink:href="#aF"/><use transform="matrix(0.05,0,0,0.05,10,0)" xlink:href="#aE"/><use transform="matrix(0.05,0,0,0.05,20,0)" xlink:href="#aU"/></g><g id="U"><use transform="matrix(0.05,0,0,0.05,0,0)" xlink:href="#aD"/><use transform="matrix(0.05,0,0,0.05,10,0)" xlink:href="#aY"/><use transform="matrix(0.05,0,0,0.05,20,0)" xlink:href="#aU"/></g><g id="V"><use transform="matrix(0.05,0,0,0.05,0,0)" xlink:href="#aF"/><use transform="matrix(0.05,0,0,0.05,10,0)" xlink:href="#aV"/><use transform="matrix(0.05,0,0,0.05,20,0)" xlink:href="#aU"/></g><g id="W"><use transform="matrix(0.05,0,0,0.05,0,0)" xlink:href="#aD"/><use transform="matrix(0.05,0,0,0.05,10,0)" xlink:href="#aF"/><use transform="matrix(0.05,0,0,0.05,20,0)" xlink:href="#aU"/></g><g id="X"><use transform="matrix(0.05,0,0,0.05,0,0)" xlink:href="#aD"/><use transform="matrix(0.05,0,0,0.05,10,0)" xlink:href="#aG"/><use transform="matrix(0.05,0,0,0.05,20,0)" xlink:href="#aG"/><use transform="matrix(0.05,0,0,0.05,30,0)" xlink:href="#aU"/></g><g id="Y"><use transform="matrix(0.05,0,0,0.05,0,0)" xlink:href="#aD"/><use transform="matrix(0.05,0,0,0.05,10,0)" xlink:href="#ba"/><use transform="matrix(0.05,0,0,0.05,20,0)" xlink:href="#aU"/></g><g id="Z"><use transform="matrix(0.05,0,0,0.05,0,0)" xlink:href="#aD"/><use transform="matrix(0.05,0,0,0.05,10,0)" xlink:href="#aV"/><use transform="matrix(0.05,0,0,0.05,20,0)" xlink:href="#aU"/></g><g id="aa"><use transform="matrix(0.05,0,0,0.05,0,0)" xlink:href="#aD"/><use transform="matrix(0.05,0,0,0.05,10,0)" xlink:href="#bb"/><use transform="matrix(0.05,0,0,0.05,20,0)" xlink:href="#aU"/></g><g id="ab"><use transform="matrix(0.05,0,0,0.05,0,0)" xlink:href="#aH"/><use transform="matrix(0.05,0,0,0.05,10,0)" xlink:href="#aY"/><use transform="matrix(0.05,0,0,0.05,20,0)" xlink:href="#aU"/></g><g id="ac"><use transform="matrix(0.05,0,0,0.05,0,0)" xlink:href="#aD"/><use transform="matrix(0.05,0,0,0.05,10,0)" xlink:href="#aE"/><use transform="matrix(0.05,0,0,0.05,20,0)" xlink:href="#aU"/></g><g id="ad"><use transform="matrix(0.05,0,0,0.05,0,0)" xlink:href="#aF"/><use transform="matrix(0.05,0,0,0.05,10,0)" xlink:href="#aY"/><use transform="matrix(0.05,0,0,0.05,20,0)" xlink:href="#aU"/></g><g id="ae"><use transform="matrix(0.05,0,0,0.05,0,0)" xlink:href="#aD"/><use transform="matrix(0.05,0,0,0.05,10,0)" xlink:href="#aH"/><use transform="matrix(0.05,0,0,0.05,20,0)" xlink:href="#aU"/></g><g id="af"><use transform="matrix(0.05,0,0,0.05,0,0)" xlink:href="#aH"/><use transform="matrix(0.05,0,0,0.05,10,0)" xlink:href="#aG"/><use transform="matrix(0.05,0,0,0.05,20,0)" xlink:href="#aU"/></g><g id="ag"><use transform="matrix(0.05,0,0,0.05,0,0)" xlink:href="#aD"/><use transform="matrix(0.05,0,0,0.05,10,0)" xlink:href="#aI"/><use transform="matrix(0.05,0,0,0.05,20,0)" xlink:href="#aU"/></g><g id="ah"><use transform="matrix(0.05,0,0,0.05,0,0)" xlink:href="#ba"/><use transform="matrix(0.05,0,0,0.05,10,0)" xlink:href="#aV"/><use transform="matrix(0.05,0,0,0.05,20,0)" xlink:href="#aU"/></g><g id="ai"><use transform="matrix(0.05,0,0,0.05,0,0)" xlink:href="#aY"/><use transform="matrix(0.05,0,0,0.05,10,0)" xlink:href="#aG"/><use transform="matrix(0.05,0,0,0.05,20,0)" xlink:href="#aU"/></g><g id="aj"><use transform="matrix(0.05,0,0,0.05,0,0)" xlink:href="#ba"/><use transform="matrix(0.05,0,0,0.05,10,0)" xlink:href="#aY"/><use transform="matrix(0.05,0,0,0.05,20,0)" xlink:href="#aU"/></g></defs></g></svg>