<svg xmlns="http://www.w3.org/2000/svg" xmlns:xlink="http://www.w3.org/1999/xlink" xmlns:lucid="lucid" width="1360" height="1760"><g transform="translate(0 0)" lucid:page-tab-id="bzOi9cHPqkn_"><path d="M400 80h200v136H400z" fill="#fff" fill-opacity="0"/><path d="M400 80h200v136H400zM400 120h200" stroke="#000" stroke-width="3" fill="none"/><use xlink:href="#a" transform="matrix(1,0,0,1,410,80) translate(62.05 23.6)"/><use xlink:href="#b" transform="matrix(1,0,0,1,405,122.5) translate(0 17.1)"/><use xlink:href="#c" transform="matrix(1,0,0,1,405,154.5) translate(0 17.1)"/><use xlink:href="#d" transform="matrix(1,0,0,1,405,186.5) translate(0 17.1)"/><path d="M720 80h200v200H720z" fill="#fff" fill-opacity="0"/><path d="M720 80h200v200H720zM720 120h200" stroke="#000" stroke-width="3" fill="none"/><use xlink:href="#e" transform="matrix(1,0,0,1,730,80) translate(44.574999999999996 23.6)"/><use xlink:href="#c" transform="matrix(1,0,0,1,725,122.5) translate(0 17.1)"/><use xlink:href="#f" transform="matrix(1,0,0,1,725,154.5) translate(0 17.1)"/><use xlink:href="#g" transform="matrix(1,0,0,1,725,186.5) translate(0 17.1)"/><use xlink:href="#h" transform="matrix(1,0,0,1,725,218.5) translate(0 17.1)"/><use xlink:href="#i" transform="matrix(1,0,0,1,725,250.5) translate(0 17.1)"/><path d="M718.5 168h-117" stroke="#000" stroke-width="3" fill="none"/><path fill="#fff"/><path d="M700 178h-3v-20h3zM625.52 168l-22.68 11.34-1.34-2.68 17.32-8.66-17.32-8.66 1.34-2.68z"/><path d="M400 400h200v296H400z" fill="#fff" fill-opacity="0"/><path d="M400 400h200v296H400zM400 440h200" stroke="#000" stroke-width="3" fill="none"/><use xlink:href="#a" transform="matrix(1,0,0,1,410,400) translate(62.05 23.6)"/><use xlink:href="#b" transform="matrix(1,0,0,1,405,442.5) translate(0 17.1)"/><use xlink:href="#c" transform="matrix(1,0,0,1,405,474.5) translate(0 17.1)"/><use xlink:href="#i" transform="matrix(1,0,0,1,405,666.5) translate(0 17.1)"/><path d="M720 400h200v200H720z" fill="#fff" fill-opacity="0"/><path d="M720 400h200v200H720zM720 440h200" stroke="#000" stroke-width="3" fill="none"/><use xlink:href="#e" transform="matrix(1,0,0,1,730,399.99999999999994) translate(44.574999999999996 23.6)"/><use xlink:href="#c" transform="matrix(1,0,0,1,725,442.49999999999994) translate(0 17.1)"/><use xlink:href="#j" transform="matrix(1,0,0,1,725,474.49999999999994) translate(0 17.1)"/><use xlink:href="#k" transform="matrix(1,0,0,1,725,506.49999999999994) translate(0 17.1)"/><use xlink:href="#l" transform="matrix(1,0,0,1,725,538.5) translate(0 17.1)"/><use xlink:href="#i" transform="matrix(1,0,0,1,725,570.5) translate(0 17.1)"/><path d="M718.5 488h-117" stroke="#000" stroke-width="3" fill="none"/><path fill="#fff"/><path d="M700 498h-3v-20h3zM625.53 488l-22.7 11.34-1.33-2.68 17.32-8.66-17.32-8.66 1.34-2.68z"/><path d="M420 520h160v136H420z" fill="#fff" fill-opacity="0"/><path d="M420 520h160v136H420zM420 560h160" stroke="#000" stroke-width="3" fill="none"/><use xlink:href="#m" transform="matrix(1,0,0,1,430,520) translate(0 23.6)"/><use xlink:href="#j" transform="matrix(1,0,0,1,425,562.5) translate(0 17.1)"/><use xlink:href="#k" transform="matrix(1,0,0,1,425,594.5) translate(0 17.1)"/><use xlink:href="#l" transform="matrix(1,0,0,1,425,626.5) translate(0 17.1)"/><defs><path d="M110-194c64 0 96 36 96 99 0 64-35 99-97 99-61 0-95-36-95-99 0-62 34-99 96-99zm-1 164c35 0 45-28 45-65 0-40-10-65-43-65-34 0-45 26-45 65 0 36 10 65 43 65" id="n"/><path d="M135-150c-39-12-60 13-60 57V0H25l-1-190h47c2 13-1 29 3 40 6-28 27-53 61-41v41" id="o"/><path d="M88-194c31-1 46 15 58 34l-1-101h50l1 261h-48c-2-10 0-23-3-31C134-8 116 4 84 4 32 4 16-41 15-95c0-56 19-97 73-99zm17 164c33 0 40-30 41-66 1-37-9-64-41-64s-38 30-39 65c0 43 13 65 39 65" id="p"/><path d="M185-48c-13 30-37 53-82 52C43 2 14-33 14-96s30-98 90-98c62 0 83 45 84 108H66c0 31 8 55 39 56 18 0 30-7 34-22zm-45-69c5-46-57-63-70-21-2 6-4 13-4 21h74" id="q"/><path d="M137-138c1-29-70-34-71-4 15 46 118 7 119 86 1 83-164 76-172 9l43-7c4 19 20 25 44 25 33 8 57-30 24-41C81-84 22-81 20-136c-2-80 154-74 161-7" id="r"/><g id="a"><use transform="matrix(0.05,0,0,0.05,0,0)" xlink:href="#n"/><use transform="matrix(0.05,0,0,0.05,10.950000000000001,0)" xlink:href="#o"/><use transform="matrix(0.05,0,0,0.05,17.950000000000003,0)" xlink:href="#p"/><use transform="matrix(0.05,0,0,0.05,28.900000000000006,0)" xlink:href="#q"/><use transform="matrix(0.05,0,0,0.05,38.900000000000006,0)" xlink:href="#o"/><use transform="matrix(0.05,0,0,0.05,45.900000000000006,0)" xlink:href="#r"/></g><path d="M100-194c62-1 85 37 85 99 1 63-27 99-86 99S16-35 15-95c0-66 28-99 85-99zM99-20c44 1 53-31 53-75 0-43-8-75-51-75s-53 32-53 75 10 74 51 75" id="s"/><path d="M114-163C36-179 61-72 57 0H25l-1-190h30c1 12-1 29 2 39 6-27 23-49 58-41v29" id="t"/><path d="M85-194c31 0 48 13 60 33l-1-100h32l1 261h-30c-2-10 0-23-3-31C134-8 116 4 85 4 32 4 16-35 15-94c0-66 23-100 70-100zm9 24c-40 0-46 34-46 75 0 40 6 74 45 74 42 0 51-32 51-76 0-42-9-74-50-73" id="u"/><path d="M100-194c63 0 86 42 84 106H49c0 40 14 67 53 68 26 1 43-12 49-29l28 8c-11 28-37 45-77 45C44 4 14-33 15-96c1-61 26-98 85-98zm52 81c6-60-76-77-97-28-3 7-6 17-6 28h103" id="v"/><path d="M-5 72V49h209v23H-5" id="w"/><path d="M24-231v-30h32v30H24zM24 0v-190h32V0H24" id="x"/><g id="b"><use transform="matrix(0.05,0,0,0.05,0,0)" xlink:href="#s"/><use transform="matrix(0.05,0,0,0.05,10,0)" xlink:href="#t"/><use transform="matrix(0.05,0,0,0.05,15.949999999999998,0)" xlink:href="#u"/><use transform="matrix(0.05,0,0,0.05,25.950000000000003,0)" xlink:href="#v"/><use transform="matrix(0.05,0,0,0.05,35.95,0)" xlink:href="#t"/><use transform="matrix(0.05,0,0,0.05,41.900000000000006,0)" xlink:href="#w"/><use transform="matrix(0.05,0,0,0.05,51.900000000000006,0)" xlink:href="#x"/><use transform="matrix(0.05,0,0,0.05,55.85,0)" xlink:href="#u"/></g><path d="M96-169c-40 0-48 33-48 73s9 75 48 75c24 0 41-14 43-38l32 2c-6 37-31 61-74 61-59 0-76-41-82-99-10-93 101-131 147-64 4 7 5 14 7 22l-32 3c-4-21-16-35-41-35" id="y"/><path d="M84 4C-5 8 30-112 23-190h32v120c0 31 7 50 39 49 72-2 45-101 50-169h31l1 190h-30c-1-10 1-25-2-33-11 22-28 36-60 37" id="z"/><path d="M135-143c-3-34-86-38-87 0 15 53 115 12 119 90S17 21 10-45l28-5c4 36 97 45 98 0-10-56-113-15-118-90-4-57 82-63 122-42 12 7 21 19 24 35" id="A"/><path d="M59-47c-2 24 18 29 38 22v24C64 9 27 4 27-40v-127H5v-23h24l9-43h21v43h35v23H59v120" id="B"/><path d="M210-169c-67 3-38 105-44 169h-31v-121c0-29-5-50-35-48C34-165 62-65 56 0H25l-1-190h30c1 10-1 24 2 32 10-44 99-50 107 0 11-21 27-35 58-36 85-2 47 119 55 194h-31v-121c0-29-5-49-35-48" id="C"/><g id="c"><use transform="matrix(0.05,0,0,0.05,0,0)" xlink:href="#y"/><use transform="matrix(0.05,0,0,0.05,9,0)" xlink:href="#z"/><use transform="matrix(0.05,0,0,0.05,19,0)" xlink:href="#A"/><use transform="matrix(0.05,0,0,0.05,28,0)" xlink:href="#B"/><use transform="matrix(0.05,0,0,0.05,33,0)" xlink:href="#s"/><use transform="matrix(0.05,0,0,0.05,43,0)" xlink:href="#C"/><use transform="matrix(0.05,0,0,0.05,57.95,0)" xlink:href="#v"/><use transform="matrix(0.05,0,0,0.05,67.95,0)" xlink:href="#t"/><use transform="matrix(0.05,0,0,0.05,73.9,0)" xlink:href="#w"/><use transform="matrix(0.05,0,0,0.05,83.9,0)" xlink:href="#x"/><use transform="matrix(0.05,0,0,0.05,87.85000000000001,0)" xlink:href="#u"/></g><path d="M33 0v-38h34V0H33" id="D"/><g id="d"><use transform="matrix(0.05,0,0,0.05,0,0)" xlink:href="#D"/><use transform="matrix(0.05,0,0,0.05,5,0)" xlink:href="#D"/><use transform="matrix(0.05,0,0,0.05,10,0)" xlink:href="#D"/></g><path d="M190-63c-7 42-38 67-86 67-59 0-84-38-90-98-12-110 154-137 174-36l-49 2c-2-19-15-32-35-32-30 0-35 28-38 64-6 74 65 87 74 30" id="E"/><path d="M85 4C-2 5 27-109 22-190h50c7 57-23 150 33 157 60-5 35-97 40-157h50l1 190h-47c-2-12 1-28-3-38-12 25-28 42-61 42" id="F"/><path d="M115-3C79 11 28 4 28-45v-112H4v-33h27l15-45h31v45h36v33H77v99c-1 23 16 31 38 25v30" id="G"/><path d="M220-157c-53 9-28 100-34 157h-49v-107c1-27-5-49-29-50C55-147 81-57 75 0H25l-1-190h47c2 12-1 28 3 38 10-53 101-56 108 0 13-22 24-43 59-42 82 1 51 116 57 194h-49v-107c-1-25-5-48-29-50" id="H"/><g id="e"><use transform="matrix(0.05,0,0,0.05,0,0)" xlink:href="#E"/><use transform="matrix(0.05,0,0,0.05,10,0)" xlink:href="#F"/><use transform="matrix(0.05,0,0,0.05,20.950000000000003,0)" xlink:href="#r"/><use transform="matrix(0.05,0,0,0.05,30.950000000000003,0)" xlink:href="#G"/><use transform="matrix(0.05,0,0,0.05,36.900000000000006,0)" xlink:href="#n"/><use transform="matrix(0.05,0,0,0.05,47.85000000000001,0)" xlink:href="#H"/><use transform="matrix(0.05,0,0,0.05,63.85,0)" xlink:href="#q"/><use transform="matrix(0.05,0,0,0.05,73.85000000000001,0)" xlink:href="#o"/><use transform="matrix(0.05,0,0,0.05,80.85000000000001,0)" xlink:href="#r"/></g><g id="f"><use transform="matrix(0.05,0,0,0.05,0,0)" xlink:href="#A"/><use transform="matrix(0.05,0,0,0.05,9,0)" xlink:href="#B"/><use transform="matrix(0.05,0,0,0.05,14,0)" xlink:href="#t"/><use transform="matrix(0.05,0,0,0.05,19.95,0)" xlink:href="#v"/><use transform="matrix(0.05,0,0,0.05,29.950000000000003,0)" xlink:href="#v"/><use transform="matrix(0.05,0,0,0.05,39.95,0)" xlink:href="#B"/></g><path d="M179-190L93 31C79 59 56 82 12 73V49c39 6 53-20 64-50L1-190h34L92-34l54-156h33" id="I"/><g id="g"><use transform="matrix(0.05,0,0,0.05,0,0)" xlink:href="#y"/><use transform="matrix(0.05,0,0,0.05,9,0)" xlink:href="#x"/><use transform="matrix(0.05,0,0,0.05,12.949999999999998,0)" xlink:href="#B"/><use transform="matrix(0.05,0,0,0.05,17.95,0)" xlink:href="#I"/></g><path d="M117-194c89-4 53 116 60 194h-32v-121c0-31-8-49-39-48C34-167 62-67 57 0H25l-1-190h30c1 10-1 24 2 32 11-22 29-35 61-36" id="J"/><g id="h"><use transform="matrix(0.05,0,0,0.05,0,0)" xlink:href="#y"/><use transform="matrix(0.05,0,0,0.05,9,0)" xlink:href="#s"/><use transform="matrix(0.05,0,0,0.05,19,0)" xlink:href="#z"/><use transform="matrix(0.05,0,0,0.05,29,0)" xlink:href="#J"/><use transform="matrix(0.05,0,0,0.05,39,0)" xlink:href="#B"/><use transform="matrix(0.05,0,0,0.05,44,0)" xlink:href="#t"/><use transform="matrix(0.05,0,0,0.05,49.95,0)" xlink:href="#I"/></g><g id="i"><use transform="matrix(0.05,0,0,0.05,0,0)" xlink:href="#D"/><use transform="matrix(0.05,0,0,0.05,5,0)" xlink:href="#D"/><use transform="matrix(0.05,0,0,0.05,10,0)" xlink:href="#D"/></g><path fill="#c92d39" d="M137-138c1-29-70-34-71-4 15 46 118 7 119 86 1 83-164 76-172 9l43-7c4 19 20 25 44 25 33 8 57-30 24-41C81-84 22-81 20-136c-2-80 154-74 161-7" id="K"/><path fill="#c92d39" d="M115-3C79 11 28 4 28-45v-112H4v-33h27l15-45h31v45h36v33H77v99c-1 23 16 31 38 25v30" id="L"/><path fill="#c92d39" d="M135-150c-39-12-60 13-60 57V0H25l-1-190h47c2 13-1 29 3 40 6-28 27-53 61-41v41" id="M"/><path fill="#c92d39" d="M185-48c-13 30-37 53-82 52C43 2 14-33 14-96s30-98 90-98c62 0 83 45 84 108H66c0 31 8 55 39 56 18 0 30-7 34-22zm-45-69c5-46-57-63-70-21-2 6-4 13-4 21h74" id="N"/><g id="j"><use transform="matrix(0.05,0,0,0.05,0,0)" xlink:href="#K"/><use transform="matrix(0.05,0,0,0.05,10,0)" xlink:href="#L"/><use transform="matrix(0.05,0,0,0.05,15.949999999999998,0)" xlink:href="#M"/><use transform="matrix(0.05,0,0,0.05,22.95,0)" xlink:href="#N"/><use transform="matrix(0.05,0,0,0.05,32.95,0)" xlink:href="#N"/><use transform="matrix(0.05,0,0,0.05,42.95,0)" xlink:href="#L"/></g><path fill="#c92d39" d="M190-63c-7 42-38 67-86 67-59 0-84-38-90-98-12-110 154-137 174-36l-49 2c-2-19-15-32-35-32-30 0-35 28-38 64-6 74 65 87 74 30" id="O"/><path fill="#c92d39" d="M25-224v-37h50v37H25zM25 0v-190h50V0H25" id="P"/><path fill="#c92d39" d="M123 10C108 53 80 86 19 72V37c35 8 53-11 59-39L3-190h52l48 148c12-52 28-100 44-148h51" id="Q"/><g id="k"><use transform="matrix(0.05,0,0,0.05,0,0)" xlink:href="#O"/><use transform="matrix(0.05,0,0,0.05,10,0)" xlink:href="#P"/><use transform="matrix(0.05,0,0,0.05,15,0)" xlink:href="#L"/><use transform="matrix(0.05,0,0,0.05,20.95,0)" xlink:href="#Q"/></g><path fill="#c92d39" d="M110-194c64 0 96 36 96 99 0 64-35 99-97 99-61 0-95-36-95-99 0-62 34-99 96-99zm-1 164c35 0 45-28 45-65 0-40-10-65-43-65-34 0-45 26-45 65 0 36 10 65 43 65" id="R"/><path fill="#c92d39" d="M85 4C-2 5 27-109 22-190h50c7 57-23 150 33 157 60-5 35-97 40-157h50l1 190h-47c-2-12 1-28-3-38-12 25-28 42-61 42" id="S"/><path fill="#c92d39" d="M135-194c87-1 58 113 63 194h-50c-7-57 23-157-34-157-59 0-34 97-39 157H25l-1-190h47c2 12-1 28 3 38 12-26 28-41 61-42" id="T"/><g id="l"><use transform="matrix(0.05,0,0,0.05,0,0)" xlink:href="#O"/><use transform="matrix(0.05,0,0,0.05,10,0)" xlink:href="#R"/><use transform="matrix(0.05,0,0,0.05,20.950000000000003,0)" xlink:href="#S"/><use transform="matrix(0.05,0,0,0.05,31.900000000000006,0)" xlink:href="#T"/><use transform="matrix(0.05,0,0,0.05,42.85000000000001,0)" xlink:href="#L"/><use transform="matrix(0.05,0,0,0.05,48.80000000000001,0)" xlink:href="#M"/><use transform="matrix(0.05,0,0,0.05,55.80000000000001,0)" xlink:href="#Q"/></g><path d="M106-169C34-169 62-67 57 0H25v-261h32l-1 103c12-21 28-36 61-36 89 0 53 116 60 194h-32v-121c2-32-8-49-39-48" id="U"/><path d="M115-194c55 1 70 41 70 98S169 2 115 4C84 4 66-9 55-30l1 105H24l-1-265h31l2 30c10-21 28-34 59-34zm-8 174c40 0 45-34 45-75s-6-73-45-74c-42 0-51 32-51 76 0 43 10 73 51 73" id="V"/><path d="M177-190C167-65 218 103 67 71c-23-6-38-20-44-43l32-5c15 47 100 32 89-28v-30C133-14 115 1 83 1 29 1 15-40 15-95c0-56 16-97 71-98 29-1 48 16 59 35 1-10 0-23 2-32h30zM94-22c36 0 50-32 50-73 0-42-14-75-50-75-39 0-46 34-46 75s6 73 46 73" id="W"/><path d="M141-36C126-15 110 5 73 4 37 3 15-17 15-53c-1-64 63-63 125-63 3-35-9-54-41-54-24 1-41 7-42 31l-33-3c5-37 33-52 76-52 45 0 72 20 72 64v82c-1 20 7 32 28 27v20c-31 9-61-2-59-35zM48-53c0 20 12 33 32 33 41-3 63-29 60-74-43 2-92-5-92 41" id="X"/><g id="m"><use transform="matrix(0.05,0,0,0.05,0,0)" xlink:href="#A"/><use transform="matrix(0.05,0,0,0.05,9,0)" xlink:href="#U"/><use transform="matrix(0.05,0,0,0.05,19,0)" xlink:href="#x"/><use transform="matrix(0.05,0,0,0.05,22.95,0)" xlink:href="#V"/><use transform="matrix(0.05,0,0,0.05,32.95,0)" xlink:href="#V"/><use transform="matrix(0.05,0,0,0.05,42.95,0)" xlink:href="#x"/><use transform="matrix(0.05,0,0,0.05,46.900000000000006,0)" xlink:href="#J"/><use transform="matrix(0.05,0,0,0.05,56.900000000000006,0)" xlink:href="#W"/><use transform="matrix(0.05,0,0,0.05,66.9,0)" xlink:href="#w"/><use transform="matrix(0.05,0,0,0.05,76.9,0)" xlink:href="#X"/><use transform="matrix(0.05,0,0,0.05,86.9,0)" xlink:href="#u"/><use transform="matrix(0.05,0,0,0.05,96.9,0)" xlink:href="#u"/><use transform="matrix(0.05,0,0,0.05,106.9,0)" xlink:href="#t"/><use transform="matrix(0.05,0,0,0.05,112.85000000000001,0)" xlink:href="#v"/><use transform="matrix(0.05,0,0,0.05,122.85000000000001,0)" xlink:href="#A"/><use transform="matrix(0.05,0,0,0.05,131.85000000000002,0)" xlink:href="#A"/></g></defs></g></svg>