<svg xmlns="http://www.w3.org/2000/svg" xmlns:xlink="http://www.w3.org/1999/xlink" width="1351" height="703"><g transform="translate(40 -141)"><path d="M80 400h1200v-80H80zM80 300h1200v-80H80zM800 718h280v106H800z" stroke="#000" stroke-width="2" fill="#fff"/><use xlink:href="#a" transform="matrix(1,0,0,1,805,723) translate(82.77777777777777 32)"/><use xlink:href="#b" transform="matrix(1,0,0,1,805,723) translate(165 32)"/><use xlink:href="#c" transform="matrix(1,0,0,1,805,723) translate(71.83333333333333 80)"/><path d="M160 723h280v101H160z" stroke="#000" stroke-width="2" fill="#fff"/><use xlink:href="#a" transform="matrix(1,0,0,1,165,728) translate(82.77777777777777 32)"/><use xlink:href="#d" transform="matrix(1,0,0,1,165,728) translate(165 32)"/><use xlink:href="#e" transform="matrix(1,0,0,1,165,728) translate(2.555555555555543 80)"/><use xlink:href="#f" transform="matrix(1,0,0,1,165,728) translate(13.666666666666654 80)"/><path d="M144.13 190.67H1280" stroke="#000" stroke-width="2" fill="none"/><path d="M1280 190.67l-14.27 4.63v-9.27z" stroke="#000" stroke-width="2"/><path d="M80 500h1200v-80H80z" stroke="#000" stroke-width="2" fill="#fff"/><path d="M202.13 401H220v279h631.47v37" stroke="#0c7cba" stroke-width="2" fill="none"/><path d="M851.47 717l-4.64-14.27h9.27z" fill="#0c7cba"/><path d="M852.2 718h-1.46l-5.3-16.27h12.04zm-4-14.27l3.27 10.03 3.26-10.03z" fill="#0c7cba"/><path d="M240 360c0 22.1-17.9 40-40 40s-40-17.9-40-40 17.9-40 40-40 40 17.9 40 40z" stroke="#0c7cba" stroke-width="2" fill="#fff"/><path d="M160 330h80v60h-80z" fill="none"/><use xlink:href="#g" transform="matrix(1,0,0,1,165,335) translate(15.166666666666664 31.22222222222222)"/><path d="M80 320.5h60V400H80z" fill="none"/><use xlink:href="#h" transform="matrix(1,0,0,1,85,325.5) translate(11.666666666666668 43)"/><path d="M80 220.5h60V300H80z" fill="none"/><use xlink:href="#i" transform="matrix(1,0,0,1,85,225.5) translate(11.666666666666668 43)"/><path d="M80 420.5h60V500H80z" fill="none"/><use xlink:href="#i" transform="matrix(1,0,0,1,85,425.5) translate(11.666666666666668 43)"/><path d="M-20 161h240v60H-20z" fill="none"/><use xlink:href="#j" transform="matrix(1,0,0,1,-15,166) translate(85.96296296296296 30.333333333333336)"/><path d="M340 360c0 22.1-17.9 40-40 40s-40-17.9-40-40 17.9-40 40-40 40 17.9 40 40z" stroke="#c92d39" stroke-width="2" fill="#fff"/><use xlink:href="#k" transform="matrix(1,0,0,1,265,325) translate(11.709876543209873 41.22222222222222)"/><path d="M420 460c0 22.1-17.9 40-40 40s-40-17.9-40-40 17.9-40 40-40 40 17.9 40 40z" stroke="#c92d39" stroke-width="2" fill="#fff"/><use xlink:href="#k" transform="matrix(1,0,0,1,345,425) translate(11.709876543209873 41.22222222222222)"/><path d="M400 260c0 22.1-17.9 40-40 40s-40-17.9-40-40 17.9-40 40-40 40 17.9 40 40z" stroke="#c92d39" stroke-width="2" fill="#fff"/><use xlink:href="#k" transform="matrix(1,0,0,1,325,225) translate(11.709876543209873 41.22222222222222)"/><path d="M300 723V401" stroke="#c92d39" stroke-width="2" fill="none"/><path d="M300 401l4.64 14.27h-9.28z" stroke="#c92d39" stroke-width="2" fill="#c92d39"/><path d="M321.83 325.38L360 300" stroke="#c92d39" stroke-width="2" fill="none"/><path d="M360 300l-9.3 11.76-5.15-7.72z" stroke="#c92d39" stroke-width="2" fill="#c92d39"/><path d="M326.3 391.44l33.16 33.15" stroke="#c92d39" stroke-width="2" fill="none"/><path d="M359.46 424.6l-13.37-6.82 6.55-6.55z" stroke="#c92d39" stroke-width="2" fill="#c92d39"/><path d="M920 261c0 22.1-17.9 40-40 40s-40-17.9-40-40 17.9-40 40-40 40 17.9 40 40z" stroke="#000" stroke-width="2" fill="#fff"/><use xlink:href="#l" transform="matrix(1,0,0,1,845,226) translate(18.580246913580247 41.22222222222222)"/><path d="M580 360c0 22.1-17.9 40-40 40s-40-17.9-40-40 17.9-40 40-40 40 17.9 40 40z" stroke="#000" stroke-width="2" fill="#fff"/><path d="M500 330h80v60h-80z" fill="none"/><use xlink:href="#l" transform="matrix(1,0,0,1,505,335) translate(18.580246913580247 31.22222222222222)"/><path d="M620 460c0 22.1-17.9 40-40 40s-40-17.9-40-40 17.9-40 40-40 40 17.9 40 40z" stroke="#000" stroke-width="2" fill="#fff"/><use xlink:href="#l" transform="matrix(1,0,0,1,545,425) translate(18.580246913580247 41.22222222222222)"/><path d="M401.77 260L840 261M401.77 260h-3" stroke="#000" stroke-width="2" fill="none"/><path d="M840 261l-14.28 4.6.02-9.27z"/><path d="M840.06 259.97L840 261l.04 1.04-15.32 4.94.03-12.03zm-13.33 4.26l10.03-3.24-10.02-3.3z"/><path d="M421.77 461h117.26M421.77 461h-3" stroke="#000" stroke-width="2" fill="none"/><path d="M539.03 461l-14.26 4.64v-9.28z"/><path d="M540 460.27l.06 1.45-16.3 5.3v-12.03zm-14.23 4L535.8 461l-10.03-3.26z"/><path d="M335.77 382H505.4M335.77 382h-3" stroke="#000" stroke-width="2" fill="none"/><path d="M505.4 382l-14.26 4.64v-9.28z"/><path d="M506.1 381.17l.22.4.7.96-16.88 5.48v-12zm-13.96 4.1l10.03-3.27-10.03-3.26z"/><path d="M780 360c0 22.1-17.9 40-40 40s-40-17.9-40-40 17.9-40 40-40 40 17.9 40 40z" stroke="#19967d" stroke-width="2" fill="#fff"/><use xlink:href="#m" transform="matrix(1,0,0,1,705,325) translate(15.166666666666664 41.22222222222222)"/><path d="M737.8 401v239h-392v82" stroke="#19967d" stroke-width="2" fill="none"/><path d="M738.8 401h-2v-1h2zM345.8 722l-4.64-14.27h9.28z" fill="#19967d"/><path d="M346.53 723h-1.46l-5.28-16.27h12zm-4-14.27l3.27 10.03 3.26-10.03z" fill="#19967d"/><path d="M612.06 434.5l111.7-35.44" stroke="#19967d" stroke-width="2" fill="none"/><path d="M612.36 435.47l-.68.2-.96-1.3-.36-.37 1.4-.44z" fill="#19967d"/><path d="M723.77 399.06l-12.2 8.73-2.8-8.84z" stroke="#19967d" stroke-width="2" fill="#19967d"/><path d="M576.27 379.06h127.5" stroke="#19967d" stroke-width="2" fill="none"/><path d="M576.27 380.06h-1.72l.58-.9.5-1.1h.64zM703.77 379.06l-14.27 4.64v-9.27z" fill="#19967d"/><path d="M704.45 378.23l.78 1.4-16.73 5.44v-12.02zm-13.95 4.1l10.03-3.27-10.03-3.26z" fill="#19967d"/><defs><path d="M205 0l-28-72H64L36 0H1l101-248h38L239 0h-34zm-38-99l-47-123c-12 45-31 82-46 123h93" id="n"/><path d="M115-194c55 1 70 41 70 98S169 2 115 4C84 4 66-9 55-30l1 105H24l-1-265h31l2 30c10-21 28-34 59-34zm-8 174c40 0 45-34 45-75s-6-73-45-74c-42 0-51 32-51 76 0 43 10 73 51 73" id="o"/><g id="a"><use transform="matrix(0.1111111111111111,0,0,0.1111111111111111,0,0)" xlink:href="#n"/><use transform="matrix(0.1111111111111111,0,0,0.1111111111111111,26.666666666666664,0)" xlink:href="#o"/><use transform="matrix(0.1111111111111111,0,0,0.1111111111111111,48.888888888888886,0)" xlink:href="#o"/></g><path d="M101-251c82-7 93 87 43 132L82-64C71-53 59-42 53-27h129V0H18c2-99 128-94 128-182 0-28-16-43-45-43s-46 15-49 41l-32-3c6-41 34-60 81-64" id="p"/><use transform="matrix(0.1111111111111111,0,0,0.1111111111111111,0,0)" xlink:href="#p" id="b"/><path d="M87 75C49 33 22-17 22-94c0-76 28-126 65-167h31c-38 41-64 92-64 168S80 34 118 75H87" id="q"/><path d="M114-163C36-179 61-72 57 0H25l-1-190h30c1 12-1 29 2 39 6-27 23-49 58-41v29" id="r"/><path d="M100-194c63 0 86 42 84 106H49c0 40 14 67 53 68 26 1 43-12 49-29l28 8c-11 28-37 45-77 45C44 4 14-33 15-96c1-61 26-98 85-98zm52 81c6-60-76-77-97-28-3 7-6 17-6 28h103" id="s"/><path d="M141-36C126-15 110 5 73 4 37 3 15-17 15-53c-1-64 63-63 125-63 3-35-9-54-41-54-24 1-41 7-42 31l-33-3c5-37 33-52 76-52 45 0 72 20 72 64v82c-1 20 7 32 28 27v20c-31 9-61-2-59-35zM48-53c0 20 12 33 32 33 41-3 63-29 60-74-43 2-92-5-92 41" id="t"/><path d="M85-194c31 0 48 13 60 33l-1-100h32l1 261h-30c-2-10 0-23-3-31C134-8 116 4 85 4 32 4 16-35 15-94c0-66 23-100 70-100zm9 24c-40 0-46 34-46 75 0 40 6 74 45 74 42 0 51-32 51-76 0-42-9-74-50-73" id="u"/><path d="M135-143c-3-34-86-38-87 0 15 53 115 12 119 90S17 21 10-45l28-5c4 36 97 45 98 0-10-56-113-15-118-90-4-57 82-63 122-42 12 7 21 19 24 35" id="v"/><path d="M33-261c38 41 65 92 65 168S71 34 33 75H2C39 34 66-17 66-93S39-220 2-261h31" id="w"/><g id="c"><use transform="matrix(0.1111111111111111,0,0,0.1111111111111111,0,0)" xlink:href="#q"/><use transform="matrix(0.1111111111111111,0,0,0.1111111111111111,13.222222222222221,0)" xlink:href="#r"/><use transform="matrix(0.1111111111111111,0,0,0.1111111111111111,26.444444444444443,0)" xlink:href="#s"/><use transform="matrix(0.1111111111111111,0,0,0.1111111111111111,48.666666666666664,0)" xlink:href="#t"/><use transform="matrix(0.1111111111111111,0,0,0.1111111111111111,70.88888888888889,0)" xlink:href="#u"/><use transform="matrix(0.1111111111111111,0,0,0.1111111111111111,93.11111111111111,0)" xlink:href="#v"/><use transform="matrix(0.1111111111111111,0,0,0.1111111111111111,113.11111111111111,0)" xlink:href="#w"/></g><path d="M27 0v-27h64v-190l-56 39v-29l58-41h29v221h61V0H27" id="x"/><use transform="matrix(0.1111111111111111,0,0,0.1111111111111111,0,0)" xlink:href="#x" id="d"/><path d="M118-107v75H92v-75H18v-26h74v-75h26v75h74v26h-74" id="y"/><path d="M206 0h-36l-40-164L89 0H53L-1-190h32L70-26l43-164h34l41 164 42-164h31" id="z"/><path d="M24-231v-30h32v30H24zM24 0v-190h32V0H24" id="A"/><path d="M59-47c-2 24 18 29 38 22v24C64 9 27 4 27-40v-127H5v-23h24l9-43h21v43h35v23H59v120" id="B"/><g id="f"><use transform="matrix(0.1111111111111111,0,0,0.1111111111111111,0,0)" xlink:href="#q"/><use transform="matrix(0.1111111111111111,0,0,0.1111111111111111,13.222222222222221,0)" xlink:href="#r"/><use transform="matrix(0.1111111111111111,0,0,0.1111111111111111,26.444444444444443,0)" xlink:href="#s"/><use transform="matrix(0.1111111111111111,0,0,0.1111111111111111,48.666666666666664,0)" xlink:href="#t"/><use transform="matrix(0.1111111111111111,0,0,0.1111111111111111,70.88888888888889,0)" xlink:href="#u"/><use transform="matrix(0.1111111111111111,0,0,0.1111111111111111,93.11111111111111,0)" xlink:href="#v"/><use transform="matrix(0.1111111111111111,0,0,0.1111111111111111,113.11111111111111,0)" xlink:href="#y"/><use transform="matrix(0.1111111111111111,0,0,0.1111111111111111,136.44444444444446,0)" xlink:href="#z"/><use transform="matrix(0.1111111111111111,0,0,0.1111111111111111,165.22222222222223,0)" xlink:href="#r"/><use transform="matrix(0.1111111111111111,0,0,0.1111111111111111,178.44444444444446,0)" xlink:href="#A"/><use transform="matrix(0.1111111111111111,0,0,0.1111111111111111,187.22222222222223,0)" xlink:href="#B"/><use transform="matrix(0.1111111111111111,0,0,0.1111111111111111,198.33333333333334,0)" xlink:href="#s"/><use transform="matrix(0.1111111111111111,0,0,0.1111111111111111,220.55555555555557,0)" xlink:href="#v"/><use transform="matrix(0.1111111111111111,0,0,0.1111111111111111,240.5555555555556,0)" xlink:href="#w"/></g><path fill="#0c7cba" d="M233-177c-1 41-23 64-60 70L243 0h-38l-65-103H63V0H30v-248c88 3 205-21 203 71zM63-129c60-2 137 13 137-47 0-61-80-42-137-45v92" id="C"/><path fill="#0c7cba" d="M101-251c68 0 85 55 85 127S166 4 100 4C33 4 14-52 14-124c0-73 17-127 87-127zm-1 229c47 0 54-49 54-102s-4-102-53-102c-51 0-55 48-55 102 0 53 5 102 54 102" id="D"/><g id="g"><use transform="matrix(0.08641975308641976,0,0,0.08641975308641976,0,0)" xlink:href="#C"/><use transform="matrix(0.08641975308641976,0,0,0.08641975308641976,22.38271604938272,0)" xlink:href="#D"/></g><path d="M30-248c87 1 191-15 191 75 0 78-77 80-158 76V0H30v-248zm33 125c57 0 124 11 124-50 0-59-68-47-124-48v98" id="E"/><use transform="matrix(0.1111111111111111,0,0,0.1111111111111111,0,0)" xlink:href="#E" id="h"/><path d="M185-189c-5-48-123-54-124 2 14 75 158 14 163 119 3 78-121 87-175 55-17-10-28-26-33-46l33-7c5 56 141 63 141-1 0-78-155-14-162-118-5-82 145-84 179-34 5 7 8 16 11 25" id="F"/><use transform="matrix(0.1111111111111111,0,0,0.1111111111111111,0,0)" xlink:href="#F" id="i"/><path d="M127-220V0H93v-220H8v-28h204v28h-85" id="G"/><path d="M210-169c-67 3-38 105-44 169h-31v-121c0-29-5-50-35-48C34-165 62-65 56 0H25l-1-190h30c1 10-1 24 2 32 10-44 99-50 107 0 11-21 27-35 58-36 85-2 47 119 55 194h-31v-121c0-29-5-49-35-48" id="H"/><g id="j"><use transform="matrix(0.07407407407407408,0,0,0.07407407407407408,0,0)" xlink:href="#G"/><use transform="matrix(0.07407407407407408,0,0,0.07407407407407408,15.259259259259261,0)" xlink:href="#A"/><use transform="matrix(0.07407407407407408,0,0,0.07407407407407408,21.111111111111114,0)" xlink:href="#H"/><use transform="matrix(0.07407407407407408,0,0,0.07407407407407408,43.25925925925927,0)" xlink:href="#s"/></g><path fill="#c92d39" d="M266 0h-40l-56-210L115 0H75L2-248h35L96-30l15-64 43-154h32l59 218 59-218h35" id="I"/><path fill="#c92d39" d="M27 0v-27h64v-190l-56 39v-29l58-41h29v221h61V0H27" id="J"/><g id="k"><use transform="matrix(0.08641975308641976,0,0,0.08641975308641976,0,0)" xlink:href="#I"/><use transform="matrix(0.08641975308641976,0,0,0.08641975308641976,29.296296296296298,0)" xlink:href="#J"/></g><path d="M153-248C145-148 188 4 80 4 36 3 13-21 6-62l32-5c4 25 16 42 43 43 27 0 39-20 39-49v-147H72v-28h81" id="K"/><g id="l"><use transform="matrix(0.08641975308641976,0,0,0.08641975308641976,0,0)" xlink:href="#K"/><use transform="matrix(0.08641975308641976,0,0,0.08641975308641976,15.555555555555557,0)" xlink:href="#x"/></g><path fill="#19967d" d="M212-179c-10-28-35-45-73-45-59 0-87 40-87 99 0 60 29 101 89 101 43 0 62-24 78-52l27 14C228-24 195 4 139 4 59 4 22-46 18-125c-6-104 99-153 187-111 19 9 31 26 39 46" id="L"/><path fill="#19967d" d="M27 0v-27h64v-190l-56 39v-29l58-41h29v221h61V0H27" id="M"/><g id="m"><use transform="matrix(0.08641975308641976,0,0,0.08641975308641976,0,0)" xlink:href="#L"/><use transform="matrix(0.08641975308641976,0,0,0.08641975308641976,22.38271604938272,0)" xlink:href="#M"/></g></defs></g></svg>