<?xml version="1.0" standalone="yes"?>

<svg version="1.1" viewBox="0.0 0.0 269.18110236220474 150.32808398950132" fill="none" stroke="none" stroke-linecap="square" stroke-miterlimit="10" xmlns="http://www.w3.org/2000/svg" xmlns:xlink="http://www.w3.org/1999/xlink"><clipPath id="p.0"><path d="m0 0l269.1811 0l0 150.32808l-269.1811 0l0 -150.32808z" clip-rule="nonzero"></path></clipPath><g clip-path="url(#p.0)"><path fill="#000000" fill-opacity="0.0" d="m0 0l269.1811 0l0 150.32808l-269.1811 0z" fill-rule="evenodd"></path><path fill="#000000" fill-opacity="0.0" d="m16.0 111.63943l248.72131 0" fill-rule="evenodd"></path><path stroke="#000000" stroke-width="2.0" stroke-linejoin="round" stroke-linecap="butt" d="m16.0 111.63943l248.72131 0" fill-rule="evenodd"></path><path fill="#000000" fill-opacity="0.0" d="m262.5964 80.0007l-40.834854 30.95768" fill-rule="evenodd"></path><path stroke="#000000" stroke-width="2.0" stroke-linejoin="round" stroke-linecap="butt" d="m262.5964 80.0007l-40.834854 30.95768" fill-rule="evenodd"></path><path fill="#000000" fill-opacity="0.0" d="m262.5964 144.0l-40.834854 -30.957687" fill-rule="evenodd"></path><path stroke="#000000" stroke-width="2.0" stroke-linejoin="round" stroke-linecap="butt" d="m262.5964 144.0l-40.834854 -30.957687" fill-rule="evenodd"></path><path fill="#000000" fill-opacity="0.0" d="m220.70163 88.816605l-0.24342346 45.645645" fill-rule="evenodd"></path><path stroke="#000000" stroke-width="2.0" stroke-linejoin="round" stroke-linecap="butt" d="m220.70163 88.816605l-0.24342346 45.645645" fill-rule="evenodd"></path><path fill="#000000" fill-opacity="0.0" d="m56.72834 88.816605l-0.24342346 45.645645" fill-rule="evenodd"></path><path stroke="#000000" stroke-width="2.0" stroke-linejoin="round" stroke-linecap="butt" d="m56.72834 88.816605l-0.24342346 45.645645" fill-rule="evenodd"></path><path fill="#000000" fill-opacity="0.0" d="m56.834843 111.63943l-40.834843 30.95768" fill-rule="evenodd"></path><path stroke="#000000" stroke-width="2.0" stroke-linejoin="round" stroke-linecap="butt" d="m56.834843 111.63943l-40.834843 30.95768" fill-rule="evenodd"></path><path fill="#000000" fill-opacity="0.0" d="m56.484917 111.63943l-40.043705 -30.58107" fill-rule="evenodd"></path><path stroke="#000000" stroke-width="2.0" stroke-linejoin="round" stroke-linecap="butt" d="m56.484917 111.63943l-40.043705 -30.58107" fill-rule="evenodd"></path><path fill="#000000" fill-opacity="0.0" d="m264.0 96.0007l-44.53543 16.0" fill-rule="evenodd"></path><path stroke="#000000" stroke-width="2.0" stroke-linejoin="round" stroke-linecap="butt" d="m264.0 96.0007l-44.53543 16.0" fill-rule="evenodd"></path><path fill="#000000" fill-opacity="0.0" d="m264.0 128.0007l-40.0 -16.0" fill-rule="evenodd"></path><path stroke="#000000" stroke-width="2.0" stroke-linejoin="round" stroke-linecap="butt" d="m264.0 128.0007l-40.0 -16.0" fill-rule="evenodd"></path><path fill="#000000" fill-opacity="0.0" d="m15.808227 43.56979l250.24026 0" fill-rule="evenodd"></path><path stroke="#000000" stroke-width="2.0" stroke-linejoin="round" stroke-linecap="butt" d="m15.808227 43.56979l250.24026 0" fill-rule="evenodd"></path><path fill="#000000" fill-opacity="0.0" d="m263.91058 16.650082l-41.084213 26.340244" fill-rule="evenodd"></path><path stroke="#000000" stroke-width="2.0" stroke-linejoin="round" stroke-linecap="butt" d="m263.91058 16.650082l-41.084213 26.340244" fill-rule="evenodd"></path><path fill="#000000" fill-opacity="0.0" d="m263.91058 71.103676l-41.084213 -26.340244" fill-rule="evenodd"></path><path stroke="#000000" stroke-width="2.0" stroke-linejoin="round" stroke-linecap="butt" d="m263.91058 71.103676l-41.084213 -26.340244" fill-rule="evenodd"></path><path fill="#000000" fill-opacity="0.0" d="m56.785297 24.15107l-0.24491501 38.837444" fill-rule="evenodd"></path><path stroke="#000000" stroke-width="2.0" stroke-linejoin="round" stroke-linecap="butt" d="m56.785297 24.15107l-0.24491501 38.837444" fill-rule="evenodd"></path><path fill="#ffffff" d="m191.68921 43.87688l0 0c0 -8.193928 6.387192 -14.836416 14.266205 -14.836416l0 0c3.7836304 0 7.4122925 1.563118 10.087723 4.345484c2.6754303 2.7823677 4.178482 6.5560684 4.178482 10.490932l0 0c0 8.193924 -6.387207 14.836414 -14.266205 14.836414l0 0c-7.879013 0 -14.266205 -6.6424904 -14.266205 -14.836414z" fill-rule="evenodd"></path><path stroke="#000000" stroke-width="2.0" stroke-linejoin="round" stroke-linecap="butt" d="m191.68921 43.87688l0 0c0 -8.193928 6.387192 -14.836416 14.266205 -14.836416l0 0c3.7836304 0 7.4122925 1.563118 10.087723 4.345484c2.6754303 2.7823677 4.178482 6.5560684 4.178482 10.490932l0 0c0 8.193924 -6.387207 14.836414 -14.266205 14.836414l0 0c-7.879013 0 -14.266205 -6.6424904 -14.266205 -14.836414z" fill-rule="evenodd"></path><path fill="#000000" fill-opacity="0.0" d="m266.04837 29.042234l-45.82675 14.834646" fill-rule="evenodd"></path><path stroke="#000000" stroke-width="2.0" stroke-linejoin="round" stroke-linecap="butt" d="m266.04837 29.042234l-45.82675 14.834646" fill-rule="evenodd"></path><path fill="#000000" fill-opacity="0.0" d="m264.00113 56.002865l-43.77951 -12.125984" fill-rule="evenodd"></path><path stroke="#000000" stroke-width="2.0" stroke-linejoin="round" stroke-linecap="butt" d="m264.00113 56.002865l-43.77951 -12.125984" fill-rule="evenodd"></path></g></svg>

