<?xml version="1.0" standalone="yes"?>

<svg version="1.1" viewBox="0.0 0.0 728.4199475065617 502.45669291338584" fill="none" stroke="none" stroke-linecap="square" stroke-miterlimit="10" xmlns="http://www.w3.org/2000/svg" xmlns:xlink="http://www.w3.org/1999/xlink"><clipPath id="p.0"><path d="m0 0l728.4199 0l0 502.4567l-728.4199 0l0 -502.4567z" clip-rule="nonzero"></path></clipPath><g clip-path="url(#p.0)"><path fill="#000000" fill-opacity="0.0" d="m0 0l728.4199 0l0 502.4567l-728.4199 0z" fill-rule="evenodd"></path><path fill="#000000" fill-opacity="0.0" d="m80.0 84.16798l235.84253 0l0 356.66144l-235.84253 0z" fill-rule="evenodd"></path><path fill="#000000" fill-opacity="0.0" d="m14.831131 56.0l289.18195 0l0 424.0176l-289.18195 0z" fill-rule="evenodd"></path><path stroke="#000000" stroke-width="3.0" stroke-linejoin="round" stroke-linecap="butt" d="m14.831131 56.0l289.18195 0l0 424.0176l-289.18195 0z" fill-rule="evenodd"></path><path fill="#000000" d="m34.284256 86.71687l-10.453125 0l0 -1.328125l10.453125 0l0 1.328125zm4.4604187 -11.78125l-2.75 0l0 -1.328125l4.390625 0l0 7.96875l2.765625 0l0 1.34375l-7.46875 0l0 -1.34375l3.0625 0l0 -6.640625zm0.5625 -5.234375q0.28125 0 0.5 0.09375q0.234375 0.09375 0.40625 0.28125q0.171875 0.171875 0.265625 0.40625q0.109375 0.21875 0.109375 0.484375q0 0.265625 -0.109375 0.5q-0.09375 0.234375 -0.265625 0.40625q-0.171875 0.171875 -0.40625 0.28125q-0.21875 0.09375 -0.5 0.09375q-0.265625 0 -0.5 -0.09375q-0.234375 -0.109375 -0.40625 -0.28125q-0.171875 -0.171875 -0.265625 -0.40625q-0.09375 -0.234375 -0.09375 -0.5q0 -0.265625 0.09375 -0.484375q0.09375 -0.234375 0.265625 -0.40625q0.171875 -0.1875 0.40625 -0.28125q0.234375 -0.09375 0.5 -0.09375zm6.0541687 8.75q0 -1.1875 0.3125 -2.109375q0.328125 -0.921875 0.921875 -1.546875q0.609375 -0.640625 1.4375 -0.96875q0.84375 -0.328125 1.875 -0.328125q0.453125 0 0.875 0.0625q0.4375 0.046875 0.859375 0.171875l0 -3.921875l1.625 0l0 13.109375l-1.453125 0l-0.0625 -1.765625q-0.671875 0.984375 -1.46875 1.46875q-0.78125 0.46875 -1.703125 0.46875q-0.796875 0 -1.40625 -0.328125q-0.59375 -0.34375 -1.0 -0.953125q-0.40625 -0.609375 -0.609375 -1.453125q-0.203125 -0.859375 -0.203125 -1.90625zm1.640625 -0.09375q0 1.6875 0.5 2.515625q0.5 0.828125 1.40625 0.828125q0.609375 0 1.296875 -0.546875q0.6875 -0.546875 1.4375 -1.625l0 -4.3125q-0.40625 -0.1875 -0.890625 -0.28125q-0.484375 -0.109375 -0.953125 -0.109375q-1.3125 0 -2.0625 0.859375q-0.734375 0.84375 -0.734375 2.671875zm12.819794 -4.921875q0.296875 0 0.546875 0.125q0.265625 0.109375 0.453125 0.3125q0.203125 0.1875 0.3125 0.453125q0.125 0.25 0.125 0.546875q0 0.296875 -0.125 0.546875q-0.109375 0.25 -0.3125 0.453125q-0.1875 0.1875 -0.453125 0.296875q-0.25 0.109375 -0.546875 0.109375q-0.296875 0 -0.546875 -0.109375q-0.25 -0.109375 -0.453125 -0.296875q-0.1875 -0.203125 -0.3125 -0.453125q-0.109375 -0.25 -0.109375 -0.546875q0 -0.296875 0.109375 -0.546875q0.125 -0.265625 0.3125 -0.453125q0.203125 -0.203125 0.453125 -0.3125q0.25 -0.125 0.546875 -0.125zm0 6.796875q0.296875 0 0.546875 0.125q0.265625 0.109375 0.453125 0.3125q0.203125 0.1875 0.3125 0.453125q0.125 0.25 0.125 0.546875q0 0.296875 -0.125 0.546875q-0.109375 0.25 -0.3125 0.453125q-0.1875 0.1875 -0.453125 0.296875q-0.25 0.125 -0.546875 0.125q-0.296875 0 -0.546875 -0.125q-0.25 -0.109375 -0.453125 -0.296875q-0.1875 -0.203125 -0.3125 -0.453125q-0.109375 -0.25 -0.109375 -0.546875q0 -0.296875 0.109375 -0.546875q0.125 -0.265625 0.3125 -0.453125q0.203125 -0.203125 0.453125 -0.3125q0.25 -0.125 0.546875 -0.125zm25.233337 -3.453125q0 1.625 -0.390625 2.8125q-0.375 1.1875 -1.03125 1.96875q-0.65625 0.78125 -1.53125 1.15625q-0.875 0.375 -1.859375 0.375q-1.15625 0 -2.03125 -0.421875q-0.859375 -0.421875 -1.4375 -1.21875q-0.578125 -0.796875 -0.859375 -1.9375q-0.265625 -1.15625 -0.265625 -2.59375q0 -1.609375 0.375 -2.796875q0.390625 -1.1875 1.03125 -1.96875q0.65625 -0.78125 1.53125 -1.15625q0.875 -0.375 1.84375 -0.375q1.171875 0 2.03125 0.4375q0.875 0.421875 1.453125 1.21875q0.578125 0.78125 0.859375 1.921875q0.28125 1.140625 0.28125 2.578125zm-1.71875 0.125q0 -1.078125 -0.171875 -1.953125q-0.15625 -0.890625 -0.515625 -1.53125q-0.359375 -0.640625 -0.9375 -0.984375q-0.5625 -0.359375 -1.375 -0.359375q-0.78125 0 -1.34375 0.375q-0.546875 0.375 -0.921875 1.03125q-0.359375 0.640625 -0.53125 1.515625q-0.171875 0.859375 -0.171875 1.828125q0 1.078125 0.15625 1.96875q0.171875 0.875 0.53125 1.515625q0.359375 0.640625 0.921875 1.0q0.5625 0.34375 1.359375 0.34375q0.78125 0 1.34375 -0.375q0.578125 -0.375 0.9375 -1.015625q0.375 -0.65625 0.546875 -1.515625q0.171875 -0.859375 0.171875 -1.84375zm11.476044 1.1875q0 1.15625 -0.328125 2.078125q-0.3125 0.90625 -0.90625 1.546875q-0.578125 0.640625 -1.421875 0.984375q-0.84375 0.328125 -1.90625 0.328125q-0.828125 0 -1.6875 -0.15625q-0.859375 -0.15625 -1.703125 -0.5l0 -12.5625l1.609375 0l0 3.609375l-0.0625 1.71875q0.6875 -0.9375 1.484375 -1.3125q0.796875 -0.390625 1.703125 -0.390625q0.796875 0 1.390625 0.34375q0.609375 0.328125 1.015625 0.9375q0.40625 0.609375 0.609375 1.46875q0.203125 0.859375 0.203125 1.90625zm-1.640625 0.078125q0 -0.734375 -0.109375 -1.34375q-0.109375 -0.609375 -0.34375 -1.046875q-0.234375 -0.4375 -0.59375 -0.6875q-0.359375 -0.25 -0.859375 -0.25q-0.3125 0 -0.625 0.109375q-0.3125 0.09375 -0.65625 0.328125q-0.328125 0.21875 -0.703125 0.59375q-0.375 0.375 -0.8125 0.9375l0 4.515625q0.484375 0.1875 0.96875 0.296875q0.5 0.09375 0.9375 0.09375q0.5625 0 1.0625 -0.171875q0.5 -0.171875 0.890625 -0.578125q0.390625 -0.421875 0.609375 -1.09375q0.234375 -0.6875 0.234375 -1.703125zm10.257294 -4.5625l0 9.140625q0 0.984375 -0.28125 1.734375q-0.28125 0.75 -0.796875 1.265625q-0.515625 0.53125 -1.28125 0.796875q-0.75 0.265625 -1.703125 0.265625q-0.6875 0 -1.34375 -0.125q-0.640625 -0.125 -1.171875 -0.34375l0 -1.53125q0.28125 0.140625 0.609375 0.25q0.328125 0.125 0.671875 0.203125q0.359375 0.09375 0.703125 0.140625q0.359375 0.046875 0.6875 0.046875q1.0625 0 1.65625 -0.671875q0.609375 -0.671875 0.609375 -1.96875l0 -7.875l-4.5625 0l0 -1.328125l6.203125 0zm-0.984375 -3.90625q0.28125 0 0.5 0.09375q0.234375 0.09375 0.40625 0.28125q0.171875 0.171875 0.265625 0.40625q0.109375 0.234375 0.109375 0.484375q0 0.265625 -0.109375 0.5q-0.09375 0.234375 -0.265625 0.40625q-0.171875 0.171875 -0.40625 0.28125q-0.21875 0.09375 -0.5 0.09375q-0.265625 0 -0.5 -0.09375q-0.21875 -0.109375 -0.390625 -0.28125q-0.171875 -0.171875 -0.28125 -0.40625q-0.09375 -0.234375 -0.09375 -0.5q0 -0.25 0.09375 -0.484375q0.109375 -0.234375 0.28125 -0.40625q0.171875 -0.1875 0.390625 -0.28125q0.234375 -0.09375 0.5 -0.09375zm12.804169 8.0625q0 0.34375 -0.015625 0.578125q-0.015625 0.234375 -0.03125 0.4375l-6.53125 0q0 1.4375 0.796875 2.203125q0.796875 0.765625 2.296875 0.765625q0.40625 0 0.8125 -0.03125q0.40625 -0.046875 0.78125 -0.09375q0.390625 -0.0625 0.734375 -0.125q0.34375 -0.078125 0.640625 -0.15625l0 1.328125q-0.65625 0.1875 -1.484375 0.296875q-0.828125 0.125 -1.71875 0.125q-1.203125 0 -2.0625 -0.328125q-0.859375 -0.328125 -1.421875 -0.9375q-0.546875 -0.625 -0.8125 -1.515625q-0.265625 -0.890625 -0.265625 -2.03125q0 -0.984375 0.28125 -1.859375q0.296875 -0.875 0.828125 -1.53125q0.546875 -0.671875 1.328125 -1.0625q0.796875 -0.390625 1.796875 -0.390625q0.984375 0 1.734375 0.3125q0.75 0.296875 1.265625 0.859375q0.515625 0.5625 0.78125 1.375q0.265625 0.796875 0.265625 1.78125zm-1.6875 -0.21875q0.03125 -0.625 -0.125 -1.140625q-0.140625 -0.515625 -0.453125 -0.890625q-0.3125 -0.375 -0.78125 -0.578125q-0.453125 -0.203125 -1.078125 -0.203125q-0.515625 0 -0.953125 0.203125q-0.4375 0.203125 -0.765625 0.578125q-0.3125 0.359375 -0.5 0.890625q-0.1875 0.515625 -0.234375 1.140625l4.890625 0zm11.304169 5.03125q-0.625 0.234375 -1.296875 0.34375q-0.65625 0.125 -1.359375 0.125q-2.21875 0 -3.40625 -1.1875q-1.1875 -1.203125 -1.1875 -3.5q0 -1.109375 0.34375 -2.0q0.34375 -0.90625 0.953125 -1.546875q0.625 -0.640625 1.484375 -0.984375q0.875 -0.34375 1.90625 -0.34375q0.734375 0 1.359375 0.109375q0.625 0.09375 1.203125 0.3125l0 1.546875q-0.59375 -0.3125 -1.234375 -0.453125q-0.625 -0.15625 -1.28125 -0.15625q-0.625 0 -1.1875 0.25q-0.546875 0.234375 -0.96875 0.6875q-0.40625 0.4375 -0.65625 1.078125q-0.234375 0.640625 -0.234375 1.4375q0 1.6875 0.8125 2.53125q0.828125 0.84375 2.28125 0.84375q0.65625 0 1.265625 -0.140625q0.625 -0.15625 1.203125 -0.453125l0 1.5zm10.522919 0.21875q-0.546875 0.140625 -1.125 0.1875q-0.578125 0.0625 -1.1875 0.0625q-1.75 0 -2.625 -0.78125q-0.859375 -0.796875 -0.859375 -2.4375l0 -4.859375l-2.609375 0l0 -1.359375l2.609375 0l0 -2.5625l1.625 -0.421875l0 2.984375l4.171875 0l0 1.359375l-4.171875 0l0 4.71875q0 1.0 0.53125 1.5q0.53125 0.5 1.5625 0.5q0.453125 0 0.984375 -0.0625q0.53125 -0.078125 1.09375 -0.21875l0 1.390625zm5.6635437 -10.609375l-2.796875 0l0 -1.390625l7.25 0l0 1.390625l-2.78125 0l0 9.328125l2.78125 0l0 1.40625l-7.25 0l0 -1.40625l2.796875 0l0 -9.328125zm6.8822937 6.265625q0 -1.1875 0.3125 -2.109375q0.328125 -0.921875 0.921875 -1.546875q0.609375 -0.640625 1.4375 -0.96875q0.84375 -0.328125 1.875 -0.328125q0.453125 0 0.875 0.0625q0.4375 0.046875 0.859375 0.171875l0 -3.921875l1.625 0l0 13.109375l-1.453125 0l-0.0625 -1.765625q-0.671875 0.984375 -1.46875 1.46875q-0.78125 0.46875 -1.703125 0.46875q-0.796875 0 -1.40625 -0.328125q-0.59375 -0.34375 -1.0 -0.953125q-0.40625 -0.609375 -0.609375 -1.453125q-0.203125 -0.859375 -0.203125 -1.90625zm1.640625 -0.09375q0 1.6875 0.5 2.515625q0.5 0.828125 1.40625 0.828125q0.609375 0 1.296875 -0.546875q0.6875 -0.546875 1.4375 -1.625l0 -4.3125q-0.40625 -0.1875 -0.890625 -0.28125q-0.484375 -0.109375 -0.953125 -0.109375q-1.3125 0 -2.0625 0.859375q-0.734375 0.84375 -0.734375 2.671875z" fill-rule="nonzero"></path><path fill="#000000" d="m32.815506 104.795q-0.546875 0.140625 -1.125 0.1875q-0.578125 0.0625 -1.1875 0.0625q-1.75 0 -2.625 -0.78125q-0.859375 -0.796875 -0.859375 -2.4375l0 -4.859375l-2.609375 0l0 -1.359375l2.609375 0l0 -2.5625l1.625 -0.421875l0 2.984375l4.171875 0l0 1.359375l-4.171875 0l0 4.71875q0 1.0 0.53125 1.5q0.53125 0.5 1.5625 0.5q0.453125 0 0.984375 -0.0625q0.53125 -0.078125 1.09375 -0.21875l0 1.390625zm5.9291687 -7.859375l-2.75 0l0 -1.328125l4.390625 0l0 7.96875l2.765625 0l0 1.34375l-7.46875 0l0 -1.34375l3.0625 0l0 -6.640625zm0.5625 -5.234375q0.28125 0 0.5 0.09375q0.234375 0.09375 0.40625 0.28125q0.171875 0.171875 0.265625 0.40625q0.109375 0.21875 0.109375 0.484375q0 0.265625 -0.109375 0.5q-0.09375 0.234375 -0.265625 0.40625q-0.171875 0.171875 -0.40625 0.28125q-0.21875 0.09375 -0.5 0.09375q-0.265625 0 -0.5 -0.09375q-0.234375 -0.109375 -0.40625 -0.28125q-0.171875 -0.171875 -0.265625 -0.40625q-0.09375 -0.234375 -0.09375 -0.5q0 -0.265625 0.09375 -0.484375q0.09375 -0.234375 0.265625 -0.40625q0.171875 -0.1875 0.40625 -0.28125q0.234375 -0.09375 0.5 -0.09375zm14.022919 13.09375q-0.546875 0.140625 -1.125 0.1875q-0.578125 0.0625 -1.1875 0.0625q-1.75 0 -2.625 -0.78125q-0.859375 -0.796875 -0.859375 -2.4375l0 -4.859375l-2.609375 0l0 -1.359375l2.609375 0l0 -2.5625l1.625 -0.421875l0 2.984375l4.171875 0l0 1.359375l-4.171875 0l0 4.71875q0 1.0 0.53125 1.5q0.53125 0.5 1.5625 0.5q0.453125 0 0.984375 -0.0625q0.53125 -0.078125 1.09375 -0.21875l0 1.390625zm5.9291687 -11.65625l-2.75 0l0 -1.328125l4.390625 0l0 11.765625l2.765625 0l0 1.34375l-7.46875 0l0 -1.34375l3.0625 0l0 -10.4375zm14.960419 6.625q0 0.34375 -0.015625 0.578125q-0.015625 0.234375 -0.03125 0.4375l-6.53125 0q0 1.4375 0.796875 2.203125q0.796875 0.765625 2.296875 0.765625q0.40625 0 0.8125 -0.03125q0.40625 -0.046875 0.78125 -0.09375q0.390625 -0.0625 0.734375 -0.125q0.34375 -0.078125 0.640625 -0.15625l0 1.328125q-0.65625 0.1875 -1.484375 0.296875q-0.828125 0.125 -1.71875 0.125q-1.203125 0 -2.0625 -0.328125q-0.859375 -0.328125 -1.421875 -0.9375q-0.546875 -0.625 -0.8125 -1.515625q-0.265625 -0.890625 -0.265625 -2.03125q0 -0.984375 0.28125 -1.859375q0.296875 -0.875 0.828125 -1.53125q0.546875 -0.671875 1.328125 -1.0625q0.796875 -0.390625 1.796875 -0.390625q0.984375 0 1.734375 0.3125q0.75 0.296875 1.265625 0.859375q0.515625 0.5625 0.78125 1.375q0.265625 0.796875 0.265625 1.78125zm-1.6875 -0.21875q0.03125 -0.625 -0.125 -1.140625q-0.140625 -0.515625 -0.453125 -0.890625q-0.3125 -0.375 -0.78125 -0.578125q-0.453125 -0.203125 -1.078125 -0.203125q-0.515625 0 -0.953125 0.203125q-0.4375 0.203125 -0.765625 0.578125q-0.3125 0.359375 -0.5 0.890625q-0.1875 0.515625 -0.234375 1.140625l4.890625 0zm7.8041687 -4.109375q0.296875 0 0.546875 0.125q0.265625 0.109375 0.453125 0.3125q0.203125 0.1875 0.3125 0.453125q0.125 0.25 0.125 0.546875q0 0.296875 -0.125 0.546875q-0.109375 0.25 -0.3125 0.453125q-0.1875 0.1875 -0.453125 0.296875q-0.25 0.109375 -0.546875 0.109375q-0.296875 0 -0.546875 -0.109375q-0.25 -0.109375 -0.453125 -0.296875q-0.1875 -0.203125 -0.3125 -0.453125q-0.109375 -0.25 -0.109375 -0.546875q0 -0.296875 0.109375 -0.546875q0.125 -0.265625 0.3125 -0.453125q0.203125 -0.203125 0.453125 -0.3125q0.25 -0.125 0.546875 -0.125zm0 6.796875q0.296875 0 0.546875 0.125q0.265625 0.109375 0.453125 0.3125q0.203125 0.1875 0.3125 0.453125q0.125 0.25 0.125 0.546875q0 0.296875 -0.125 0.546875q-0.109375 0.25 -0.3125 0.453125q-0.1875 0.1875 -0.453125 0.296875q-0.25 0.125 -0.546875 0.125q-0.296875 0 -0.546875 -0.125q-0.25 -0.109375 -0.453125 -0.296875q-0.1875 -0.203125 -0.3125 -0.453125q-0.109375 -0.25 -0.109375 -0.546875q0 -0.296875 0.109375 -0.546875q0.125 -0.265625 0.3125 -0.453125q0.203125 -0.203125 0.453125 -0.3125q0.25 -0.125 0.546875 -0.125zm24.155212 0.140625q0 0.5 -0.171875 0.890625q-0.15625 0.390625 -0.453125 0.6875q-0.28125 0.296875 -0.671875 0.515625q-0.375 0.21875 -0.8125 0.359375q-0.421875 0.125 -0.875 0.1875q-0.453125 0.078125 -0.890625 0.078125q-0.953125 0 -1.75 -0.09375q-0.78125 -0.078125 -1.546875 -0.265625l0 -1.484375q0.8125 0.234375 1.625 0.359375q0.8125 0.109375 1.609375 0.109375q1.15625 0 1.703125 -0.3125q0.5625 -0.3125 0.5625 -0.890625q0 -0.25 -0.09375 -0.453125q-0.078125 -0.203125 -0.3125 -0.375q-0.234375 -0.1875 -0.71875 -0.375q-0.484375 -0.203125 -1.328125 -0.453125q-0.640625 -0.1875 -1.171875 -0.421875q-0.53125 -0.234375 -0.921875 -0.5625q-0.390625 -0.328125 -0.609375 -0.765625q-0.21875 -0.4375 -0.21875 -1.03125q0 -0.390625 0.171875 -0.84375q0.1875 -0.46875 0.625 -0.859375q0.4375 -0.40625 1.171875 -0.671875q0.75 -0.265625 1.859375 -0.265625q0.546875 0 1.21875 0.0625q0.671875 0.0625 1.390625 0.203125l0 1.4375q-0.765625 -0.171875 -1.453125 -0.265625q-0.671875 -0.09375 -1.171875 -0.09375q-0.609375 0 -1.03125 0.09375q-0.40625 0.09375 -0.65625 0.265625q-0.25 0.15625 -0.375 0.375q-0.109375 0.21875 -0.109375 0.46875q0 0.25 0.09375 0.453125q0.109375 0.203125 0.375 0.390625q0.265625 0.1875 0.734375 0.390625q0.46875 0.1875 1.234375 0.40625q0.828125 0.234375 1.390625 0.5q0.5625 0.265625 0.90625 0.59375q0.359375 0.328125 0.515625 0.734375q0.15625 0.40625 0.15625 0.921875zm10.382294 2.421875q-0.546875 0.140625 -1.125 0.1875q-0.578125 0.0625 -1.1875 0.0625q-1.75 0 -2.625 -0.78125q-0.859375 -0.796875 -0.859375 -2.4375l0 -4.859375l-2.609375 0l0 -1.359375l2.609375 0l0 -2.5625l1.625 -0.421875l0 2.984375l4.171875 0l0 1.359375l-4.171875 0l0 4.71875q0 1.0 0.53125 1.5q0.53125 0.5 1.5625 0.5q0.453125 0 0.984375 -0.0625q0.53125 -0.078125 1.09375 -0.21875l0 1.390625zm3.1322937 -9.1875l1.484375 0l0.046875 1.71875q0.828125 -1.0 1.625 -1.4375q0.796875 -0.453125 1.625 -0.453125q1.4375 0 2.1875 0.9375q0.75 0.9375 0.6875 2.78125l-1.625 0q0.015625 -1.21875 -0.375 -1.765625q-0.375 -0.5625 -1.109375 -0.5625q-0.328125 0 -0.65625 0.125q-0.328125 0.109375 -0.6875 0.375q-0.34375 0.25 -0.734375 0.65625q-0.390625 0.390625 -0.828125 0.953125l0 5.984375l-1.640625 0l0 -9.3125zm13.054169 1.328125l-2.75 0l0 -1.328125l4.390625 0l0 7.96875l2.765625 0l0 1.34375l-7.46875 0l0 -1.34375l3.0625 0l0 -6.640625zm0.5625 -5.234375q0.28125 0 0.5 0.09375q0.234375 0.09375 0.40625 0.28125q0.171875 0.171875 0.265625 0.40625q0.109375 0.21875 0.109375 0.484375q0 0.265625 -0.109375 0.5q-0.09375 0.234375 -0.265625 0.40625q-0.171875 0.171875 -0.40625 0.28125q-0.21875 0.09375 -0.5 0.09375q-0.265625 0 -0.5 -0.09375q-0.234375 -0.109375 -0.40625 -0.28125q-0.171875 -0.171875 -0.265625 -0.40625q-0.09375 -0.234375 -0.09375 -0.5q0 -0.265625 0.09375 -0.484375q0.09375 -0.234375 0.265625 -0.40625q0.171875 -0.1875 0.40625 -0.28125q0.234375 -0.09375 0.5 -0.09375zm6.5229187 3.90625l1.4375 0l0.0625 1.5q0.40625 -0.484375 0.78125 -0.796875q0.390625 -0.328125 0.75 -0.515625q0.375 -0.203125 0.75 -0.28125q0.390625 -0.078125 0.796875 -0.078125q1.4375 0 2.171875 0.859375q0.734375 0.84375 0.734375 2.546875l0 6.078125l-1.609375 0l0 -5.953125q0 -1.09375 -0.40625 -1.609375q-0.40625 -0.53125 -1.21875 -0.53125q-0.296875 0 -0.578125 0.09375q-0.28125 0.09375 -0.59375 0.3125q-0.296875 0.203125 -0.65625 0.578125q-0.359375 0.375 -0.8125 0.9375l0 6.171875l-1.609375 0l0 -9.3125zm16.960419 1.3125q0.265625 0.328125 0.40625 0.765625q0.140625 0.421875 0.140625 0.921875q0 0.734375 -0.265625 1.328125q-0.265625 0.59375 -0.75 1.03125q-0.46875 0.421875 -1.140625 0.65625q-0.671875 0.234375 -1.484375 0.234375q-0.578125 0 -1.09375 -0.125q-0.515625 -0.125 -0.8125 -0.3125q-0.171875 0.265625 -0.296875 0.5q-0.109375 0.21875 -0.109375 0.515625q0 0.34375 0.328125 0.578125q0.34375 0.234375 0.90625 0.25l2.4375 0.09375q0.703125 0.015625 1.28125 0.1875q0.59375 0.15625 1.015625 0.453125q0.421875 0.296875 0.65625 0.734375q0.25 0.421875 0.25 1.0q0 0.625 -0.28125 1.171875q-0.265625 0.5625 -0.828125 0.984375q-0.5625 0.421875 -1.421875 0.671875q-0.859375 0.25 -2.046875 0.25q-1.140625 0 -1.9375 -0.1875q-0.78125 -0.171875 -1.296875 -0.5q-0.5 -0.3125 -0.734375 -0.75q-0.234375 -0.4375 -0.234375 -0.96875q0 -0.671875 0.3125 -1.1875q0.3125 -0.515625 0.96875 -0.984375q-0.234375 -0.109375 -0.421875 -0.265625q-0.171875 -0.171875 -0.28125 -0.375q-0.109375 -0.203125 -0.171875 -0.421875q-0.046875 -0.21875 -0.046875 -0.4375q0 -0.609375 0.28125 -1.109375q0.28125 -0.5 0.671875 -0.9375q-0.171875 -0.21875 -0.3125 -0.421875q-0.125 -0.203125 -0.234375 -0.4375q-0.09375 -0.234375 -0.140625 -0.5q-0.046875 -0.28125 -0.046875 -0.640625q0 -0.71875 0.25 -1.3125q0.265625 -0.609375 0.75 -1.03125q0.484375 -0.4375 1.15625 -0.671875q0.671875 -0.234375 1.484375 -0.234375q0.34375 0 0.65625 0.046875q0.3125 0.046875 0.5625 0.125l3.375 0l0 1.3125l-1.5 0zm-5.59375 9.34375q0 0.65625 0.6875 0.953125q0.6875 0.3125 1.90625 0.3125q0.765625 0 1.28125 -0.140625q0.53125 -0.140625 0.84375 -0.375q0.328125 -0.21875 0.46875 -0.515625q0.140625 -0.28125 0.140625 -0.59375q0 -0.5625 -0.46875 -0.84375q-0.453125 -0.265625 -1.40625 -0.3125l-2.4375 -0.078125q-0.3125 0.203125 -0.515625 0.390625q-0.1875 0.203125 -0.296875 0.40625q-0.109375 0.203125 -0.15625 0.390625q-0.046875 0.203125 -0.046875 0.40625zm0.484375 -7.609375q0 0.4375 0.140625 0.8125q0.15625 0.375 0.421875 0.640625q0.28125 0.25 0.640625 0.390625q0.359375 0.140625 0.8125 0.140625q0.484375 0 0.859375 -0.15625q0.375 -0.171875 0.625 -0.4375q0.265625 -0.28125 0.390625 -0.640625q0.140625 -0.359375 0.140625 -0.75q0 -0.453125 -0.15625 -0.8125q-0.140625 -0.375 -0.421875 -0.640625q-0.265625 -0.265625 -0.640625 -0.40625q-0.359375 -0.140625 -0.796875 -0.140625q-0.484375 0 -0.859375 0.171875q-0.375 0.15625 -0.640625 0.4375q-0.25 0.265625 -0.390625 0.640625q-0.125 0.359375 -0.125 0.75z" fill-rule="nonzero"></path><path fill="#000000" d="m28.987381 123.99812q0.3125 0 0.59375 0.125q0.28125 0.109375 0.484375 0.328125q0.21875 0.21875 0.328125 0.5q0.125 0.28125 0.125 0.609375q0 0.3125 -0.125 0.59375q-0.109375 0.28125 -0.328125 0.484375q-0.203125 0.203125 -0.484375 0.328125q-0.28125 0.125 -0.59375 0.125q-0.328125 0 -0.609375 -0.125q-0.28125 -0.125 -0.5 -0.328125q-0.203125 -0.203125 -0.328125 -0.484375q-0.109375 -0.28125 -0.109375 -0.59375q0 -0.328125 0.109375 -0.609375q0.125 -0.28125 0.328125 -0.5q0.21875 -0.21875 0.5 -0.328125q0.28125 -0.125 0.609375 -0.125zm10.257294 0q0.3125 0 0.59375 0.125q0.28125 0.109375 0.484375 0.328125q0.21875 0.21875 0.328125 0.5q0.125 0.28125 0.125 0.609375q0 0.3125 -0.125 0.59375q-0.109375 0.28125 -0.328125 0.484375q-0.203125 0.203125 -0.484375 0.328125q-0.28125 0.125 -0.59375 0.125q-0.328125 0 -0.609375 -0.125q-0.28125 -0.125 -0.5 -0.328125q-0.203125 -0.203125 -0.328125 -0.484375q-0.109375 -0.28125 -0.109375 -0.59375q0 -0.328125 0.109375 -0.609375q0.125 -0.28125 0.328125 -0.5q0.21875 -0.21875 0.5 -0.328125q0.28125 -0.125 0.609375 -0.125zm10.257294 0q0.3125 0 0.59375 0.125q0.28125 0.109375 0.484375 0.328125q0.21875 0.21875 0.328125 0.5q0.125 0.28125 0.125 0.609375q0 0.3125 -0.125 0.59375q-0.109375 0.28125 -0.328125 0.484375q-0.203125 0.203125 -0.484375 0.328125q-0.28125 0.125 -0.59375 0.125q-0.328125 0 -0.609375 -0.125q-0.28125 -0.125 -0.5 -0.328125q-0.203125 -0.203125 -0.328125 -0.484375q-0.109375 -0.28125 -0.109375 -0.59375q0 -0.328125 0.109375 -0.609375q0.125 -0.28125 0.328125 -0.5q0.21875 -0.21875 0.5 -0.328125q0.28125 -0.125 0.609375 -0.125z" fill-rule="nonzero"></path><path fill="#000000" fill-opacity="0.0" d="m14.831131 15.994909l289.18195 0l0 39.99118l-289.18195 0z" fill-rule="evenodd"></path><path stroke="#000000" stroke-width="3.0" stroke-linejoin="round" stroke-linecap="butt" d="m14.831131 15.994909l289.18195 0l0 39.99118l-289.18195 0z" fill-rule="evenodd"></path><path fill="#000000" d="m31.956131 42.906086l0 -6.6875q0 -0.4375 -0.03125 -0.71875q-0.03125 -0.28125 -0.109375 -0.4375q-0.0625 -0.15625 -0.171875 -0.21875q-0.109375 -0.078125 -0.265625 -0.078125q-0.1875 0 -0.34375 0.125q-0.15625 0.109375 -0.34375 0.359375q-0.171875 0.25 -0.390625 0.65625q-0.21875 0.40625 -0.515625 1.015625l0 5.984375l-1.46875 0l0 -6.515625q0 -0.5 -0.03125 -0.8125q-0.03125 -0.328125 -0.109375 -0.5q-0.0625 -0.171875 -0.1875 -0.234375q-0.109375 -0.078125 -0.265625 -0.078125q-0.15625 0 -0.3125 0.09375q-0.140625 0.09375 -0.328125 0.34375q-0.171875 0.234375 -0.40625 0.65625q-0.21875 0.40625 -0.53125 1.0625l0 5.984375l-1.484375 0l0 -9.3125l1.234375 0l0.078125 1.765625q0.25 -0.53125 0.46875 -0.890625q0.234375 -0.375 0.46875 -0.59375q0.25 -0.234375 0.515625 -0.34375q0.28125 -0.109375 0.609375 -0.109375q0.75 0 1.140625 0.5q0.390625 0.484375 0.390625 1.515625q0.21875 -0.484375 0.4375 -0.859375q0.21875 -0.375 0.453125 -0.625q0.25 -0.265625 0.546875 -0.390625q0.296875 -0.140625 0.6875 -0.140625q1.75 0 1.75 2.703125l0 6.78125l-1.484375 0zm11.726044 -4.734375q0 1.09375 -0.3125 2.0q-0.296875 0.890625 -0.875 1.546875q-0.578125 0.640625 -1.40625 1.0q-0.828125 0.359375 -1.875 0.359375q-1.0 0 -1.796875 -0.3125q-0.78125 -0.3125 -1.34375 -0.90625q-0.546875 -0.609375 -0.84375 -1.5q-0.28125 -0.890625 -0.28125 -2.0625q0 -1.078125 0.296875 -1.96875q0.3125 -0.90625 0.875 -1.546875q0.578125 -0.640625 1.40625 -1.0q0.828125 -0.359375 1.875 -0.359375q1.0 0 1.796875 0.3125q0.796875 0.3125 1.34375 0.921875q0.5625 0.59375 0.84375 1.484375q0.296875 0.890625 0.296875 2.03125zm-1.65625 0.078125q0 -0.859375 -0.1875 -1.5q-0.1875 -0.65625 -0.546875 -1.078125q-0.34375 -0.4375 -0.859375 -0.65625q-0.5 -0.21875 -1.125 -0.21875q-0.71875 0 -1.234375 0.28125q-0.515625 0.28125 -0.84375 0.765625q-0.328125 0.46875 -0.484375 1.09375q-0.15625 0.625 -0.15625 1.3125q0 0.859375 0.1875 1.515625q0.203125 0.640625 0.546875 1.078125q0.359375 0.421875 0.859375 0.640625q0.5 0.21875 1.125 0.21875q0.734375 0 1.25 -0.28125q0.515625 -0.28125 0.84375 -0.75q0.328125 -0.46875 0.46875 -1.09375q0.15625 -0.640625 0.15625 -1.328125zm2.9291687 -4.65625l1.84375 0l2.28125 6.15625l0.484375 1.5l0.515625 -1.53125l2.265625 -6.125l1.765625 0l-3.65625 9.3125l-1.84375 0l-3.65625 -9.3125zm14.304169 1.328125l-2.75 0l0 -1.328125l4.390625 0l0 7.96875l2.765625 0l0 1.34375l-7.46875 0l0 -1.34375l3.0625 0l0 -6.640625zm0.5625 -5.234373q0.28125 0 0.5 0.09375q0.234375 0.09375 0.40625 0.28125q0.171875 0.171875 0.265625 0.40625q0.109375 0.21875 0.109375 0.484375q0 0.265625 -0.109375 0.5q-0.09375 0.234375 -0.265625 0.40625q-0.171875 0.1718731 -0.40625 0.2812481q-0.21875 0.09375 -0.5 0.09375q-0.265625 0 -0.5 -0.09375q-0.234375 -0.109375 -0.40625 -0.2812481q-0.171875 -0.171875 -0.265625 -0.40625q-0.09375 -0.234375 -0.09375 -0.5q0 -0.265625 0.09375 -0.484375q0.09375 -0.234375 0.265625 -0.40625q0.171875 -0.1875 0.40625 -0.28125q0.234375 -0.09375 0.5 -0.09375zm14.397919 8.062498q0 0.34375 -0.015625 0.578125q-0.015625 0.234375 -0.03125 0.4375l-6.53125 0q0 1.4375 0.796875 2.203125q0.796875 0.765625 2.296875 0.765625q0.40625 0 0.8125 -0.03125q0.40625 -0.046875 0.78125 -0.09375q0.390625 -0.0625 0.734375 -0.125q0.34375 -0.078125 0.640625 -0.15625l0 1.328125q-0.65625 0.1875 -1.484375 0.296875q-0.828125 0.125 -1.71875 0.125q-1.203125 0 -2.0625 -0.328125q-0.859375 -0.328125 -1.421875 -0.9375q-0.546875 -0.625 -0.8125 -1.515625q-0.265625 -0.890625 -0.265625 -2.03125q0 -0.984375 0.28125 -1.859375q0.296875 -0.875 0.828125 -1.53125q0.546875 -0.671875 1.328125 -1.0625q0.796875 -0.390625 1.796875 -0.390625q0.984375 0 1.734375 0.3125q0.75 0.296875 1.265625 0.859375q0.515625 0.5625 0.78125 1.375q0.265625 0.796875 0.265625 1.78125zm-1.6875 -0.21875q0.03125 -0.625 -0.125 -1.140625q-0.140625 -0.515625 -0.453125 -0.890625q-0.3125 -0.375 -0.78125 -0.578125q-0.453125 -0.203125 -1.078125 -0.203125q-0.515625 0 -0.953125 0.203125q-0.4375 0.203125 -0.765625 0.578125q-0.3125 0.359375 -0.5 0.890625q-0.1875 0.515625 -0.234375 1.140625l4.890625 0z" fill-rule="nonzero"></path><path fill="#000000" fill-opacity="0.0" d="m476.15747 84.17307l235.84253 0l0 356.6614l-235.84253 0z" fill-rule="evenodd"></path><path fill="#000000" fill-opacity="0.0" d="m408.00763 56.00501l296.01367 0l0 424.0176l-296.01367 0z" fill-rule="evenodd"></path><path stroke="#000000" stroke-width="3.0" stroke-linejoin="round" stroke-linecap="butt" d="m408.00763 56.00501l296.01367 0l0 424.0176l-296.01367 0z" fill-rule="evenodd"></path><path fill="#000000" d="m427.46075 86.72188l-10.453125 0l0 -1.328125l10.453125 0l0 1.328125zm4.4604187 -11.78125l-2.75 0l0 -1.328125l4.390625 0l0 7.96875l2.765625 0l0 1.34375l-7.46875 0l0 -1.34375l3.0625 0l0 -6.640625zm0.5625 -5.234375q0.28125 0 0.5 0.09375q0.234375 0.09375 0.40625 0.28125q0.171875 0.171875 0.265625 0.40625q0.109375 0.21875 0.109375 0.484375q0 0.265625 -0.109375 0.5q-0.09375 0.234375 -0.265625 0.40625q-0.171875 0.171875 -0.40625 0.28125q-0.21875 0.09375 -0.5 0.09375q-0.265625 0 -0.5 -0.09375q-0.234375 -0.109375 -0.40625 -0.28125q-0.171875 -0.171875 -0.265625 -0.40625q-0.09375 -0.234375 -0.09375 -0.5q0 -0.265625 0.09375 -0.484375q0.09375 -0.234375 0.265625 -0.40625q0.171875 -0.1875 0.40625 -0.28125q0.234375 -0.09375 0.5 -0.09375zm6.0541687 8.75q0 -1.1875 0.3125 -2.109375q0.328125 -0.921875 0.921875 -1.546875q0.609375 -0.640625 1.4375 -0.96875q0.84375 -0.328125 1.875 -0.328125q0.453125 0 0.875 0.0625q0.4375 0.046875 0.859375 0.171875l0 -3.921875l1.625 0l0 13.109375l-1.453125 0l-0.0625 -1.765625q-0.671875 0.984375 -1.46875 1.46875q-0.78125 0.46875 -1.703125 0.46875q-0.796875 0 -1.40625 -0.328125q-0.59375 -0.34375 -1.0 -0.953125q-0.40625 -0.609375 -0.609375 -1.453125q-0.203125 -0.859375 -0.203125 -1.90625zm1.640625 -0.09375q0 1.6875 0.5 2.515625q0.5 0.828125 1.40625 0.828125q0.609375 0 1.296875 -0.546875q0.6875 -0.546875 1.4375 -1.625l0 -4.3125q-0.40625 -0.1875 -0.890625 -0.28125q-0.484375 -0.109375 -0.953125 -0.109375q-1.3125 0 -2.0625 0.859375q-0.734375 0.84375 -0.734375 2.671875zm12.819794 -4.921875q0.296875 0 0.546875 0.125q0.265625 0.109375 0.453125 0.3125q0.203125 0.1875 0.3125 0.453125q0.125 0.25 0.125 0.546875q0 0.296875 -0.125 0.546875q-0.109375 0.25 -0.3125 0.453125q-0.1875 0.1875 -0.453125 0.296875q-0.25 0.109375 -0.546875 0.109375q-0.296875 0 -0.546875 -0.109375q-0.25 -0.109375 -0.453125 -0.296875q-0.1875 -0.203125 -0.3125 -0.453125q-0.109375 -0.25 -0.109375 -0.546875q0 -0.296875 0.109375 -0.546875q0.125 -0.265625 0.3125 -0.453125q0.203125 -0.203125 0.453125 -0.3125q0.25 -0.125 0.546875 -0.125zm0 6.796875q0.296875 0 0.546875 0.125q0.265625 0.109375 0.453125 0.3125q0.203125 0.1875 0.3125 0.453125q0.125 0.25 0.125 0.546875q0 0.296875 -0.125 0.546875q-0.109375 0.25 -0.3125 0.453125q-0.1875 0.1875 -0.453125 0.296875q-0.25 0.125 -0.546875 0.125q-0.296875 0 -0.546875 -0.125q-0.25 -0.109375 -0.453125 -0.296875q-0.1875 -0.203125 -0.3125 -0.453125q-0.109375 -0.25 -0.109375 -0.546875q0 -0.296875 0.109375 -0.546875q0.125 -0.265625 0.3125 -0.453125q0.203125 -0.203125 0.453125 -0.3125q0.25 -0.125 0.546875 -0.125zm25.233337 -3.453125q0 1.625 -0.390625 2.8125q-0.375 1.1875 -1.03125 1.96875q-0.65625 0.78125 -1.53125 1.15625q-0.875 0.375 -1.859375 0.375q-1.15625 0 -2.03125 -0.421875q-0.859375 -0.421875 -1.4375 -1.21875q-0.578125 -0.796875 -0.859375 -1.9375q-0.265625 -1.15625 -0.265625 -2.59375q0 -1.609375 0.375 -2.796875q0.390625 -1.1875 1.03125 -1.96875q0.65625 -0.78125 1.53125 -1.15625q0.875 -0.375 1.84375 -0.375q1.171875 0 2.03125 0.4375q0.875 0.421875 1.453125 1.21875q0.578125 0.78125 0.859375 1.921875q0.28125 1.140625 0.28125 2.578125zm-1.71875 0.125q0 -1.078125 -0.171875 -1.953125q-0.15625 -0.890625 -0.515625 -1.53125q-0.359375 -0.640625 -0.9375 -0.984375q-0.5625 -0.359375 -1.375 -0.359375q-0.78125 0 -1.34375 0.375q-0.546875 0.375 -0.921875 1.03125q-0.359375 0.640625 -0.53125 1.515625q-0.171875 0.859375 -0.171875 1.828125q0 1.078125 0.15625 1.96875q0.171875 0.875 0.53125 1.515625q0.359375 0.640625 0.921875 1.0q0.5625 0.34375 1.359375 0.34375q0.78125 0 1.34375 -0.375q0.578125 -0.375 0.9375 -1.015625q0.375 -0.65625 0.546875 -1.515625q0.171875 -0.859375 0.171875 -1.84375zm11.476044 1.1875q0 1.15625 -0.328125 2.078125q-0.3125 0.90625 -0.90625 1.546875q-0.578125 0.640625 -1.421875 0.984375q-0.84375 0.328125 -1.90625 0.328125q-0.828125 0 -1.6875 -0.15625q-0.859375 -0.15625 -1.703125 -0.5l0 -12.5625l1.609375 0l0 3.609375l-0.0625 1.71875q0.6875 -0.9375 1.484375 -1.3125q0.796875 -0.390625 1.703125 -0.390625q0.796875 0 1.390625 0.34375q0.609375 0.328125 1.015625 0.9375q0.40625 0.609375 0.609375 1.46875q0.203125 0.859375 0.203125 1.90625zm-1.640625 0.078125q0 -0.734375 -0.109375 -1.34375q-0.109375 -0.609375 -0.34375 -1.046875q-0.234375 -0.4375 -0.59375 -0.6875q-0.359375 -0.25 -0.859375 -0.25q-0.3125 0 -0.625 0.109375q-0.3125 0.09375 -0.65625 0.328125q-0.328125 0.21875 -0.703125 0.59375q-0.375 0.375 -0.8125 0.9375l0 4.515625q0.484375 0.1875 0.96875 0.296875q0.5 0.09375 0.9375 0.09375q0.5625 0 1.0625 -0.171875q0.5 -0.171875 0.890625 -0.578125q0.390625 -0.421875 0.609375 -1.09375q0.234375 -0.6875 0.234375 -1.703125zm10.257294 -4.5625l0 9.140625q0 0.984375 -0.28125 1.734375q-0.28125 0.75 -0.796875 1.265625q-0.515625 0.53125 -1.28125 0.796875q-0.75 0.265625 -1.703125 0.265625q-0.6875 0 -1.34375 -0.125q-0.640625 -0.125 -1.171875 -0.34375l0 -1.53125q0.28125 0.140625 0.609375 0.25q0.328125 0.125 0.671875 0.203125q0.359375 0.09375 0.703125 0.140625q0.359375 0.046875 0.6875 0.046875q1.0625 0 1.65625 -0.671875q0.609375 -0.671875 0.609375 -1.96875l0 -7.875l-4.5625 0l0 -1.328125l6.203125 0zm-0.984375 -3.90625q0.28125 0 0.5 0.09375q0.234375 0.09375 0.40625 0.28125q0.171875 0.171875 0.265625 0.40625q0.109375 0.234375 0.109375 0.484375q0 0.265625 -0.109375 0.5q-0.09375 0.234375 -0.265625 0.40625q-0.171875 0.171875 -0.40625 0.28125q-0.21875 0.09375 -0.5 0.09375q-0.265625 0 -0.5 -0.09375q-0.21875 -0.109375 -0.390625 -0.28125q-0.171875 -0.171875 -0.28125 -0.40625q-0.09375 -0.234375 -0.09375 -0.5q0 -0.25 0.09375 -0.484375q0.109375 -0.234375 0.28125 -0.40625q0.171875 -0.1875 0.390625 -0.28125q0.234375 -0.09375 0.5 -0.09375zm12.804169 8.0625q0 0.34375 -0.015625 0.578125q-0.015625 0.234375 -0.03125 0.4375l-6.53125 0q0 1.4375 0.796875 2.203125q0.796875 0.765625 2.296875 0.765625q0.40625 0 0.8125 -0.03125q0.40625 -0.046875 0.78125 -0.09375q0.390625 -0.0625 0.734375 -0.125q0.34375 -0.078125 0.640625 -0.15625l0 1.328125q-0.65625 0.1875 -1.484375 0.296875q-0.828125 0.125 -1.71875 0.125q-1.203125 0 -2.0625 -0.328125q-0.859375 -0.328125 -1.421875 -0.9375q-0.546875 -0.625 -0.8125 -1.515625q-0.265625 -0.890625 -0.265625 -2.03125q0 -0.984375 0.28125 -1.859375q0.296875 -0.875 0.828125 -1.53125q0.546875 -0.671875 1.328125 -1.0625q0.796875 -0.390625 1.796875 -0.390625q0.984375 0 1.734375 0.3125q0.75 0.296875 1.265625 0.859375q0.515625 0.5625 0.78125 1.375q0.265625 0.796875 0.265625 1.78125zm-1.6875 -0.21875q0.03125 -0.625 -0.125 -1.140625q-0.140625 -0.515625 -0.453125 -0.890625q-0.3125 -0.375 -0.78125 -0.578125q-0.453125 -0.203125 -1.078125 -0.203125q-0.515625 0 -0.953125 0.203125q-0.4375 0.203125 -0.765625 0.578125q-0.3125 0.359375 -0.5 0.890625q-0.1875 0.515625 -0.234375 1.140625l4.890625 0zm11.304138 5.03125q-0.625 0.234375 -1.296875 0.34375q-0.65625 0.125 -1.359375 0.125q-2.21875 0 -3.4062195 -1.1875q-1.1875 -1.203125 -1.1875 -3.5q0 -1.109375 0.34375 -2.0q0.34375 -0.90625 0.9530945 -1.546875q0.625 -0.640625 1.484375 -0.984375q0.875 -0.34375 1.90625 -0.34375q0.734375 0 1.359375 0.109375q0.625 0.09375 1.203125 0.3125l0 1.546875q-0.59375 -0.3125 -1.234375 -0.453125q-0.625 -0.15625 -1.28125 -0.15625q-0.625 0 -1.1875 0.25q-0.546875 0.234375 -0.96875 0.6875q-0.40625 0.4375 -0.65625 1.078125q-0.234375 0.640625 -0.234375 1.4375q0 1.6875 0.8125 2.53125q0.828125 0.84375 2.28125 0.84375q0.65625 0 1.265625 -0.140625q0.625 -0.15625 1.203125 -0.453125l0 1.5zm10.522949 0.21875q-0.546875 0.140625 -1.125 0.1875q-0.578125 0.0625 -1.1875 0.0625q-1.75 0 -2.625 -0.78125q-0.859375 -0.796875 -0.859375 -2.4375l0 -4.859375l-2.609375 0l0 -1.359375l2.609375 0l0 -2.5625l1.625 -0.421875l0 2.984375l4.171875 0l0 1.359375l-4.171875 0l0 4.71875q0 1.0 0.53125 1.5q0.53125 0.5 1.5625 0.5q0.453125 0 0.984375 -0.0625q0.53125 -0.078125 1.09375 -0.21875l0 1.390625zm5.663513 -10.609375l-2.796875 0l0 -1.390625l7.25 0l0 1.390625l-2.78125 0l0 9.328125l2.78125 0l0 1.40625l-7.25 0l0 -1.40625l2.796875 0l0 -9.328125zm6.882324 6.265625q0 -1.1875 0.3125 -2.109375q0.328125 -0.921875 0.921875 -1.546875q0.609375 -0.640625 1.4375 -0.96875q0.84375 -0.328125 1.875 -0.328125q0.453125 0 0.875 0.0625q0.4375 0.046875 0.859375 0.171875l0 -3.921875l1.625 0l0 13.109375l-1.453125 0l-0.0625 -1.765625q-0.671875 0.984375 -1.46875 1.46875q-0.78125 0.46875 -1.703125 0.46875q-0.796875 0 -1.40625 -0.328125q-0.59375 -0.34375 -1.0 -0.953125q-0.40625 -0.609375 -0.609375 -1.453125q-0.203125 -0.859375 -0.203125 -1.90625zm1.640625 -0.09375q0 1.6875 0.5 2.515625q0.5 0.828125 1.40625 0.828125q0.609375 0 1.296875 -0.546875q0.6875 -0.546875 1.4375 -1.625l0 -4.3125q-0.40625 -0.1875 -0.890625 -0.28125q-0.484375 -0.109375 -0.953125 -0.109375q-1.3125 0 -2.0625 0.859375q-0.734375 0.84375 -0.734375 2.671875z" fill-rule="nonzero"></path><path fill="#000000" d="m418.492 95.6125l1.4375 0l0.0625 1.5q0.40625 -0.484375 0.78125 -0.796875q0.390625 -0.328125 0.75 -0.515625q0.375 -0.203125 0.75 -0.28125q0.390625 -0.078125 0.796875 -0.078125q1.4375 0 2.171875 0.859375q0.734375 0.84375 0.734375 2.546875l0 6.078125l-1.609375 0l0 -5.953125q0 -1.09375 -0.40625 -1.609375q-0.40625 -0.53125 -1.21875 -0.53125q-0.296875 0 -0.578125 0.09375q-0.28125 0.09375 -0.59375 0.3125q-0.296875 0.203125 -0.65625 0.578125q-0.359375 0.375 -0.8125 0.9375l0 6.171875l-1.609375 0l0 -9.3125zm16.241669 9.3125l-0.03125 -1.25q-0.765625 0.75 -1.546875 1.09375q-0.78125 0.328125 -1.65625 0.328125q-0.796875 0 -1.359375 -0.203125q-0.5625 -0.203125 -0.9375 -0.5625q-0.359375 -0.359375 -0.53125 -0.84375q-0.171875 -0.484375 -0.171875 -1.046875q0 -1.40625 1.046875 -2.1875q1.046875 -0.796875 3.078125 -0.796875l1.9375 0l0 -0.828125q0 -0.8125 -0.53125 -1.3125q-0.53125 -0.5 -1.609375 -0.5q-0.796875 0 -1.5625 0.1875q-0.765625 0.171875 -1.578125 0.484375l0 -1.453125q0.296875 -0.109375 0.671875 -0.21875q0.390625 -0.109375 0.796875 -0.1875q0.421875 -0.078125 0.875 -0.125q0.453125 -0.0625 0.921875 -0.0625q0.84375 0 1.515625 0.1875q0.6875 0.1875 1.15625 0.578125q0.46875 0.375 0.71875 0.953125q0.25 0.5625 0.25 1.34375l0 6.421875l-1.453125 0zm-0.171875 -4.234375l-2.0625 0q-0.59375 0 -1.03125 0.125q-0.4375 0.109375 -0.71875 0.34375q-0.28125 0.21875 -0.421875 0.53125q-0.125 0.296875 -0.125 0.6875q0 0.28125 0.078125 0.53125q0.09375 0.234375 0.28125 0.421875q0.1875 0.1875 0.484375 0.3125q0.296875 0.109375 0.71875 0.109375q0.5625 0 1.28125 -0.34375q0.71875 -0.34375 1.515625 -1.078125l0 -1.640625zm11.085419 4.234375l0 -6.6875q0 -0.4375 -0.03125 -0.71875q-0.03125 -0.28125 -0.109375 -0.4375q-0.0625 -0.15625 -0.171875 -0.21875q-0.109375 -0.078125 -0.265625 -0.078125q-0.1875 0 -0.34375 0.125q-0.15625 0.109375 -0.34375 0.359375q-0.171875 0.25 -0.390625 0.65625q-0.21875 0.40625 -0.515625 1.015625l0 5.984375l-1.46875 0l0 -6.515625q0 -0.5 -0.03125 -0.8125q-0.03125 -0.328125 -0.109375 -0.5q-0.0625 -0.171875 -0.1875 -0.234375q-0.109375 -0.078125 -0.265625 -0.078125q-0.15625 0 -0.3125 0.09375q-0.140625 0.09375 -0.328125 0.34375q-0.171875 0.234375 -0.40625 0.65625q-0.21875 0.40625 -0.53125 1.0625l0 5.984375l-1.484375 0l0 -9.3125l1.234375 0l0.078125 1.765625q0.25 -0.53125 0.46875 -0.890625q0.234375 -0.375 0.46875 -0.59375q0.25 -0.234375 0.515625 -0.34375q0.28125 -0.109375 0.609375 -0.109375q0.75 0 1.140625 0.5q0.390625 0.484375 0.390625 1.515625q0.21875 -0.484375 0.4375 -0.859375q0.21875 -0.375 0.453125 -0.625q0.25 -0.265625 0.546875 -0.390625q0.296875 -0.140625 0.6875 -0.140625q1.75 0 1.75 2.703125l0 6.78125l-1.484375 0zm11.491669 -5.15625q0 0.34375 -0.015625 0.578125q-0.015625 0.234375 -0.03125 0.4375l-6.53125 0q0 1.4375 0.796875 2.203125q0.796875 0.765625 2.296875 0.765625q0.40625 0 0.8125 -0.03125q0.40625 -0.046875 0.78125 -0.09375q0.390625 -0.0625 0.734375 -0.125q0.34375 -0.078125 0.640625 -0.15625l0 1.328125q-0.65625 0.1875 -1.484375 0.296875q-0.828125 0.125 -1.71875 0.125q-1.203125 0 -2.0625 -0.328125q-0.859375 -0.328125 -1.421875 -0.9375q-0.546875 -0.625 -0.8125 -1.515625q-0.265625 -0.890625 -0.265625 -2.03125q0 -0.984375 0.28125 -1.859375q0.296875 -0.875 0.828125 -1.53125q0.546875 -0.671875 1.328125 -1.0625q0.796875 -0.390625 1.796875 -0.390625q0.984375 0 1.734375 0.3125q0.75 0.296875 1.265625 0.859375q0.515625 0.5625 0.78125 1.375q0.265625 0.796875 0.265625 1.78125zm-1.6875 -0.21875q0.03125 -0.625 -0.125 -1.140625q-0.140625 -0.515625 -0.453125 -0.890625q-0.3125 -0.375 -0.78125 -0.578125q-0.453125 -0.203125 -1.078125 -0.203125q-0.515625 0 -0.953125 0.203125q-0.4375 0.203125 -0.765625 0.578125q-0.3125 0.359375 -0.5 0.890625q-0.1875 0.515625 -0.234375 1.140625l4.890625 0zm7.8041687 -4.109375q0.296875 0 0.546875 0.125q0.265625 0.109375 0.453125 0.3125q0.203125 0.1875 0.3125 0.453125q0.125 0.25 0.125 0.546875q0 0.296875 -0.125 0.546875q-0.109375 0.25 -0.3125 0.453125q-0.1875 0.1875 -0.453125 0.296875q-0.25 0.109375 -0.546875 0.109375q-0.296875 0 -0.546875 -0.109375q-0.25 -0.109375 -0.453125 -0.296875q-0.1875 -0.203125 -0.3125 -0.453125q-0.109375 -0.25 -0.109375 -0.546875q0 -0.296875 0.109375 -0.546875q0.125 -0.265625 0.3125 -0.453125q0.203125 -0.203125 0.453125 -0.3125q0.25 -0.125 0.546875 -0.125zm0 6.796875q0.296875 0 0.546875 0.125q0.265625 0.109375 0.453125 0.3125q0.203125 0.1875 0.3125 0.453125q0.125 0.25 0.125 0.546875q0 0.296875 -0.125 0.546875q-0.109375 0.25 -0.3125 0.453125q-0.1875 0.1875 -0.453125 0.296875q-0.25 0.125 -0.546875 0.125q-0.296875 0 -0.546875 -0.125q-0.25 -0.109375 -0.453125 -0.296875q-0.1875 -0.203125 -0.3125 -0.453125q-0.109375 -0.25 -0.109375 -0.546875q0 -0.296875 0.109375 -0.546875q0.125 -0.265625 0.3125 -0.453125q0.203125 -0.203125 0.453125 -0.3125q0.25 -0.125 0.546875 -0.125zm24.155212 0.140625q0 0.5 -0.171875 0.890625q-0.15625 0.390625 -0.453125 0.6875q-0.28125 0.296875 -0.671875 0.515625q-0.375 0.21875 -0.8125 0.359375q-0.421875 0.125 -0.875 0.1875q-0.453125 0.078125 -0.890625 0.078125q-0.953125 0 -1.75 -0.09375q-0.78125 -0.078125 -1.546875 -0.265625l0 -1.484375q0.8125 0.234375 1.625 0.359375q0.8125 0.109375 1.609375 0.109375q1.15625 0 1.703125 -0.3125q0.5625 -0.3125 0.5625 -0.890625q0 -0.25 -0.09375 -0.453125q-0.078125 -0.203125 -0.3125 -0.375q-0.234375 -0.1875 -0.71875 -0.375q-0.484375 -0.203125 -1.328125 -0.453125q-0.640625 -0.1875 -1.171875 -0.421875q-0.53125 -0.234375 -0.921875 -0.5625q-0.390625 -0.328125 -0.609375 -0.765625q-0.21875 -0.4375 -0.21875 -1.03125q0 -0.390625 0.171875 -0.84375q0.1875 -0.46875 0.625 -0.859375q0.4375 -0.40625 1.171875 -0.671875q0.75 -0.265625 1.859375 -0.265625q0.546875 0 1.21875 0.0625q0.671875 0.0625 1.390625 0.203125l0 1.4375q-0.765625 -0.171875 -1.453125 -0.265625q-0.671875 -0.09375 -1.171875 -0.09375q-0.609375 0 -1.03125 0.09375q-0.40625 0.09375 -0.65625 0.265625q-0.25 0.15625 -0.375 0.375q-0.109375 0.21875 -0.109375 0.46875q0 0.25 0.09375 0.453125q0.109375 0.203125 0.375 0.390625q0.265625 0.1875 0.734375 0.390625q0.46875 0.1875 1.234375 0.40625q0.828125 0.234375 1.390625 0.5q0.5625 0.265625 0.90625 0.59375q0.359375 0.328125 0.515625 0.734375q0.15625 0.40625 0.15625 0.921875zm10.382294 2.421875q-0.546875 0.140625 -1.125 0.1875q-0.578125 0.0625 -1.1875 0.0625q-1.75 0 -2.625 -0.78125q-0.859375 -0.796875 -0.859375 -2.4375l0 -4.859375l-2.609375 0l0 -1.359375l2.609375 0l0 -2.5625l1.625 -0.421875l0 2.984375l4.171875 0l0 1.359375l-4.171875 0l0 4.71875q0 1.0 0.53125 1.5q0.53125 0.5 1.5625 0.5q0.453125 0 0.984375 -0.0625q0.53125 -0.078125 1.09375 -0.21875l0 1.390625zm3.1322937 -9.1875l1.484375 0l0.046875 1.71875q0.828125 -1.0 1.625 -1.4375q0.796875 -0.453125 1.625 -0.453125q1.4375 0 2.1875 0.9375q0.75 0.9375 0.6875 2.78125l-1.625 0q0.015625 -1.21875 -0.375 -1.765625q-0.375 -0.5625 -1.109375 -0.5625q-0.328125 0 -0.65625 0.125q-0.328125 0.109375 -0.6875 0.375q-0.34375 0.25 -0.734375 0.65625q-0.390625 0.390625 -0.828125 0.953125l0 5.984375l-1.640625 0l0 -9.3125zm13.054138 1.328125l-2.7499695 0l0 -1.328125l4.3905945 0l0 7.96875l2.765625 0l0 1.34375l-7.4687195 0l0 -1.34375l3.0624695 0l0 -6.640625zm0.5625 -5.234375q0.28125 0 0.5 0.09375q0.234375 0.09375 0.40625 0.28125q0.171875 0.171875 0.265625 0.40625q0.109375 0.21875 0.109375 0.484375q0 0.265625 -0.109375 0.5q-0.09375 0.234375 -0.265625 0.40625q-0.171875 0.171875 -0.40625 0.28125q-0.21875 0.09375 -0.5 0.09375q-0.265625 0 -0.5 -0.09375q-0.234375 -0.109375 -0.40625 -0.28125q-0.171875 -0.171875 -0.265625 -0.40625q-0.09375 -0.234375 -0.09375 -0.5q0 -0.265625 0.09375 -0.484375q0.09375 -0.234375 0.265625 -0.40625q0.171875 -0.1875 0.40625 -0.28125q0.234375 -0.09375 0.5 -0.09375zm6.522949 3.90625l1.4375 0l0.0625 1.5q0.40625 -0.484375 0.78125 -0.796875q0.390625 -0.328125 0.75 -0.515625q0.375 -0.203125 0.75 -0.28125q0.390625 -0.078125 0.796875 -0.078125q1.4375 0 2.171875 0.859375q0.734375 0.84375 0.734375 2.546875l0 6.078125l-1.609375 0l0 -5.953125q0 -1.09375 -0.40625 -1.609375q-0.40625 -0.53125 -1.21875 -0.53125q-0.296875 0 -0.578125 0.09375q-0.28125 0.09375 -0.59375 0.3125q-0.296875 0.203125 -0.65625 0.578125q-0.359375 0.375 -0.8125 0.9375l0 6.171875l-1.609375 0l0 -9.3125zm16.960388 1.3125q0.265625 0.328125 0.40625 0.765625q0.140625 0.421875 0.140625 0.921875q0 0.734375 -0.265625 1.328125q-0.265625 0.59375 -0.75 1.03125q-0.46875 0.421875 -1.140625 0.65625q-0.671875 0.234375 -1.484375 0.234375q-0.578125 0 -1.09375 -0.125q-0.515625 -0.125 -0.8125 -0.3125q-0.171875 0.265625 -0.296875 0.5q-0.109375 0.21875 -0.109375 0.515625q0 0.34375 0.328125 0.578125q0.34375 0.234375 0.90625 0.25l2.4375 0.09375q0.703125 0.015625 1.28125 0.1875q0.59375 0.15625 1.015625 0.453125q0.421875 0.296875 0.65625 0.734375q0.25 0.421875 0.25 1.0q0 0.625 -0.28125 1.171875q-0.265625 0.5625 -0.828125 0.984375q-0.5625 0.421875 -1.421875 0.671875q-0.859375 0.25 -2.046875 0.25q-1.140625 0 -1.9375 -0.1875q-0.78125 -0.171875 -1.296875 -0.5q-0.5 -0.3125 -0.734375 -0.75q-0.234375 -0.4375 -0.234375 -0.96875q0 -0.671875 0.3125 -1.1875q0.3125 -0.515625 0.96875 -0.984375q-0.234375 -0.109375 -0.421875 -0.265625q-0.171875 -0.171875 -0.28125 -0.375q-0.109375 -0.203125 -0.171875 -0.421875q-0.046875 -0.21875 -0.046875 -0.4375q0 -0.609375 0.28125 -1.109375q0.28125 -0.5 0.671875 -0.9375q-0.171875 -0.21875 -0.3125 -0.421875q-0.125 -0.203125 -0.234375 -0.4375q-0.09375 -0.234375 -0.140625 -0.5q-0.046875 -0.28125 -0.046875 -0.640625q0 -0.71875 0.25 -1.3125q0.265625 -0.609375 0.75 -1.03125q0.484375 -0.4375 1.15625 -0.671875q0.671875 -0.234375 1.484375 -0.234375q0.34375 0 0.65625 0.046875q0.3125 0.046875 0.5625 0.125l3.375 0l0 1.3125l-1.5 0zm-5.59375 9.34375q0 0.65625 0.6875 0.953125q0.6875 0.3125 1.90625 0.3125q0.765625 0 1.28125 -0.140625q0.53125 -0.140625 0.84375 -0.375q0.328125 -0.21875 0.46875 -0.515625q0.140625 -0.28125 0.140625 -0.59375q0 -0.5625 -0.46875 -0.84375q-0.453125 -0.265625 -1.40625 -0.3125l-2.4375 -0.078125q-0.3125 0.203125 -0.515625 0.390625q-0.1875 0.203125 -0.296875 0.40625q-0.109375 0.203125 -0.15625 0.390625q-0.046875 0.203125 -0.046875 0.40625zm0.484375 -7.609375q0 0.4375 0.140625 0.8125q0.15625 0.375 0.421875 0.640625q0.28125 0.25 0.640625 0.390625q0.359375 0.140625 0.8125 0.140625q0.484375 0 0.859375 -0.15625q0.375 -0.171875 0.625 -0.4375q0.265625 -0.28125 0.390625 -0.640625q0.140625 -0.359375 0.140625 -0.75q0 -0.453125 -0.15625 -0.8125q-0.140625 -0.375 -0.421875 -0.640625q-0.265625 -0.265625 -0.640625 -0.40625q-0.359375 -0.140625 -0.796875 -0.140625q-0.484375 0 -0.859375 0.171875q-0.375 0.15625 -0.640625 0.4375q-0.25 0.265625 -0.390625 0.640625q-0.125 0.359375 -0.125 0.75z" fill-rule="nonzero"></path><path fill="#000000" d="m422.16388 124.00313q0.3125 0 0.59375 0.125q0.28125 0.109375 0.484375 0.328125q0.21875 0.21875 0.328125 0.5q0.125 0.28125 0.125 0.609375q0 0.3125 -0.125 0.59375q-0.109375 0.28125 -0.328125 0.484375q-0.203125 0.203125 -0.484375 0.328125q-0.28125 0.125 -0.59375 0.125q-0.328125 0 -0.609375 -0.125q-0.28125 -0.125 -0.5 -0.328125q-0.203125 -0.203125 -0.328125 -0.484375q-0.109375 -0.28125 -0.109375 -0.59375q0 -0.328125 0.109375 -0.609375q0.125 -0.28125 0.328125 -0.5q0.21875 -0.21875 0.5 -0.328125q0.28125 -0.125 0.609375 -0.125zm10.257294 0q0.3125 0 0.59375 0.125q0.28125 0.109375 0.484375 0.328125q0.21875 0.21875 0.328125 0.5q0.125 0.28125 0.125 0.609375q0 0.3125 -0.125 0.59375q-0.109375 0.28125 -0.328125 0.484375q-0.203125 0.203125 -0.484375 0.328125q-0.28125 0.125 -0.59375 0.125q-0.328125 0 -0.609375 -0.125q-0.28125 -0.125 -0.5 -0.328125q-0.203125 -0.203125 -0.328125 -0.484375q-0.109375 -0.28125 -0.109375 -0.59375q0 -0.328125 0.109375 -0.609375q0.125 -0.28125 0.328125 -0.5q0.21875 -0.21875 0.5 -0.328125q0.28125 -0.125 0.609375 -0.125zm10.257294 0q0.3125 0 0.59375 0.125q0.28125 0.109375 0.484375 0.328125q0.21875 0.21875 0.328125 0.5q0.125 0.28125 0.125 0.609375q0 0.3125 -0.125 0.59375q-0.109375 0.28125 -0.328125 0.484375q-0.203125 0.203125 -0.484375 0.328125q-0.28125 0.125 -0.59375 0.125q-0.328125 0 -0.609375 -0.125q-0.28125 -0.125 -0.5 -0.328125q-0.203125 -0.203125 -0.328125 -0.484375q-0.109375 -0.28125 -0.109375 -0.59375q0 -0.328125 0.109375 -0.609375q0.125 -0.28125 0.328125 -0.5q0.21875 -0.21875 0.5 -0.328125q0.28125 -0.125 0.609375 -0.125z" fill-rule="nonzero"></path><path fill="#000000" fill-opacity="0.0" d="m408.00763 15.999916l296.01367 0l0 39.99118l-296.01367 0z" fill-rule="evenodd"></path><path stroke="#000000" stroke-width="3.0" stroke-linejoin="round" stroke-linecap="butt" d="m408.00763 15.999916l296.01367 0l0 39.99118l-296.01367 0z" fill-rule="evenodd"></path><path fill="#000000" d="m424.47638 42.911095l-0.03125 -1.25q-0.765625 0.75 -1.546875 1.09375q-0.78125 0.328125 -1.65625 0.328125q-0.796875 0 -1.359375 -0.203125q-0.5625 -0.203125 -0.9375 -0.5625q-0.359375 -0.359375 -0.53125 -0.84375q-0.171875 -0.484375 -0.171875 -1.046875q0 -1.40625 1.046875 -2.1875q1.046875 -0.796875 3.078125 -0.796875l1.9375 0l0 -0.828125q0 -0.8125 -0.53125 -1.3125q-0.53125 -0.5 -1.609375 -0.5q-0.796875 0 -1.5625 0.1875q-0.765625 0.171875 -1.578125 0.484375l0 -1.453125q0.296875 -0.109375 0.671875 -0.21875q0.390625 -0.109375 0.796875 -0.1875q0.421875 -0.078125 0.875 -0.125q0.453125 -0.0625 0.921875 -0.0625q0.84375 0 1.515625 0.1875q0.6875 0.1875 1.15625 0.578125q0.46875 0.375 0.71875 0.953125q0.25 0.5625 0.25 1.34375l0 6.421875l-1.453125 0zm-0.171875 -4.234375l-2.0625 0q-0.59375 0 -1.03125 0.125q-0.4375 0.109375 -0.71875 0.34375q-0.28125 0.21875 -0.421875 0.53125q-0.125 0.296875 -0.125 0.6875q0 0.28125 0.078125 0.53125q0.09375 0.234375 0.28125 0.421875q0.1875 0.1875 0.484375 0.3125q0.296875 0.109375 0.71875 0.109375q0.5625 0 1.28125 -0.34375q0.71875 -0.34375 1.515625 -1.078125l0 -1.640625zm11.679169 3.890625q-0.625 0.234375 -1.296875 0.34375q-0.65625 0.125 -1.359375 0.125q-2.21875 0 -3.40625 -1.1875q-1.1875 -1.203125 -1.1875 -3.5q0 -1.109375 0.34375 -2.0q0.34375 -0.90625 0.953125 -1.546875q0.625 -0.640625 1.484375 -0.984375q0.875 -0.34375 1.90625 -0.34375q0.734375 0 1.359375 0.109375q0.625 0.09375 1.203125 0.3125l0 1.546875q-0.59375 -0.3125 -1.234375 -0.453125q-0.625 -0.15625 -1.28125 -0.15625q-0.625 0 -1.1875 0.25q-0.546875 0.234375 -0.96875 0.6875q-0.40625 0.4375 -0.65625 1.078125q-0.234375 0.640625 -0.234375 1.4375q0 1.6875 0.8125 2.53125q0.828125 0.84375 2.28125 0.84375q0.65625 0 1.265625 -0.140625q0.625 -0.15625 1.203125 -0.453125l0 1.5zm10.522919 0.21875q-0.546875 0.140625 -1.125 0.1875q-0.578125 0.0625 -1.1875 0.0625q-1.75 0 -2.625 -0.78125q-0.859375 -0.796875 -0.859375 -2.4375l0 -4.859375l-2.609375 0l0 -1.359375l2.609375 0l0 -2.5625l1.625 -0.421875l0 2.984375l4.171875 0l0 1.359375l-4.171875 0l0 4.71875q0 1.0 0.53125 1.5q0.53125 0.5 1.5625 0.5q0.453125 0 0.984375 -0.0625q0.53125 -0.078125 1.09375 -0.21875l0 1.390625zm10.866669 -4.609375q0 1.09375 -0.3125 2.0q-0.296875 0.890625 -0.875 1.546875q-0.578125 0.640625 -1.40625 1.0q-0.828125 0.359375 -1.875 0.359375q-1.0 0 -1.796875 -0.3125q-0.78125 -0.3125 -1.34375 -0.90625q-0.546875 -0.609375 -0.84375 -1.5q-0.28125 -0.890625 -0.28125 -2.0625q0 -1.078125 0.296875 -1.96875q0.3125 -0.90625 0.875 -1.546875q0.578125 -0.640625 1.40625 -1.0q0.828125 -0.359375 1.875 -0.359375q1.0 0 1.796875 0.3125q0.796875 0.3125 1.34375 0.921875q0.5625 0.59375 0.84375 1.484375q0.296875 0.890625 0.296875 2.03125zm-1.65625 0.078125q0 -0.859375 -0.1875 -1.5q-0.1875 -0.65625 -0.546875 -1.078125q-0.34375 -0.4375 -0.859375 -0.65625q-0.5 -0.21875 -1.125 -0.21875q-0.71875 0 -1.234375 0.28125q-0.515625 0.28125 -0.84375 0.765625q-0.328125 0.46875 -0.484375 1.09375q-0.15625 0.625 -0.15625 1.3125q0 0.859375 0.1875 1.515625q0.203125 0.640625 0.546875 1.078125q0.359375 0.421875 0.859375 0.640625q0.5 0.21875 1.125 0.21875q0.734375 0 1.25 -0.28125q0.515625 -0.28125 0.84375 -0.75q0.328125 -0.46875 0.46875 -1.09375q0.15625 -0.640625 0.15625 -1.328125zm4.1791687 -4.65625l1.484375 0l0.046875 1.71875q0.828125 -1.0 1.625 -1.4375q0.796875 -0.453125 1.625 -0.453125q1.4375 0 2.1875 0.9375q0.75 0.9375 0.6875 2.78125l-1.625 0q0.015625 -1.21875 -0.375 -1.765625q-0.375 -0.5625 -1.109375 -0.5625q-0.328125 0 -0.65625 0.125q-0.328125 0.109375 -0.6875 0.375q-0.34375 0.25 -0.734375 0.65625q-0.390625 0.390625 -0.828125 0.953125l0 5.984375l-1.640625 0l0 -9.3125zm17.257294 6.765625q0 0.5 -0.171875 0.890625q-0.15625 0.390625 -0.453125 0.6875q-0.28125 0.296875 -0.671875 0.515625q-0.375 0.21875 -0.8125 0.359375q-0.421875 0.125 -0.875 0.1875q-0.453125 0.078125 -0.890625 0.078125q-0.953125 0 -1.75 -0.09375q-0.78125 -0.078125 -1.546875 -0.265625l0 -1.484375q0.8125 0.234375 1.625 0.359375q0.8125 0.109375 1.609375 0.109375q1.15625 0 1.703125 -0.3125q0.5625 -0.3125 0.5625 -0.890625q0 -0.25 -0.09375 -0.453125q-0.078125 -0.203125 -0.3125 -0.375q-0.234375 -0.1875 -0.71875 -0.375q-0.484375 -0.203125 -1.328125 -0.453125q-0.640625 -0.1875 -1.171875 -0.421875q-0.53125 -0.234375 -0.921875 -0.5625q-0.390625 -0.328125 -0.609375 -0.765625q-0.21875 -0.4375 -0.21875 -1.03125q0 -0.390625 0.171875 -0.84375q0.1875 -0.46875 0.625 -0.859375q0.4375 -0.40625 1.171875 -0.671875q0.75 -0.265625 1.859375 -0.265625q0.546875 0 1.21875 0.0625q0.671875 0.0625 1.390625 0.203125l0 1.4375q-0.765625 -0.171875 -1.453125 -0.265625q-0.671875 -0.09375 -1.171875 -0.09375q-0.609375 0 -1.03125 0.09375q-0.40625 0.09375 -0.65625 0.265625q-0.25 0.15625 -0.375 0.375q-0.109375 0.21875 -0.109375 0.46875q0 0.25 0.09375 0.453125q0.109375 0.203125 0.375 0.390625q0.265625 0.1875 0.734375 0.390625q0.46875 0.1875 1.234375 0.40625q0.828125 0.234375 1.390625 0.5q0.5625 0.265625 0.90625 0.59375q0.359375 0.328125 0.515625 0.734375q0.15625 0.40625 0.15625 0.921875z" fill-rule="nonzero"></path><path fill="#000000" fill-opacity="0.0" d="m162.30446 78.850395l269.3543 132.37796" fill-rule="evenodd"></path><path stroke="#ff0000" stroke-width="3.0" stroke-linejoin="round" stroke-linecap="butt" d="m178.45892 86.78973l253.19986 124.43862" fill-rule="evenodd"></path><path fill="#ff0000" stroke="#ff0000" stroke-width="3.0" stroke-linecap="butt" d="m180.64455 82.34259l-14.404037 -1.5577698l10.032806 10.452057z" fill-rule="evenodd"></path><path fill="#000000" fill-opacity="0.0" d="m423.94662 188.46158l256.00406 0l0 88.92694l-256.00406 0z" fill-rule="evenodd"></path><path stroke="#000000" stroke-width="3.0" stroke-linejoin="round" stroke-linecap="butt" d="m423.94662 188.46158l256.00406 0l0 88.92694l-256.00406 0z" fill-rule="evenodd"></path><path fill="#000000" d="m441.07162 215.38158l0 -6.6875q0 -0.4375 -0.03125 -0.71875q-0.03125 -0.28125 -0.109375 -0.4375q-0.0625 -0.15625 -0.171875 -0.21875q-0.109375 -0.078125 -0.265625 -0.078125q-0.1875 0 -0.34375 0.125q-0.15625 0.109375 -0.34375 0.359375q-0.171875 0.25 -0.390625 0.65625q-0.21875 0.40625 -0.515625 1.015625l0 5.984375l-1.46875 0l0 -6.515625q0 -0.5 -0.03125 -0.8125q-0.03125 -0.328125 -0.109375 -0.5q-0.0625 -0.171875 -0.1875 -0.234375q-0.109375 -0.078125 -0.265625 -0.078125q-0.15625 0 -0.3125 0.09375q-0.140625 0.09375 -0.328125 0.34375q-0.171875 0.234375 -0.40625 0.65625q-0.21875 0.40625 -0.53125 1.0625l0 5.984375l-1.484375 0l0 -9.3125l1.234375 0l0.078125 1.765625q0.25 -0.53125 0.46875 -0.890625q0.234375 -0.375 0.46875 -0.59375q0.25 -0.234375 0.515625 -0.34375q0.28125 -0.109375 0.609375 -0.109375q0.75 0 1.140625 0.5q0.390625 0.484375 0.390625 1.515625q0.21875 -0.484375 0.4375 -0.859375q0.21875 -0.375 0.453125 -0.625q0.25 -0.265625 0.546875 -0.390625q0.296875 -0.140625 0.6875 -0.140625q1.75 0 1.75 2.703125l0 6.78125l-1.484375 0zm11.726044 -4.734375q0 1.09375 -0.3125 2.0q-0.296875 0.890625 -0.875 1.546875q-0.578125 0.640625 -1.40625 1.0q-0.828125 0.359375 -1.875 0.359375q-1.0 0 -1.796875 -0.3125q-0.78125 -0.3125 -1.34375 -0.90625q-0.546875 -0.609375 -0.84375 -1.5q-0.28125 -0.890625 -0.28125 -2.0625q0 -1.078125 0.296875 -1.96875q0.3125 -0.90625 0.875 -1.546875q0.578125 -0.640625 1.40625 -1.0q0.828125 -0.359375 1.875 -0.359375q1.0 0 1.796875 0.3125q0.796875 0.3125 1.34375 0.921875q0.5625 0.59375 0.84375 1.484375q0.296875 0.890625 0.296875 2.03125zm-1.65625 0.078125q0 -0.859375 -0.1875 -1.5q-0.1875 -0.65625 -0.546875 -1.078125q-0.34375 -0.4375 -0.859375 -0.65625q-0.5 -0.21875 -1.125 -0.21875q-0.71875 0 -1.234375 0.28125q-0.515625 0.28125 -0.84375 0.765625q-0.328125 0.46875 -0.484375 1.09375q-0.15625 0.625 -0.15625 1.3125q0 0.859375 0.1875 1.515625q0.203125 0.640625 0.546875 1.078125q0.359375 0.421875 0.859375 0.640625q0.5 0.21875 1.125 0.21875q0.734375 0 1.25 -0.28125q0.515625 -0.28125 0.84375 -0.75q0.328125 -0.46875 0.46875 -1.09375q0.15625 -0.640625 0.15625 -1.328125zm2.9291687 -4.65625l1.84375 0l2.28125 6.15625l0.484375 1.5l0.515625 -1.53125l2.265625 -6.125l1.765625 0l-3.65625 9.3125l-1.84375 0l-3.65625 -9.3125zm14.304169 1.328125l-2.75 0l0 -1.328125l4.390625 0l0 7.96875l2.765625 0l0 1.34375l-7.46875 0l0 -1.34375l3.0625 0l0 -6.640625zm0.5625 -5.234375q0.28125 0 0.5 0.09375q0.234375 0.09375 0.40625 0.28125q0.171875 0.171875 0.265625 0.40625q0.109375 0.21875 0.109375 0.484375q0 0.265625 -0.109375 0.5q-0.09375 0.234375 -0.265625 0.40625q-0.171875 0.171875 -0.40625 0.28125q-0.21875 0.09375 -0.5 0.09375q-0.265625 0 -0.5 -0.09375q-0.234375 -0.109375 -0.40625 -0.28125q-0.171875 -0.171875 -0.265625 -0.40625q-0.09375 -0.234375 -0.09375 -0.5q0 -0.265625 0.09375 -0.484375q0.09375 -0.234375 0.265625 -0.40625q0.171875 -0.1875 0.40625 -0.28125q0.234375 -0.09375 0.5 -0.09375zm14.397919 8.0625q0 0.34375 -0.015625 0.578125q-0.015625 0.234375 -0.03125 0.4375l-6.53125 0q0 1.4375 0.796875 2.203125q0.796875 0.765625 2.296875 0.765625q0.40625 0 0.8125 -0.03125q0.40625 -0.046875 0.78125 -0.09375q0.390625 -0.0625 0.734375 -0.125q0.34375 -0.078125 0.640625 -0.15625l0 1.328125q-0.65625 0.1875 -1.484375 0.296875q-0.828125 0.125 -1.71875 0.125q-1.203125 0 -2.0625 -0.328125q-0.859375 -0.328125 -1.421875 -0.9375q-0.546875 -0.625 -0.8125 -1.515625q-0.265625 -0.890625 -0.265625 -2.03125q0 -0.984375 0.28125 -1.859375q0.296875 -0.875 0.828125 -1.53125q0.546875 -0.671875 1.328125 -1.0625q0.796875 -0.390625 1.796875 -0.390625q0.984375 0 1.734375 0.3125q0.75 0.296875 1.265625 0.859375q0.515625 0.5625 0.78125 1.375q0.265625 0.796875 0.265625 1.78125zm-1.6875 -0.21875q0.03125 -0.625 -0.125 -1.140625q-0.140625 -0.515625 -0.453125 -0.890625q-0.3125 -0.375 -0.78125 -0.578125q-0.453125 -0.203125 -1.078125 -0.203125q-0.515625 0 -0.953125 0.203125q-0.4375 0.203125 -0.765625 0.578125q-0.3125 0.359375 -0.5 0.890625q-0.1875 0.515625 -0.234375 1.140625l4.890625 0zm13.038544 9.171875l-10.453125 0l0 -1.328125l10.453125 0l0 1.328125zm4.4604187 -11.78125l-2.75 0l0 -1.328125l4.390625 0l0 7.96875l2.765625 0l0 1.34375l-7.46875 0l0 -1.34375l3.0625 0l0 -6.640625zm0.5625 -5.234375q0.28125 0 0.5 0.09375q0.234375 0.09375 0.40625 0.28125q0.171875 0.171875 0.265625 0.40625q0.109375 0.21875 0.109375 0.484375q0 0.265625 -0.109375 0.5q-0.09375 0.234375 -0.265625 0.40625q-0.171875 0.171875 -0.40625 0.28125q-0.21875 0.09375 -0.5 0.09375q-0.265625 0 -0.5 -0.09375q-0.234375 -0.109375 -0.40625 -0.28125q-0.171875 -0.171875 -0.265625 -0.40625q-0.09375 -0.234375 -0.09375 -0.5q0 -0.265625 0.09375 -0.484375q0.09375 -0.234375 0.265625 -0.40625q0.171875 -0.1875 0.40625 -0.28125q0.234375 -0.09375 0.5 -0.09375zm6.0541687 8.75q0 -1.1875 0.3125 -2.109375q0.328125 -0.921875 0.921875 -1.546875q0.609375 -0.640625 1.4375 -0.96875q0.84375 -0.328125 1.875 -0.328125q0.453125 0 0.875 0.0625q0.4375 0.046875 0.859375 0.171875l0 -3.921875l1.625 0l0 13.109375l-1.453125 0l-0.0625 -1.765625q-0.671875 0.984375 -1.46875 1.46875q-0.78125 0.46875 -1.703125 0.46875q-0.796875 0 -1.40625 -0.328125q-0.59375 -0.34375 -1.0 -0.953125q-0.40625 -0.609375 -0.609375 -1.453125q-0.203125 -0.859375 -0.203125 -1.90625zm1.640625 -0.09375q0 1.6875 0.5 2.515625q0.5 0.828125 1.40625 0.828125q0.609375 0 1.296875 -0.546875q0.6875 -0.546875 1.4375 -1.625l0 -4.3125q-0.40625 -0.1875 -0.890625 -0.28125q-0.484375 -0.109375 -0.953125 -0.109375q-1.3125 0 -2.0625 0.859375q-0.734375 0.84375 -0.734375 2.671875zm12.819763 -4.921875q0.296875 0 0.546875 0.125q0.265625 0.109375 0.453125 0.3125q0.203125 0.1875 0.3125 0.453125q0.125 0.25 0.125 0.546875q0 0.296875 -0.125 0.546875q-0.109375 0.25 -0.3125 0.453125q-0.1875 0.1875 -0.453125 0.296875q-0.25 0.109375 -0.546875 0.109375q-0.296875 0 -0.546875 -0.109375q-0.25 -0.109375 -0.453125 -0.296875q-0.1875 -0.203125 -0.3125 -0.453125q-0.109375 -0.25 -0.109375 -0.546875q0 -0.296875 0.109375 -0.546875q0.125 -0.265625 0.3125 -0.453125q0.203125 -0.203125 0.453125 -0.3125q0.25 -0.125 0.546875 -0.125zm0 6.796875q0.296875 0 0.546875 0.125q0.265625 0.109375 0.453125 0.3125q0.203125 0.1875 0.3125 0.453125q0.125 0.25 0.125 0.546875q0 0.296875 -0.125 0.546875q-0.109375 0.25 -0.3125 0.453125q-0.1875 0.1875 -0.453125 0.296875q-0.25 0.125 -0.546875 0.125q-0.296875 0 -0.546875 -0.125q-0.25 -0.109375 -0.453125 -0.296875q-0.1875 -0.203125 -0.3125 -0.453125q-0.109375 -0.25 -0.109375 -0.546875q0 -0.296875 0.109375 -0.546875q0.125 -0.265625 0.3125 -0.453125q0.203125 -0.203125 0.453125 -0.3125q0.25 -0.125 0.546875 -0.125zm24.155212 0.140625q0 0.5 -0.171875 0.890625q-0.15625 0.390625 -0.453125 0.6875q-0.28125 0.296875 -0.671875 0.515625q-0.375 0.21875 -0.8125 0.359375q-0.421875 0.125 -0.875 0.1875q-0.453125 0.078125 -0.890625 0.078125q-0.953125 0 -1.75 -0.09375q-0.78125 -0.078125 -1.546875 -0.265625l0 -1.484375q0.8125 0.234375 1.625 0.359375q0.8125 0.109375 1.609375 0.109375q1.15625 0 1.703125 -0.3125q0.5625 -0.3125 0.5625 -0.890625q0 -0.25 -0.09375 -0.453125q-0.078125 -0.203125 -0.3125 -0.375q-0.234375 -0.1875 -0.71875 -0.375q-0.484375 -0.203125 -1.328125 -0.453125q-0.640625 -0.1875 -1.171875 -0.421875q-0.53125 -0.234375 -0.921875 -0.5625q-0.390625 -0.328125 -0.609375 -0.765625q-0.21875 -0.4375 -0.21875 -1.03125q0 -0.390625 0.171875 -0.84375q0.1875 -0.46875 0.625 -0.859375q0.4375 -0.40625 1.171875 -0.671875q0.75 -0.265625 1.859375 -0.265625q0.546875 0 1.21875 0.0625q0.671875 0.0625 1.390625 0.203125l0 1.4375q-0.765625 -0.171875 -1.453125 -0.265625q-0.671875 -0.09375 -1.171875 -0.09375q-0.609375 0 -1.03125 0.09375q-0.40625 0.09375 -0.65625 0.265625q-0.25 0.15625 -0.375 0.375q-0.109375 0.21875 -0.109375 0.46875q0 0.25 0.09375 0.453125q0.109375 0.203125 0.375 0.390625q0.265625 0.1875 0.734375 0.390625q0.46875 0.1875 1.234375 0.40625q0.828125 0.234375 1.390625 0.5q0.5625 0.265625 0.90625 0.59375q0.359375 0.328125 0.515625 0.734375q0.15625 0.40625 0.15625 0.921875zm10.382324 2.421875q-0.546875 0.140625 -1.125 0.1875q-0.578125 0.0625 -1.1875 0.0625q-1.75 0 -2.625 -0.78125q-0.859375 -0.796875 -0.859375 -2.4375l0 -4.859375l-2.609375 0l0 -1.359375l2.609375 0l0 -2.5625l1.625 -0.421875l0 2.984375l4.171875 0l0 1.359375l-4.171875 0l0 4.71875q0 1.0 0.53125 1.5q0.53125 0.5 1.5625 0.5q0.453125 0 0.984375 -0.0625q0.53125 -0.078125 1.09375 -0.21875l0 1.390625zm3.1322632 -9.1875l1.484375 0l0.046875 1.71875q0.828125 -1.0 1.625 -1.4375q0.796875 -0.453125 1.625 -0.453125q1.4375 0 2.1875 0.9375q0.75 0.9375 0.6875 2.78125l-1.625 0q0.015625 -1.21875 -0.375 -1.765625q-0.375 -0.5625 -1.109375 -0.5625q-0.328125 0 -0.65625 0.125q-0.328125 0.109375 -0.6875 0.375q-0.34375 0.25 -0.734375 0.65625q-0.390625 0.390625 -0.828125 0.953125l0 5.984375l-1.640625 0l0 -9.3125zm13.054199 1.328125l-2.75 0l0 -1.328125l4.390625 0l0 7.96875l2.765625 0l0 1.34375l-7.46875 0l0 -1.34375l3.0625 0l0 -6.640625zm0.5625 -5.234375q0.28125 0 0.5 0.09375q0.234375 0.09375 0.40625 0.28125q0.171875 0.171875 0.265625 0.40625q0.109375 0.21875 0.109375 0.484375q0 0.265625 -0.109375 0.5q-0.09375 0.234375 -0.265625 0.40625q-0.171875 0.171875 -0.40625 0.28125q-0.21875 0.09375 -0.5 0.09375q-0.265625 0 -0.5 -0.09375q-0.234375 -0.109375 -0.40625 -0.28125q-0.171875 -0.171875 -0.265625 -0.40625q-0.09375 -0.234375 -0.09375 -0.5q0 -0.265625 0.09375 -0.484375q0.09375 -0.234375 0.265625 -0.40625q0.171875 -0.1875 0.40625 -0.28125q0.234375 -0.09375 0.5 -0.09375zm6.522888 3.90625l1.4375 0l0.0625 1.5q0.40625 -0.484375 0.78125 -0.796875q0.390625 -0.328125 0.75 -0.515625q0.375 -0.203125 0.75 -0.28125q0.390625 -0.078125 0.796875 -0.078125q1.4375 0 2.171875 0.859375q0.734375 0.84375 0.734375 2.546875l0 6.078125l-1.609375 0l0 -5.953125q0 -1.09375 -0.40625 -1.609375q-0.40625 -0.53125 -1.21875 -0.53125q-0.296875 0 -0.578125 0.09375q-0.28125 0.09375 -0.59375 0.3125q-0.296875 0.203125 -0.65625 0.578125q-0.359375 0.375 -0.8125 0.9375l0 6.171875l-1.609375 0l0 -9.3125zm16.96045 1.3125q0.265625 0.328125 0.40625 0.765625q0.140625 0.421875 0.140625 0.921875q0 0.734375 -0.265625 1.328125q-0.265625 0.59375 -0.75 1.03125q-0.46875 0.421875 -1.140625 0.65625q-0.671875 0.234375 -1.484375 0.234375q-0.578125 0 -1.09375 -0.125q-0.515625 -0.125 -0.8125 -0.3125q-0.171875 0.265625 -0.296875 0.5q-0.109375 0.21875 -0.109375 0.515625q0 0.34375 0.328125 0.578125q0.34375 0.234375 0.90625 0.25l2.4375 0.09375q0.703125 0.015625 1.28125 0.1875q0.59375 0.15625 1.015625 0.453125q0.421875 0.296875 0.65625 0.734375q0.25 0.421875 0.25 1.0q0 0.625 -0.28125 1.171875q-0.265625 0.5625 -0.828125 0.984375q-0.5625 0.421875 -1.421875 0.671875q-0.859375 0.25 -2.046875 0.25q-1.140625 0 -1.9375 -0.1875q-0.78125 -0.171875 -1.296875 -0.5q-0.5 -0.3125 -0.734375 -0.75q-0.234375 -0.4375 -0.234375 -0.96875q0 -0.671875 0.3125 -1.1875q0.3125 -0.515625 0.96875 -0.984375q-0.234375 -0.109375 -0.421875 -0.265625q-0.171875 -0.171875 -0.28125 -0.375q-0.109375 -0.203125 -0.171875 -0.421875q-0.046875 -0.21875 -0.046875 -0.4375q0 -0.609375 0.28125 -1.109375q0.28125 -0.5 0.671875 -0.9375q-0.171875 -0.21875 -0.3125 -0.421875q-0.125 -0.203125 -0.234375 -0.4375q-0.09375 -0.234375 -0.140625 -0.5q-0.046875 -0.28125 -0.046875 -0.640625q0 -0.71875 0.25 -1.3125q0.265625 -0.609375 0.75 -1.03125q0.484375 -0.4375 1.15625 -0.671875q0.671875 -0.234375 1.484375 -0.234375q0.34375 0 0.65625 0.046875q0.3125 0.046875 0.5625 0.125l3.375 0l0 1.3125l-1.5 0zm-5.59375 9.34375q0 0.65625 0.6875 0.953125q0.6875 0.3125 1.90625 0.3125q0.765625 0 1.28125 -0.140625q0.53125 -0.140625 0.84375 -0.375q0.328125 -0.21875 0.46875 -0.515625q0.140625 -0.28125 0.140625 -0.59375q0 -0.5625 -0.46875 -0.84375q-0.453125 -0.265625 -1.40625 -0.3125l-2.4375 -0.078125q-0.3125 0.203125 -0.515625 0.390625q-0.1875 0.203125 -0.296875 0.40625q-0.109375 0.203125 -0.15625 0.390625q-0.046875 0.203125 -0.046875 0.40625zm0.484375 -7.609375q0 0.4375 0.140625 0.8125q0.15625 0.375 0.421875 0.640625q0.28125 0.25 0.640625 0.390625q0.359375 0.140625 0.8125 0.140625q0.484375 0 0.859375 -0.15625q0.375 -0.171875 0.625 -0.4375q0.265625 -0.28125 0.390625 -0.640625q0.140625 -0.359375 0.140625 -0.75q0 -0.453125 -0.15625 -0.8125q-0.140625 -0.375 -0.421875 -0.640625q-0.265625 -0.265625 -0.640625 -0.40625q-0.359375 -0.140625 -0.796875 -0.140625q-0.484375 0 -0.859375 0.171875q-0.375 0.15625 -0.640625 0.4375q-0.25 0.265625 -0.390625 0.640625q-0.125 0.359375 -0.125 0.75z" fill-rule="nonzero"></path><path fill="#000000" d="m434.806 228.06908l1.484375 0l0.046875 1.71875q0.828125 -1.0 1.625 -1.4375q0.796875 -0.453125 1.625 -0.453125q1.4375 0 2.1875 0.9375q0.75 0.9375 0.6875 2.78125l-1.625 0q0.015625 -1.21875 -0.375 -1.765625q-0.375 -0.5625 -1.109375 -0.5625q-0.328125 0 -0.65625 0.125q-0.328125 0.109375 -0.6875 0.375q-0.34375 0.25 -0.734375 0.65625q-0.390625 0.390625 -0.828125 0.953125l0 5.984375l-1.640625 0l0 -9.3125zm17.991669 4.578125q0 1.09375 -0.3125 2.0q-0.296875 0.890625 -0.875 1.546875q-0.578125 0.640625 -1.40625 1.0q-0.828125 0.359375 -1.875 0.359375q-1.0 0 -1.796875 -0.3125q-0.78125 -0.3125 -1.34375 -0.90625q-0.546875 -0.609375 -0.84375 -1.5q-0.28125 -0.890625 -0.28125 -2.0625q0 -1.078125 0.296875 -1.96875q0.3125 -0.90625 0.875 -1.546875q0.578125 -0.640625 1.40625 -1.0q0.828125 -0.359375 1.875 -0.359375q1.0 0 1.796875 0.3125q0.796875 0.3125 1.34375 0.921875q0.5625 0.59375 0.84375 1.484375q0.296875 0.890625 0.296875 2.03125zm-1.65625 0.078125q0 -0.859375 -0.1875 -1.5q-0.1875 -0.65625 -0.546875 -1.078125q-0.34375 -0.4375 -0.859375 -0.65625q-0.5 -0.21875 -1.125 -0.21875q-0.71875 0 -1.234375 0.28125q-0.515625 0.28125 -0.84375 0.765625q-0.328125 0.46875 -0.484375 1.09375q-0.15625 0.625 -0.15625 1.3125q0 0.859375 0.1875 1.515625q0.203125 0.640625 0.546875 1.078125q0.359375 0.421875 0.859375 0.640625q0.5 0.21875 1.125 0.21875q0.734375 0 1.25 -0.28125q0.515625 -0.28125 0.84375 -0.75q0.328125 -0.46875 0.46875 -1.09375q0.15625 -0.640625 0.15625 -1.328125zm6.9760437 -7.125l-2.75 0l0 -1.328125l4.390625 0l0 11.765625l2.765625 0l0 1.34375l-7.46875 0l0 -1.34375l3.0625 0l0 -10.4375zm14.960419 6.625q0 0.34375 -0.015625 0.578125q-0.015625 0.234375 -0.03125 0.4375l-6.53125 0q0 1.4375 0.796875 2.203125q0.796875 0.765625 2.296875 0.765625q0.40625 0 0.8125 -0.03125q0.40625 -0.046875 0.78125 -0.09375q0.390625 -0.0625 0.734375 -0.125q0.34375 -0.078125 0.640625 -0.15625l0 1.328125q-0.65625 0.1875 -1.484375 0.296875q-0.828125 0.125 -1.71875 0.125q-1.203125 0 -2.0625 -0.328125q-0.859375 -0.328125 -1.421875 -0.9375q-0.546875 -0.625 -0.8125 -1.515625q-0.265625 -0.890625 -0.265625 -2.03125q0 -0.984375 0.28125 -1.859375q0.296875 -0.875 0.828125 -1.53125q0.546875 -0.671875 1.328125 -1.0625q0.796875 -0.390625 1.796875 -0.390625q0.984375 0 1.734375 0.3125q0.75 0.296875 1.265625 0.859375q0.515625 0.5625 0.78125 1.375q0.265625 0.796875 0.265625 1.78125zm-1.6875 -0.21875q0.03125 -0.625 -0.125 -1.140625q-0.140625 -0.515625 -0.453125 -0.890625q-0.3125 -0.375 -0.78125 -0.578125q-0.453125 -0.203125 -1.078125 -0.203125q-0.515625 0 -0.953125 0.203125q-0.4375 0.203125 -0.765625 0.578125q-0.3125 0.359375 -0.5 0.890625q-0.1875 0.515625 -0.234375 1.140625l4.890625 0zm7.8041687 -4.109375q0.296875 0 0.546875 0.125q0.265625 0.109375 0.453125 0.3125q0.203125 0.1875 0.3125 0.453125q0.125 0.25 0.125 0.546875q0 0.296875 -0.125 0.546875q-0.109375 0.25 -0.3125 0.453125q-0.1875 0.1875 -0.453125 0.296875q-0.25 0.109375 -0.546875 0.109375q-0.296875 0 -0.546875 -0.109375q-0.25 -0.109375 -0.453125 -0.296875q-0.1875 -0.203125 -0.3125 -0.453125q-0.109375 -0.25 -0.109375 -0.546875q0 -0.296875 0.109375 -0.546875q0.125 -0.265625 0.3125 -0.453125q0.203125 -0.203125 0.453125 -0.3125q0.25 -0.125 0.546875 -0.125zm0 6.796875q0.296875 0 0.546875 0.125q0.265625 0.109375 0.453125 0.3125q0.203125 0.1875 0.3125 0.453125q0.125 0.25 0.125 0.546875q0 0.296875 -0.125 0.546875q-0.109375 0.25 -0.3125 0.453125q-0.1875 0.1875 -0.453125 0.296875q-0.25 0.125 -0.546875 0.125q-0.296875 0 -0.546875 -0.125q-0.25 -0.109375 -0.453125 -0.296875q-0.1875 -0.203125 -0.3125 -0.453125q-0.109375 -0.25 -0.109375 -0.546875q0 -0.296875 0.109375 -0.546875q0.125 -0.265625 0.3125 -0.453125q0.203125 -0.203125 0.453125 -0.3125q0.25 -0.125 0.546875 -0.125zm24.155212 0.140625q0 0.5 -0.171875 0.890625q-0.15625 0.390625 -0.453125 0.6875q-0.28125 0.296875 -0.671875 0.515625q-0.375 0.21875 -0.8125 0.359375q-0.421875 0.125 -0.875 0.1875q-0.453125 0.078125 -0.890625 0.078125q-0.953125 0 -1.75 -0.09375q-0.78125 -0.078125 -1.546875 -0.265625l0 -1.484375q0.8125 0.234375 1.625 0.359375q0.8125 0.109375 1.609375 0.109375q1.15625 0 1.703125 -0.3125q0.5625 -0.3125 0.5625 -0.890625q0 -0.25 -0.09375 -0.453125q-0.078125 -0.203125 -0.3125 -0.375q-0.234375 -0.1875 -0.71875 -0.375q-0.484375 -0.203125 -1.328125 -0.453125q-0.640625 -0.1875 -1.171875 -0.421875q-0.53125 -0.234375 -0.921875 -0.5625q-0.390625 -0.328125 -0.609375 -0.765625q-0.21875 -0.4375 -0.21875 -1.03125q0 -0.390625 0.171875 -0.84375q0.1875 -0.46875 0.625 -0.859375q0.4375 -0.40625 1.171875 -0.671875q0.75 -0.265625 1.859375 -0.265625q0.546875 0 1.21875 0.0625q0.671875 0.0625 1.390625 0.203125l0 1.4375q-0.765625 -0.171875 -1.453125 -0.265625q-0.671875 -0.09375 -1.171875 -0.09375q-0.609375 0 -1.03125 0.09375q-0.40625 0.09375 -0.65625 0.265625q-0.25 0.15625 -0.375 0.375q-0.109375 0.21875 -0.109375 0.46875q0 0.25 0.09375 0.453125q0.109375 0.203125 0.375 0.390625q0.265625 0.1875 0.734375 0.390625q0.46875 0.1875 1.234375 0.40625q0.828125 0.234375 1.390625 0.5q0.5625 0.265625 0.90625 0.59375q0.359375 0.328125 0.515625 0.734375q0.15625 0.40625 0.15625 0.921875zm10.382294 2.421875q-0.546875 0.140625 -1.125 0.1875q-0.578125 0.0625 -1.1875 0.0625q-1.75 0 -2.625 -0.78125q-0.859375 -0.796875 -0.859375 -2.4375l0 -4.859375l-2.609375 0l0 -1.359375l2.609375 0l0 -2.5625l1.625 -0.421875l0 2.984375l4.171875 0l0 1.359375l-4.171875 0l0 4.71875q0 1.0 0.53125 1.5q0.53125 0.5 1.5625 0.5q0.453125 0 0.984375 -0.0625q0.53125 -0.078125 1.09375 -0.21875l0 1.390625zm3.1322632 -9.1875l1.484375 0l0.046875 1.71875q0.828125 -1.0 1.625 -1.4375q0.796875 -0.453125 1.625 -0.453125q1.4375 0 2.1875 0.9375q0.75 0.9375 0.6875 2.78125l-1.625 0q0.015625 -1.21875 -0.375 -1.765625q-0.375 -0.5625 -1.109375 -0.5625q-0.328125 0 -0.65625 0.125q-0.328125 0.109375 -0.6875 0.375q-0.34375 0.25 -0.734375 0.65625q-0.390625 0.390625 -0.828125 0.953125l0 5.984375l-1.640625 0l0 -9.3125zm13.054199 1.328125l-2.75 0l0 -1.328125l4.390625 0l0 7.96875l2.765625 0l0 1.34375l-7.46875 0l0 -1.34375l3.0625 0l0 -6.640625zm0.5625 -5.234375q0.28125 0 0.5 0.09375q0.234375 0.09375 0.40625 0.28125q0.171875 0.171875 0.265625 0.40625q0.109375 0.21875 0.109375 0.484375q0 0.265625 -0.109375 0.5q-0.09375 0.234375 -0.265625 0.40625q-0.171875 0.171875 -0.40625 0.28125q-0.21875 0.09375 -0.5 0.09375q-0.265625 0 -0.5 -0.09375q-0.234375 -0.109375 -0.40625 -0.28125q-0.171875 -0.171875 -0.265625 -0.40625q-0.09375 -0.234375 -0.09375 -0.5q0 -0.265625 0.09375 -0.484375q0.09375 -0.234375 0.265625 -0.40625q0.171875 -0.1875 0.40625 -0.28125q0.234375 -0.09375 0.5 -0.09375zm6.522888 3.90625l1.4375 0l0.0625 1.5q0.40625 -0.484375 0.78125 -0.796875q0.390625 -0.328125 0.75 -0.515625q0.375 -0.203125 0.75 -0.28125q0.390625 -0.078125 0.796875 -0.078125q1.4375 0 2.171875 0.859375q0.734375 0.84375 0.734375 2.546875l0 6.078125l-1.609375 0l0 -5.953125q0 -1.09375 -0.40625 -1.609375q-0.40625 -0.53125 -1.21875 -0.53125q-0.296875 0 -0.578125 0.09375q-0.28125 0.09375 -0.59375 0.3125q-0.296875 0.203125 -0.65625 0.578125q-0.359375 0.375 -0.8125 0.9375l0 6.171875l-1.609375 0l0 -9.3125zm16.96045 1.3125q0.265625 0.328125 0.40625 0.765625q0.140625 0.421875 0.140625 0.921875q0 0.734375 -0.265625 1.328125q-0.265625 0.59375 -0.75 1.03125q-0.46875 0.421875 -1.140625 0.65625q-0.671875 0.234375 -1.484375 0.234375q-0.578125 0 -1.09375 -0.125q-0.515625 -0.125 -0.8125 -0.3125q-0.171875 0.265625 -0.296875 0.5q-0.109375 0.21875 -0.109375 0.515625q0 0.34375 0.328125 0.578125q0.34375 0.234375 0.90625 0.25l2.4375 0.09375q0.703125 0.015625 1.28125 0.1875q0.59375 0.15625 1.015625 0.453125q0.421875 0.296875 0.65625 0.734375q0.25 0.421875 0.25 1.0q0 0.625 -0.28125 1.171875q-0.265625 0.5625 -0.828125 0.984375q-0.5625 0.421875 -1.421875 0.671875q-0.859375 0.25 -2.046875 0.25q-1.140625 0 -1.9375 -0.1875q-0.78125 -0.171875 -1.296875 -0.5q-0.5 -0.3125 -0.734375 -0.75q-0.234375 -0.4375 -0.234375 -0.96875q0 -0.671875 0.3125 -1.1875q0.3125 -0.515625 0.96875 -0.984375q-0.234375 -0.109375 -0.421875 -0.265625q-0.171875 -0.171875 -0.28125 -0.375q-0.109375 -0.203125 -0.171875 -0.421875q-0.046875 -0.21875 -0.046875 -0.4375q0 -0.609375 0.28125 -1.109375q0.28125 -0.5 0.671875 -0.9375q-0.171875 -0.21875 -0.3125 -0.421875q-0.125 -0.203125 -0.234375 -0.4375q-0.09375 -0.234375 -0.140625 -0.5q-0.046875 -0.28125 -0.046875 -0.640625q0 -0.71875 0.25 -1.3125q0.265625 -0.609375 0.75 -1.03125q0.484375 -0.4375 1.15625 -0.671875q0.671875 -0.234375 1.484375 -0.234375q0.34375 0 0.65625 0.046875q0.3125 0.046875 0.5625 0.125l3.375 0l0 1.3125l-1.5 0zm-5.59375 9.34375q0 0.65625 0.6875 0.953125q0.6875 0.3125 1.90625 0.3125q0.765625 0 1.28125 -0.140625q0.53125 -0.140625 0.84375 -0.375q0.328125 -0.21875 0.46875 -0.515625q0.140625 -0.28125 0.140625 -0.59375q0 -0.5625 -0.46875 -0.84375q-0.453125 -0.265625 -1.40625 -0.3125l-2.4375 -0.078125q-0.3125 0.203125 -0.515625 0.390625q-0.1875 0.203125 -0.296875 0.40625q-0.109375 0.203125 -0.15625 0.390625q-0.046875 0.203125 -0.046875 0.40625zm0.484375 -7.609375q0 0.4375 0.140625 0.8125q0.15625 0.375 0.421875 0.640625q0.28125 0.25 0.640625 0.390625q0.359375 0.140625 0.8125 0.140625q0.484375 0 0.859375 -0.15625q0.375 -0.171875 0.625 -0.4375q0.265625 -0.28125 0.390625 -0.640625q0.140625 -0.359375 0.140625 -0.75q0 -0.453125 -0.15625 -0.8125q-0.140625 -0.375 -0.421875 -0.640625q-0.265625 -0.265625 -0.640625 -0.40625q-0.359375 -0.140625 -0.796875 -0.140625q-0.484375 0 -0.859375 0.171875q-0.375 0.15625 -0.640625 0.4375q-0.25 0.265625 -0.390625 0.640625q-0.125 0.359375 -0.125 0.75z" fill-rule="nonzero"></path><path fill="#000000" fill-opacity="0.0" d="m423.94882 153.12582l256.00406 0l0 35.32921l-256.00406 0z" fill-rule="evenodd"></path><path stroke="#000000" stroke-width="3.0" stroke-linejoin="round" stroke-linecap="butt" d="m423.94882 153.12582l256.00406 0l0 35.32921l-256.00406 0z" fill-rule="evenodd"></path><path fill="#000000" d="m434.8082 166.06253l1.484375 0l0.046875 1.71875q0.828125 -1.0 1.625 -1.4375q0.796875 -0.453125 1.625 -0.453125q1.4375 0 2.1875 0.9375q0.75 0.9375 0.6875 2.78125l-1.625 0q0.015625 -1.21875 -0.375 -1.765625q-0.375 -0.5625 -1.109375 -0.5625q-0.328125 0 -0.65625 0.125q-0.328125 0.109375 -0.6875 0.375q-0.34375 0.25 -0.734375 0.65625q-0.390625 0.390625 -0.828125 0.953125l0 5.984375l-1.640625 0l0 -9.3125zm17.991669 4.578125q0 1.09375 -0.3125 2.0q-0.296875 0.890625 -0.875 1.546875q-0.578125 0.640625 -1.40625 1.0q-0.828125 0.359375 -1.875 0.359375q-1.0 0 -1.796875 -0.3125q-0.78125 -0.3125 -1.34375 -0.90625q-0.546875 -0.609375 -0.84375 -1.5q-0.28125 -0.890625 -0.28125 -2.0625q0 -1.078125 0.296875 -1.96875q0.3125 -0.90625 0.875 -1.546875q0.578125 -0.640625 1.40625 -1.0q0.828125 -0.359375 1.875 -0.359375q1.0 0 1.796875 0.3125q0.796875 0.3125 1.34375 0.921875q0.5625 0.59375 0.84375 1.484375q0.296875 0.890625 0.296875 2.03125zm-1.65625 0.078125q0 -0.859375 -0.1875 -1.5q-0.1875 -0.65625 -0.546875 -1.078125q-0.34375 -0.4375 -0.859375 -0.65625q-0.5 -0.21875 -1.125 -0.21875q-0.71875 0 -1.234375 0.28125q-0.515625 0.28125 -0.84375 0.765625q-0.328125 0.46875 -0.484375 1.09375q-0.15625 0.625 -0.15625 1.3125q0 0.859375 0.1875 1.515625q0.203125 0.640625 0.546875 1.078125q0.359375 0.421875 0.859375 0.640625q0.5 0.21875 1.125 0.21875q0.734375 0 1.25 -0.28125q0.515625 -0.28125 0.84375 -0.75q0.328125 -0.46875 0.46875 -1.09375q0.15625 -0.640625 0.15625 -1.328125zm6.9760437 -7.125l-2.75 0l0 -1.328125l4.390625 0l0 11.765625l2.765625 0l0 1.34375l-7.46875 0l0 -1.34375l3.0625 0l0 -10.4375zm14.960419 6.625q0 0.34375 -0.015625 0.578125q-0.015625 0.234375 -0.03125 0.4375l-6.53125 0q0 1.4375 0.796875 2.203125q0.796875 0.765625 2.296875 0.765625q0.40625 0 0.8125 -0.03125q0.40625 -0.046875 0.78125 -0.09375q0.390625 -0.0625 0.734375 -0.125q0.34375 -0.078125 0.640625 -0.15625l0 1.328125q-0.65625 0.1875 -1.484375 0.296875q-0.828125 0.125 -1.71875 0.125q-1.203125 0 -2.0625 -0.328125q-0.859375 -0.328125 -1.421875 -0.9375q-0.546875 -0.625 -0.8125 -1.515625q-0.265625 -0.890625 -0.265625 -2.03125q0 -0.984375 0.28125 -1.859375q0.296875 -0.875 0.828125 -1.53125q0.546875 -0.671875 1.328125 -1.0625q0.796875 -0.390625 1.796875 -0.390625q0.984375 0 1.734375 0.3125q0.75 0.296875 1.265625 0.859375q0.515625 0.5625 0.78125 1.375q0.265625 0.796875 0.265625 1.78125zm-1.6875 -0.21875q0.03125 -0.625 -0.125 -1.140625q-0.140625 -0.515625 -0.453125 -0.890625q-0.3125 -0.375 -0.78125 -0.578125q-0.453125 -0.203125 -1.078125 -0.203125q-0.515625 0 -0.953125 0.203125q-0.4375 0.203125 -0.765625 0.578125q-0.3125 0.359375 -0.5 0.890625q-0.1875 0.515625 -0.234375 1.140625l4.890625 0zm11.444794 2.828125q0 0.5 -0.171875 0.890625q-0.15625 0.390625 -0.453125 0.6875q-0.28125 0.296875 -0.671875 0.515625q-0.375 0.21875 -0.8125 0.359375q-0.421875 0.125 -0.875 0.1875q-0.453125 0.078125 -0.890625 0.078125q-0.953125 0 -1.75 -0.09375q-0.78125 -0.078125 -1.546875 -0.265625l0 -1.484375q0.8125 0.234375 1.625 0.359375q0.8125 0.109375 1.609375 0.109375q1.15625 0 1.703125 -0.3125q0.5625 -0.3125 0.5625 -0.890625q0 -0.25 -0.09375 -0.453125q-0.078125 -0.203125 -0.3125 -0.375q-0.234375 -0.1875 -0.71875 -0.375q-0.484375 -0.203125 -1.328125 -0.453125q-0.640625 -0.1875 -1.171875 -0.421875q-0.53125 -0.234375 -0.921875 -0.5625q-0.390625 -0.328125 -0.609375 -0.765625q-0.21875 -0.4375 -0.21875 -1.03125q0 -0.390625 0.171875 -0.84375q0.1875 -0.46875 0.625 -0.859375q0.4375 -0.40625 1.171875 -0.671875q0.75 -0.265625 1.859375 -0.265625q0.546875 0 1.21875 0.0625q0.671875 0.0625 1.390625 0.203125l0 1.4375q-0.765625 -0.171875 -1.453125 -0.265625q-0.671875 -0.09375 -1.171875 -0.09375q-0.609375 0 -1.03125 0.09375q-0.40625 0.09375 -0.65625 0.265625q-0.25 0.15625 -0.375 0.375q-0.109375 0.21875 -0.109375 0.46875q0 0.25 0.09375 0.453125q0.109375 0.203125 0.375 0.390625q0.265625 0.1875 0.734375 0.390625q0.46875 0.1875 1.234375 0.40625q0.828125 0.234375 1.390625 0.5q0.5625 0.265625 0.90625 0.59375q0.359375 0.328125 0.515625 0.734375q0.15625 0.40625 0.15625 0.921875zm6.6166687 -6.9375q0.296875 0 0.546875 0.125q0.265625 0.109375 0.453125 0.3125q0.203125 0.1875 0.3125 0.453125q0.125 0.25 0.125 0.546875q0 0.296875 -0.125 0.546875q-0.109375 0.25 -0.3125 0.453125q-0.1875 0.1875 -0.453125 0.296875q-0.25 0.109375 -0.546875 0.109375q-0.296875 0 -0.546875 -0.109375q-0.25 -0.109375 -0.453125 -0.296875q-0.1875 -0.203125 -0.3125 -0.453125q-0.109375 -0.25 -0.109375 -0.546875q0 -0.296875 0.109375 -0.546875q0.125 -0.265625 0.3125 -0.453125q0.203125 -0.203125 0.453125 -0.3125q0.25 -0.125 0.546875 -0.125zm0 6.796875q0.296875 0 0.546875 0.125q0.265625 0.109375 0.453125 0.3125q0.203125 0.1875 0.3125 0.453125q0.125 0.25 0.125 0.546875q0 0.296875 -0.125 0.546875q-0.109375 0.25 -0.3125 0.453125q-0.1875 0.1875 -0.453125 0.296875q-0.25 0.125 -0.546875 0.125q-0.296875 0 -0.546875 -0.125q-0.25 -0.109375 -0.453125 -0.296875q-0.1875 -0.203125 -0.3125 -0.453125q-0.109375 -0.25 -0.109375 -0.546875q0 -0.296875 0.109375 -0.546875q0.125 -0.265625 0.3125 -0.453125q0.203125 -0.203125 0.453125 -0.3125q0.25 -0.125 0.546875 -0.125zm23.077087 6.484375l-4.578125 0l0 -17.234375l4.578125 0l0 1.296875l-3.046875 0l0 14.640625l3.046875 0l0 1.296875zm9.726013 0l-4.578125 0l0 -1.296875l3.015625 0l0 -14.640625l-3.015625 0l0 -1.296875l4.578125 0l0 17.234375z" fill-rule="nonzero"></path><path fill="#000000" fill-opacity="0.0" d="m303.99146 224.45772l104.04794 0" fill-rule="evenodd"></path><path stroke="#000000" stroke-width="2.0" stroke-linejoin="round" stroke-linecap="butt" d="m303.99146 224.45772l104.04794 0" fill-rule="evenodd"></path><path fill="#000000" fill-opacity="0.0" d="m407.15048 211.22806l-17.08252 12.944885" fill-rule="evenodd"></path><path stroke="#000000" stroke-width="2.0" stroke-linejoin="round" stroke-linecap="butt" d="m407.15048 211.22806l-17.08252 12.944885" fill-rule="evenodd"></path><path fill="#000000" fill-opacity="0.0" d="m407.15048 237.98921l-17.08252 -12.944885" fill-rule="evenodd"></path><path stroke="#000000" stroke-width="2.0" stroke-linejoin="round" stroke-linecap="butt" d="m407.15048 237.98921l-17.08252 -12.944885" fill-rule="evenodd"></path><path fill="#000000" fill-opacity="0.0" d="m389.62457 214.91441l-0.10183716 19.086609" fill-rule="evenodd"></path><path stroke="#000000" stroke-width="2.0" stroke-linejoin="round" stroke-linecap="butt" d="m389.62457 214.91441l-0.10183716 19.086609" fill-rule="evenodd"></path><path fill="#000000" fill-opacity="0.0" d="m321.0294 214.91441l-0.10183716 19.086609" fill-rule="evenodd"></path><path stroke="#000000" stroke-width="2.0" stroke-linejoin="round" stroke-linecap="butt" d="m321.0294 214.91441l-0.10183716 19.086609" fill-rule="evenodd"></path><path fill="#000000" fill-opacity="0.0" d="m321.07394 224.45772l-17.082489 12.94487" fill-rule="evenodd"></path><path stroke="#000000" stroke-width="2.0" stroke-linejoin="round" stroke-linecap="butt" d="m321.07394 224.45772l-17.082489 12.94487" fill-rule="evenodd"></path><path fill="#000000" fill-opacity="0.0" d="m320.92755 224.45772l-16.751526 -12.787399" fill-rule="evenodd"></path><path stroke="#000000" stroke-width="2.0" stroke-linejoin="round" stroke-linecap="butt" d="m320.92755 224.45772l-16.751526 -12.787399" fill-rule="evenodd"></path></g></svg>

