<?xml version="1.0" encoding="UTF-8"?>
<!DOCTYPE svg PUBLIC "-//W3C//DTD SVG 1.1//EN" "http://www.w3.org/Graphics/SVG/1.1/DTD/svg11.dtd">
<svg version="1.1" xmlns="http://www.w3.org/2000/svg" xmlns:xlink="http://www.w3.org/1999/xlink" x="0" y="0" width="460" height="470" viewBox="0, 0, 460, 470">
  <g id="Layer_1">
    <g>
      <g>
        <path d="M210.272,48.449 C210.272,47.1 207.366,46.006 203.776,46.006 L16.768,46.006 C13.181,46.006 10.272,47.1 10.272,48.449 L10.272,118.814 C10.272,120.164 13.181,121.259 16.768,121.259 L203.776,121.259 C207.366,121.259 210.272,120.164 210.272,118.814 L210.272,48.449" fill="#3299CC"/>
        <text transform="matrix(1, 0, 0, 1, 115.928, 76.321)">
          <tspan x="-48.613" y="11" font-family=".LucidaGrandeUI" font-size="30" fill="#FFFFFF">Router</tspan>
        </text>
      </g>
      <text transform="matrix(1, 0, 0, 1, 117.734, 101.954)">
        <tspan x="-45.69" y="7" font-family=".LucidaGrandeUI" font-size="20" fill="#FFFFFF">(mongos)</tspan>
      </text>
    </g>
    <g>
      <g>
        <path d="M220.248,392.148 C220.248,390.804 217.342,389.714 213.752,389.714 L26.744,389.714 C23.158,389.714 20.248,390.804 20.248,392.148 L20.248,462.277 C20.248,463.623 23.158,464.714 26.744,464.714 L213.752,464.714 C217.342,464.714 220.248,463.623 220.248,462.277 L220.248,392.148" fill="#6CB340"/>
        <path d="M220.248,392.148 C220.248,390.804 217.342,389.714 213.752,389.714 L26.744,389.714 C23.158,389.714 20.248,390.804 20.248,392.148 L20.248,462.277 C20.248,463.623 23.158,464.714 26.744,464.714 L213.752,464.714 C217.342,464.714 220.248,463.623 220.248,462.277 L220.248,392.148" fill-opacity="0" stroke="#BBDB88" stroke-width="1" stroke-dasharray="3,2"/>
      </g>
      <text transform="matrix(1, 0, 0, 1, 127.867, 423.214)">
        <tspan x="-41.75" y="11" font-family=".LucidaGrandeUI" font-size="30" fill="#FFFFFE">Shard</tspan>
      </text>
    </g>
    <g>
      <g>
        <path d="M429.846,392.148 C429.846,390.804 426.94,389.714 423.35,389.714 L236.342,389.714 C232.755,389.714 229.846,390.804 229.846,392.148 L229.846,462.277 C229.846,463.623 232.755,464.714 236.342,464.714 L423.35,464.714 C426.94,464.714 429.846,463.623 429.846,462.277 L429.846,392.148" fill="#6CB340"/>
        <path d="M429.846,392.148 C429.846,390.804 426.94,389.714 423.35,389.714 L236.342,389.714 C232.755,389.714 229.846,390.804 229.846,392.148 L229.846,462.277 C229.846,463.623 232.755,464.714 236.342,464.714 L423.35,464.714 C426.94,464.714 429.846,463.623 429.846,462.277 L429.846,392.148" fill-opacity="0" stroke="#BBDB88" stroke-width="1" stroke-dasharray="3,2"/>
      </g>
      <text transform="matrix(1, 0, 0, 1, 337.465, 423.214)">
        <tspan x="-41.75" y="11" font-family=".LucidaGrandeUI" font-size="30" fill="#FFFFFE">Shard</tspan>
      </text>
    </g>
    <path d="M119.243,380.537 L119.789,379.767 L120.818,378.399 L121.837,377.147 L122.871,375.968 L123.923,374.858 L124.993,373.812 L126.084,372.826 L127.197,371.895 L128.335,371.015 L129.502,370.183 L130.698,369.395 L131.926,368.651 L133.862,367.596 L136.535,366.348 L139.295,365.279 L142.172,364.366 L145.151,363.603 L148.225,362.984 L151.381,362.502 L154.61,362.146 L157.904,361.905 L161.254,361.768 L164.652,361.723 L168.093,361.757 L173.322,361.931 L180.373,362.323 L187.472,362.802 L194.58,363.264 L199.895,363.537 L203.423,363.659 L206.925,363.718 L210.402,363.699 L213.85,363.59 L217.263,363.376 L218.971,363.224 L218.971,363.224 C219.007,363.221 219.043,363.217 219.08,363.211 L219.08,363.211 L219.434,363.159 L220.426,362.893 L221.56,362.398 L222.675,361.72 L224.059,360.621 L225.576,359.14 L226.759,357.902 L227.374,357.328 L227.575,357.192 L227.717,357.133 L227.796,357.144 L227.917,357.164 L228.171,357.194 L228.29,357.225 L228.19,357.211 L228.555,357.277 L229.315,357.476 L230.217,357.773 L231.25,358.16 L232.381,358.619 L233.588,359.135 L235.493,359.984 L238.097,361.169 L240.015,362.034 L241.242,362.573 L242.406,363.063 L243.489,363.49 L244.478,363.842 L245.359,364.103 L245.786,364.201 L245.786,364.201 C245.801,364.205 245.817,364.208 245.832,364.211 L245.832,364.211 L247.133,364.448 L249.788,364.82 L252.467,365.057 L255.148,365.17 L257.83,365.173 L260.508,365.081 L264.501,364.794 L269.796,364.212 L275.04,363.505 L280.201,362.786 L285.261,362.166 L288.973,361.832 L291.402,361.696 L293.811,361.644 L296.189,361.689 L298.535,361.844 L300.849,362.122 L303.131,362.536 L305.38,363.1 L307.597,363.827 L309.78,364.732 L311.93,365.828 L314.043,367.13 L316.12,368.651 L318.158,370.408 L319.655,371.883 L320.639,372.945 L321.618,374.079 L322.585,375.282 L323.061,375.905 L323.061,375.905 C323.567,376.568 324.957,376.189 326.165,375.059 C327.373,373.929 327.942,372.476 327.435,371.813 C327.435,371.813 327.435,371.813 327.435,371.813 L326.936,371.161 L325.936,369.918 L324.922,368.744 L323.89,367.632 L322.318,366.089 L320.186,364.258 L318.005,362.666 L315.776,361.3 L313.504,360.147 L311.189,359.194 L308.835,358.427 L306.444,357.832 L304.021,357.397 L301.569,357.106 L299.09,356.946 L296.59,356.901 L294.07,356.958 L291.523,357.102 L287.693,357.449 L282.569,358.077 L277.425,358.794 L272.274,359.49 L267.115,360.06 L263.245,360.339 L260.679,360.43 L258.117,360.43 L255.561,360.325 L253.01,360.102 L250.45,359.745 L249.148,359.508 L249.195,359.517 L248.895,359.452 L248.113,359.223 L247.186,358.895 L246.141,358.482 L245.001,358.003 L243.79,357.471 L241.878,356.609 L239.26,355.417 L237.332,354.559 L236.094,354.03 L234.915,353.552 L233.809,353.14 L232.785,352.807 L231.869,352.574 L231.502,352.507 L231.502,352.507 C231.469,352.501 231.436,352.497 231.402,352.494 L231.402,352.494 L230.816,352.457 L229.722,352.572 L228.565,352.938 L227.427,353.52 L226.401,354.219 L225.472,354.992 L224.44,355.984 L223.455,357.018 L222.759,357.751 L222.399,358.097 L222.29,358.21 L222.139,358.327 L221.772,358.455 L221.416,358.507 L221.525,358.494 L219.908,358.639 L216.597,358.848 L213.233,358.956 L209.822,358.975 L206.371,358.918 L202.89,358.798 L197.614,358.527 L190.512,358.065 L183.38,357.584 L176.267,357.189 L170.969,357.014 L167.458,356.979 L163.971,357.027 L160.512,357.17 L157.085,357.423 L153.693,357.801 L150.337,358.319 L147.019,358.994 L143.739,359.843 L140.498,360.887 L137.296,362.146 L134.17,363.624 L131.871,364.89 L130.333,365.831 L128.811,366.843 L127.308,367.927 L125.827,369.084 L124.371,370.315 L122.946,371.617 L121.555,372.991 L120.201,374.434 L118.887,375.945 L117.615,377.523 L116.413,379.128 L115.866,379.9 C114.946,381.198 114.957,382.393 115.889,382.569 C116.822,382.745 118.324,381.835 119.243,380.537 L119.243,380.537" fill="#6CB340"/>
    <text transform="matrix(1, 0, 0, 1, 232.128, 376.214)">
      <tspan x="-87.981" y="7.5" font-family=".LucidaGrandeUI" font-size="21" fill="#6CB340">2 or more Shards</tspan>
    </text>
    <g>
      <g>
        <path d="M449.855,48.567 C449.855,47.223 446.95,46.133 443.359,46.133 L256.352,46.133 C252.765,46.133 249.855,47.223 249.855,48.567 L249.855,118.696 C249.855,120.042 252.765,121.133 256.352,121.133 L443.359,121.133 C446.95,121.133 449.855,120.042 449.855,118.696 L449.855,48.567" fill="#3299CC"/>
        <text transform="matrix(1, 0, 0, 1, 355.511, 76.402)">
          <tspan x="-48.613" y="11" font-family=".LucidaGrandeUI" font-size="30" fill="#FFFFFF">Router</tspan>
        </text>
      </g>
      <text transform="matrix(1, 0, 0, 1, 357.317, 101.93)">
        <tspan x="-45.69" y="7" font-family=".LucidaGrandeUI" font-size="20" fill="#FFFFFF">(mongos)</tspan>
      </text>
    </g>
    <path d="M61.578,154.152 L62.343,154.907 L63.936,156.38 L65.595,157.783 L67.31,159.112 L69.081,160.37 L70.905,161.558 L72.781,162.677 L74.707,163.729 L76.682,164.717 L78.703,165.642 L80.769,166.505 L82.879,167.309 L85.029,168.055 L87.22,168.744 L89.448,169.38 L91.713,169.963 L94.013,170.494 L96.345,170.977 L99.896,171.613 L104.732,172.305 L109.676,172.834 L114.708,173.212 L119.815,173.453 L124.983,173.571 L130.199,173.58 L135.449,173.494 L140.721,173.327 L148.636,172.954 L159.145,172.301 L169.507,171.569 L177.113,171.034 L182.078,170.711 L186.945,170.429 L191.702,170.203 L196.333,170.045 L200.826,169.97 L205.167,169.991 L209.343,170.12 L211.354,170.229 L211.332,170.227 L213.04,170.349 L216.5,170.693 L220.002,171.198 L223.506,171.891 L226.094,172.55 L227.788,173.061 L229.46,173.636 L231.097,174.277 L232.69,174.987 L234.234,175.77 L235.722,176.628 L237.147,177.566 L237.825,178.058 L237.785,178.027 L237.978,178.187 L238.241,178.489 L238.451,178.828 L238.64,179.227 L238.896,179.936 L239.19,180.99 L239.491,182.096 L239.772,182.931 L240.014,183.479 L240.309,183.979 L240.68,184.43 L241.15,184.81 L241.742,185.092 L242.15,185.201 L242.15,185.201 C242.197,185.212 242.246,185.22 242.297,185.225 L242.297,185.225 L242.422,185.237 L242.959,185.218 L243.622,185.083 L244.29,184.853 L245.211,184.419 L246.448,183.686 L247.704,182.819 L248.946,181.881 L250.187,180.892 L251.425,179.874 L253.257,178.349 L255.023,176.895 L256.105,176.037 L257.102,175.286 L257.971,174.687 L258.666,174.274 L258.991,174.129 L259.084,174.108 L259.061,174.124 L258.962,174.153 L259.523,173.999 L260.603,173.738 L262.299,173.41 L264.702,173.08 L267.235,172.864 L269.885,172.749 L272.628,172.722 L275.438,172.771 L278.292,172.882 L282.613,173.131 L288.324,173.543 L292.484,173.846 L295.167,174.018 L297.752,174.148 L300.222,174.221 L301.42,174.231 L301.42,174.231 C301.42,174.231 301.421,174.231 301.422,174.231 L301.422,174.231 L301.996,174.235 L303.268,174.267 L304.727,174.324 L306.362,174.401 L308.153,174.491 L310.084,174.588 L312.138,174.685 L314.297,174.776 L316.547,174.854 L318.871,174.913 L322.456,174.951 L327.349,174.873 L331.05,174.689 L333.505,174.494 L335.919,174.232 L338.29,173.897 L340.604,173.48 L342.852,172.972 L345.025,172.36 L347.118,171.632 L349.135,170.766 L351.081,169.729 L352.557,168.774 L353.557,168.022 L354.477,167.235 L355.364,166.37 L356.198,165.435 L356.959,164.443 L357.629,163.413 L358.195,162.365 L358.655,161.311 L359.012,160.259 L359.273,159.207 L359.445,158.152 L359.531,157.088 L359.537,156.01 L359.464,154.911 L359.314,153.788 L359.207,153.199 L359.207,153.199 C359.034,152.264 357.842,152.249 356.544,153.165 C355.245,154.082 354.332,155.584 354.504,156.519 L354.594,157 L354.728,157.955 L354.794,158.852 L354.797,159.687 L354.745,160.457 L354.644,161.157 L354.504,161.785 L354.335,162.336 L354.148,162.814 L353.95,163.225 L353.742,163.585 L353.516,163.914 L353.258,164.233 L352.951,164.557 L352.581,164.895 L352.197,165.207 L351.43,165.735 L350.097,166.473 L348.532,167.162 L346.773,167.784 L344.856,168.33 L342.806,168.798 L340.648,169.19 L338.403,169.509 L336.09,169.761 L333.738,169.95 L330.147,170.13 L325.335,170.207 L321.792,170.17 L319.496,170.112 L317.267,170.035 L315.122,169.945 L313.077,169.848 L311.146,169.751 L309.345,169.661 L307.688,169.583 L306.188,169.524 L304.865,169.492 L304.289,169.488 L304.291,169.488 L303.155,169.479 L300.744,169.408 L298.197,169.281 L295.538,169.11 L291.376,168.807 L285.626,168.393 L281.252,168.141 L278.336,168.028 L275.444,167.979 L272.593,168.009 L269.798,168.133 L267.073,168.371 L264.444,168.739 L262.54,169.112 L261.312,169.411 L260.749,169.565 L260.749,169.565 C260.716,169.574 260.683,169.584 260.65,169.595 L260.65,169.595 L260.26,169.726 L259.573,170.014 L258.613,170.512 L257.41,171.256 L256.203,172.1 L254.986,173.021 L253.75,174.003 L251.931,175.501 L250.157,176.979 L249.044,177.894 L248.02,178.715 L247.119,179.404 L246.393,179.924 L245.846,180.277 L245.582,180.426 L245.542,180.461 L245.566,180.483 L245.541,180.506 L245.414,180.494 L245.561,180.518 L245.492,180.518 L245.241,180.435 L245.003,180.274 L244.78,180.03 L244.577,179.705 L244.399,179.32 L244.154,178.603 L243.848,177.477 L243.508,176.281 L243.179,175.401 L242.892,174.831 L242.535,174.3 L242.119,173.853 L241.926,173.691 L241.926,173.691 C241.913,173.681 241.9,173.67 241.886,173.661 L241.886,173.661 L241.149,173.127 L239.645,172.141 L238.078,171.24 L236.457,170.421 L234.788,169.679 L233.079,169.011 L231.335,168.413 L229.555,167.878 L226.855,167.195 L223.233,166.481 L219.622,165.963 L216.089,165.612 L214.379,165.491 L214.379,165.491 C214.372,165.49 214.364,165.49 214.357,165.49 L214.357,165.49 L212.281,165.378 L208.028,165.247 L203.621,165.227 L199.073,165.304 L194.397,165.463 L189.607,165.691 L184.715,165.974 L179.733,166.299 L172.125,166.833 L161.792,167.563 L151.333,168.214 L143.468,168.585 L138.245,168.751 L133.05,168.837 L127.897,168.829 L122.799,168.713 L117.768,168.476 L112.818,168.106 L107.961,167.588 L103.205,166.908 L99.715,166.285 L97.431,165.813 L95.181,165.293 L92.968,164.724 L90.791,164.104 L88.653,163.432 L86.555,162.705 L84.499,161.923 L82.486,161.083 L80.519,160.184 L78.598,159.224 L76.725,158.202 L74.901,157.116 L73.129,155.963 L71.41,154.744 L69.745,153.456 L68.136,152.096 L66.579,150.658 L65.813,149.902 C65.813,149.902 65.813,149.902 65.813,149.902 C65.223,149.32 63.797,149.8 62.627,150.974 C61.458,152.147 60.988,153.57 61.578,154.152 L61.578,154.152" fill="#3299CC"/>
    <g>
      <path d="M244.189,210.931 L244.189,299.277" fill-opacity="0" stroke="#5A5955" stroke-width="4"/>
      <g>
        <path d="M248.989,210.931 L244.189,198.131 L239.389,210.931 z" fill="#5A5955"/>
        <path d="M248.989,210.931 L244.189,198.131 L239.389,210.931 z" fill-opacity="0" stroke="#5A5955" stroke-width="4"/>
      </g>
      <g>
        <path d="M239.389,299.277 L244.189,312.077 L248.989,299.277 z" fill="#5A5955"/>
        <path d="M239.389,299.277 L244.189,312.077 L248.989,299.277 z" fill-opacity="0" stroke="#5A5955" stroke-width="4"/>
      </g>
    </g>
    <text transform="matrix(1, 0, 0, 1, 247.244, 146.527)">
      <tspan x="-92.785" y="7.5" font-family=".LucidaGrandeUI" font-size="21" fill="#3299CC">2 or more Routers</tspan>
    </text>
    <path d="M4.421,7.762 L215.769,7.762 L215.769,126.027 L4.421,126.027 z" fill-opacity="0" stroke="#5A5955" stroke-width="2" stroke-dasharray="6,4"/>
    <path d="M244.189,7.762 L454.385,7.762 L454.385,126.027 L244.189,126.027 z" fill-opacity="0" stroke="#5A5955" stroke-width="2" stroke-dasharray="6,4"/>
    <text transform="matrix(1, 0, 0, 1, 73.783, 18.786)">
      <tspan x="-63.512" y="8.5" font-family=".LucidaGrandeUI" font-size="24" fill="#3F3C3C">App Server</tspan>
    </text>
    <text transform="matrix(1, 0, 0, 1, 313.367, 18.786)">
      <tspan x="-63.512" y="8.5" font-family=".LucidaGrandeUI" font-size="24" fill="#3F3C3C">App Server</tspan>
    </text>
    <text transform="matrix(1, 0, 0, 1, 130.329, 447.214)">
      <tspan x="-59.286" y="7.5" font-family=".LucidaGrandeUI" font-size="21" fill="#FFFFFF">(replica set)</tspan>
    </text>
    <text transform="matrix(1, 0, 0, 1, 339.079, 447.214)">
      <tspan x="-59.286" y="7.5" font-family=".LucidaGrandeUI" font-size="21" fill="#FFFFFF">(replica set)</tspan>
    </text>
  </g>
</svg>
