<?xml version="1.0" encoding="utf-8"?>
<!-- Generator: Adobe Illustrator 19.2.1, SVG Export Plug-In . SVG Version: 6.00 Build 0)  -->
<svg version="1.1" id="Layer_1" xmlns="http://www.w3.org/2000/svg" xmlns:xlink="http://www.w3.org/1999/xlink" x="0px" y="0px"
	 viewBox="0 0 2550 3300" style="enable-background:new 0 0 2550 3300;" xml:space="preserve">
<style type="text/css">
	.st0{display:none;}
	.st1{display:inline;fill:none;stroke:#000000;stroke-width:4.167;}
	.st2{display:none;enable-background:new    ;}
	.st3{font-family:'ArialMT';}
	.st4{font-size:157.1625px;}
	.st5{fill:#FF0000;}
	.st6{font-size:77px;}
	.st7{fill:#2E3192;}
	.st8{font-size:138.8811px;}
	.st9{fill:none;stroke:#FF0000;stroke-width:4.167;}
	.st10{fill:none;stroke:#2E3192;stroke-width:4.167;}
	.st11{fill:none;stroke:#000000;stroke-width:4.167;}
	.st12{font-size:86px;}
	.st13{font-size:100.8056px;}
	.st14{fill:none;}
	.st15{font-size:68.0085px;}
	.st16{fill:none;stroke:#231F20;stroke-width:4;}
	.st17{font-family:'MyriadPro-Regular';}
	.st18{font-size:112px;}
	.st19{font-size:140px;}
	.st20{fill:none;stroke:#231F20;stroke-width:4.167;}
	.st21{font-family:'MyriadPro-Bold';}
	.st22{font-size:119px;}
	.st23{fill:none;stroke:#231F20;stroke-width:8;}
	.st24{fill:#231F20;}
	.st25{fill:#FF0000;stroke:#2E358F;stroke-width:5;}
	.st26{font-size:62px;}
	.st27{opacity:0.25;fill:#E490BD;enable-background:new    ;}
</style>
<g id="Layer_1_2_">
	<g id="Layer_1_1_">
		<g id="dashed_lines_P" class="st0">
			<path class="st1" d="M2429.2,886.5l4.2,1.7l-68.6,168l-4.2-1.7L2429.2,886.5z"/>
			<path id="Shape_1_copy" class="st1" d="M2314.9,886.5l4.2,1.7l-68.6,168l-4.2-1.7L2314.9,886.5z"/>
			<path id="Shape_1_copy_2" class="st1" d="M2200.6,886.5l4.2,1.7l-68.6,168l-4.2-1.7L2200.6,886.5z"/>
			<path id="Shape_1_copy_3" class="st1" d="M2086.3,886.5l4.2,1.7l-68.6,168l-4.2-1.7L2086.3,886.5z"/>
			<path id="Shape_1_copy_4" class="st1" d="M1983.5,886.5l4.2,1.7l-68.6,168l-4.2-1.7L1983.5,886.5z"/>
			<path id="Shape_1_copy_5" class="st1" d="M1869.2,886.5l4.2,1.7l-68.6,168l-4.2-1.7L1869.2,886.5z"/>
			<path id="Shape_1_copy_6" class="st1" d="M1754.9,886.5l4.2,1.7l-68.6,168l-4.2-1.7L1754.9,886.5z"/>
			<path id="Shape_1_copy_7" class="st1" d="M1640.7,886.5l4.2,1.7l-68.6,168l-4.2-1.7L1640.7,886.5z"/>
			<path id="Shape_1_copy_8" class="st1" d="M1526.4,886.5l4.2,1.7l-68.6,168l-4.2-1.7L1526.4,886.5z"/>
			<path id="Shape_1_copy_9" class="st1" d="M1412.1,886.5l4.2,1.7l-68.6,168l-4.2-1.7L1412.1,886.5z"/>
			<path id="Shape_1_copy_10" class="st1" d="M1297.8,886.5l4.2,1.7l-68.6,168l-4.2-1.7L1297.8,886.5z"/>
			<path id="Shape_1_copy_11" class="st1" d="M1183.5,886.5l4.2,1.7l-68.6,168l-4.2-1.7L1183.5,886.5z"/>
			<path id="Shape_1_copy_12" class="st1" d="M1069.2,886.5l4.2,1.7l-68.6,168l-4.2-1.7L1069.2,886.5z"/>
			<path id="Shape_1_copy_13" class="st1" d="M955,886.5l4.2,1.7l-68.6,168l-4.2-1.7L955,886.5z"/>
			<path id="Shape_1_copy_14" class="st1" d="M840.7,886.5l4.2,1.7l-68.6,168l-4.2-1.7L840.7,886.5z"/>
		</g>
		<g id="dashed_lines_S" class="st0">
			<path class="st1" d="M2432.6,564.3l4.2,1.7l-68.6,168l-4.2-1.7L2432.6,564.3z"/>
			<path id="Shape_1_copy-2" class="st1" d="M2318.3,564.3l4.2,1.7L2254,734l-4.2-1.7L2318.3,564.3z"/>
			<path id="Shape_1_copy_2-2" class="st1" d="M2204,564.3l4.2,1.7l-68.6,168l-4.2-1.7L2204,564.3z"/>
			<path id="Shape_1_copy_3-2" class="st1" d="M2089.8,564.3l4.2,1.7l-68.6,168l-4.2-1.7L2089.8,564.3z"/>
			<path id="Shape_1_copy_4-2" class="st1" d="M1986.9,564.3l4.2,1.7l-68.6,168l-4.2-1.7L1986.9,564.3z"/>
			<path id="Shape_1_copy_5-2" class="st1" d="M1872.6,564.3l4.2,1.7l-68.6,168l-4.2-1.7L1872.6,564.3z"/>
			<path id="Shape_1_copy_6-2" class="st1" d="M1758.3,564.3l4.2,1.7L1694,734l-4.2-1.7L1758.3,564.3z"/>
		</g>
		<g id="dashed_lines_S_copy" class="st0">
			<path class="st1" d="M2432.6,244.3l4.2,1.7l-68.6,168l-4.2-1.7L2432.6,244.3z"/>
			<path id="Shape_1_copy-3" class="st1" d="M2318.3,244.3l4.2,1.7L2254,414l-4.2-1.7L2318.3,244.3z"/>
			<path id="Shape_1_copy_2-3" class="st1" d="M2204,244.3l4.2,1.7l-68.6,168l-4.2-1.7L2204,244.3z"/>
			<path id="Shape_1_copy_3-3" class="st1" d="M2089.8,244.3l4.2,1.7l-68.6,168l-4.2-1.7L2089.8,244.3z"/>
			<path id="Shape_1_copy_4-3" class="st1" d="M1986.9,244.3l4.2,1.7l-68.6,168l-4.2-1.7L1986.9,244.3z"/>
			<path id="Shape_1_copy_5-3" class="st1" d="M1872.6,244.3l4.2,1.7l-68.6,168l-4.2-1.7L1872.6,244.3z"/>
		</g>
		<g id="Text">
			<text id="Stale_Read" transform="matrix(1 0 0 1 894.6602 159.125)" class="st2 st3 st4">Stale Read</text>
			<text id="S" transform="matrix(1 0 0 1 85.1191 384.8818)" class="st2 st3 st4">S</text>
			<text id="S_-_2" transform="matrix(1 0 0 1 85.1191 705.9756)" class="st2 st3 st4">S</text>
			<text id="P" transform="matrix(1 0 0 1 75.9761 1027.0684)" class="st2 st3 st4">P</text>
			<text id="W1" transform="matrix(1 0 0 1 570.9688 998.3359)" class="st5 st3 st6">W1</text>
			<text id="W1_copy" transform="matrix(1 0 0 1 1516.0547 678.3838)" class="st5 st3 st6">W1</text>
			<text id="W1_copy_2" transform="matrix(1 0 0 1 1693.1875 357.291)" class="st5 st3 st6">W1</text>
			<text id="R" transform="matrix(1 0 0 1 1236.0723 678.3838)" class="st7 st3 st6">R</text>
			<text id="APP_1" transform="matrix(1 0 0 1 446.4033 1426.8408)" class="st3 st8">APP 1</text>
			<text id="APP_2" transform="matrix(1 0 0 1 1269.2129 1426.8408)" class="st3 st8">APP 2</text>
		</g>
		<g id="Rectangles" class="st0">
			<path id="S-2" class="st1" d="M52,244h2423.9v170.3H52V244z"/>
			<path id="S_dashed_line_2" class="st1" d="M1635.9,244h840v170.3h-840L1635.9,244L1635.9,244z"/>
			<path id="S-3" class="st1" d="M52,565.1h2423.9v170.3H52V565.1z"/>
			<path id="S_dashed_line" class="st1" d="M1471.3,565.1h1004.5v170.3H1471.3V565.1z"/>
			<path id="P-2" class="st1" d="M52,886.2h2423.9v170.3H52V886.2z"/>
			<path id="P_dashed_line" class="st1" d="M520.5,886.2H2477v170.3H520.5V886.2z"/>
			<rect id="APP_1-2" x="367.4" y="1288.4" class="st1" width="499.4" height="177.1"/>
			<rect id="APP_2-2" x="1190.2" y="1288.4" class="st1" width="499.4" height="177.1"/>
		</g>
		<g id="Red_circles">
			<circle class="st9" cx="1739.3" cy="329.2" r="72.6"/>
			<circle id="Ellipse_1_copy_2" class="st9" cx="617.1" cy="970.2" r="72.6"/>
			<circle id="Ellipse_1_copy" class="st9" cx="1562.2" cy="650.2" r="72.6"/>
			<circle id="Ellipse_1_copy_1_" class="st9" cx="362.7" cy="2535.4" r="72.6"/>
		</g>
		<g id="Blue_circles">
			<circle id="Ellipse_1_copy_3" class="st10" cx="1262.8" cy="650.2" r="72.6"/>
		</g>
		<g id="Rectangles_dirty_read">
			<path id="P_copy_4" class="st11" d="M244.4,2449.4H962v170.3H244.4V2449.4z"/>
		</g>
		<g id="Text_dirty_read">
			<text id="APP_1_copy_2" transform="matrix(1 0 0 1 376.4033 2923.7539)" class="st3 st8">APP 1</text>
			<text id="APP_2_copy_2" transform="matrix(1 0 0 1 993.5117 2923.7539)" class="st3 st8">APP 2</text>
			<text id="W1-2" transform="matrix(1 0 0 1 302.5562 2566.0918)" class="st5 st3 st12">W1</text>
			<text id="R-2" transform="matrix(1 0 0 1 701.2451 2570.6641)" class="st7 st3 st13">R</text>
			<path id="Ellipse_1_copy_5" class="st10" d="M737.1,2462c40.1,0,72.6,32.5,72.6,72.6s-32.5,72.6-72.6,72.6s-72.6-32.5-72.6-72.6
				S697,2462,737.1,2462L737.1,2462z"/>
		</g>
		<g>
			<path id="Ellipse_1_copy_4" class="st14" d="M1613.1,1812.9c56.8,0,102.8,107.7,102.8,240.5s-46.1,240.5-102.8,240.5
				s-102.8-107.7-102.8-240.5S1556.2,1812.9,1613.1,1812.9z"/>
		</g>
		<g>
			<path id="Ellipse_1_copy_4_1_" class="st9" d="M1365.5,1813.5c56.8,0,102.8,107.7,102.8,240.5s-46.1,240.5-102.8,240.5
				s-93.8-107.7-93.8-240.5S1308.6,1813.5,1365.5,1813.5z"/>
		</g>
		<text transform="matrix(1 0 0 1 1157.3203 2516.2295)" class="st2 st3 st15">Server</text>
		<text transform="matrix(1 0 0 1 1157.3203 2597.8398)" class="st2 st3 st15">Crashes</text>
		<text transform="matrix(1 0 0 1 1820.1357 2857.8916)" class="st2 st3 st15">Server Recovers,</text>
		<text transform="matrix(1 0 0 1 1820.1357 2939.502)" class="st2 st3 st15">Write Rolled Back</text>
		<text id="Election" transform="matrix(1 0 0 1 1467.4355 2557.3652)" class="st2 st3 st15">Election</text>
	</g>
	<g id="Layer_2">
		<g>
			<g>
				<line class="st9" x1="614.6" y1="1289.1" x2="614" y2="1048.1"/>
				<g>
					<path class="st5" d="M634.1,1078.6c-1,0.6-2.3,0.3-2.9-0.6l-17.2-28.6l-17.1,28.7c-0.6,1.1-1.9,1.4-2.9,0.6
						c-1-0.6-1.3-2-0.6-3.1l18.8-31.7c0.4-0.6,1-1.1,1.8-1.1c0.7,0,1.4,0.4,1.8,1.1l19,31.6c0.2,0.3,0.3,0.7,0.3,1.2
						C635.1,1077.4,634.7,1078.2,634.1,1078.6z"/>
				</g>
			</g>
		</g>
	</g>
	<g id="Layer_2_copy_2">
		<g>
			<g>
				<line class="st9" x1="1561" y1="886.1" x2="1561.5" y2="728.4"/>
				<g>
					<path class="st5" d="M1581.4,759.9c-1,0.7-2.3,0.3-2.9-0.7l-17-29.7l-17.2,29.6c-0.6,1.1-1.9,1.4-2.9,0.7s-1.2-2.1-0.6-3.2
						l19-32.7c0.4-0.7,1-1.1,1.8-1.1s1.4,0.4,1.8,1.1l18.8,32.8c0.2,0.3,0.3,0.8,0.3,1.2C1582.4,758.8,1582,759.5,1581.4,759.9z"/>
				</g>
			</g>
		</g>
	</g>
	<g id="Layer_2_copy_3">
		<g>
			<g>
				<line class="st9" x1="1738.5" y1="564" x2="1738.7" y2="410.2"/>
				<g>
					<path class="st5" d="M1758.6,440.9c-1,0.6-2.3,0.3-2.9-0.6l-17.1-29l-17.2,29c-0.6,1.1-1.9,1.4-2.9,0.6c-1-0.6-1.2-2-0.6-3.1
						l18.9-31.9c0.4-0.6,1-1.1,1.8-1.1c0.7,0,1.4,0.4,1.8,1.1l18.8,32c0.2,0.3,0.3,0.8,0.3,1.2
						C1759.6,439.7,1759.3,440.5,1758.6,440.9z"/>
				</g>
			</g>
		</g>
	</g>
	<g id="Layer_2_copy">
		<g>
			<g>
				<line class="st10" x1="1264.7" y1="1282.4" x2="1261.7" y2="736.4"/>
				<g>
					<path class="st7" d="M1284.6,1253.8c-1-0.6-2.3-0.3-2.9,0.7l-17,27l-17.3-26.8c-0.6-1-1.9-1.2-2.9-0.6s-1.2,1.9-0.6,2.9
						l19,29.5c0.4,0.6,1.1,1,1.8,1c0.7,0,1.4-0.4,1.8-1l18.7-29.8c0.2-0.3,0.3-0.7,0.3-1.1
						C1285.5,1254.9,1285.2,1254.2,1284.6,1253.8z"/>
				</g>
			</g>
		</g>
	</g>
	<g id="Line_1_">
		<line class="st16" x1="490" y1="886" x2="490" y2="1054"/>
	</g>
	<g id="Line_copy">
		<line class="st16" x1="1469.3" y1="567.7" x2="1469.3" y2="735.7"/>
	</g>
	<g id="Line_copy_2">
		<line class="st16" x1="1639.3" y1="243.7" x2="1639.3" y2="411.7"/>
	</g>
	<g id="Layer_2_copy_5">
	</g>
	<g id="Text_1_">
		<text transform="matrix(1 0 0 1 81.4287 360)" class="st17 st18">S</text>
		<text transform="matrix(1 0 0 1 67.1433 1940.3572)" class="st17 st18">S</text>
		<text transform="matrix(1 0 0 1 1339.4922 1952.8571)" class="st17 st18">S</text>
		<text transform="matrix(1 0 0 1 2043.5714 2581.4285)" class="st17 st18">S</text>
		<text transform="matrix(1 0 0 1 81.4286 688.5714)" class="st17 st18">S</text>
		<text transform="matrix(1 0 0 1 67.1429 2254.6431)" class="st17 st18">S</text>
		<text transform="matrix(1 0 0 1 81.4286 1010)" class="st17 st18">P</text>
		<text transform="matrix(1 0 0 1 67.1431 2581.4285)" class="st17 st18">P</text>
		<text transform="matrix(1 0 0 1 1337.3077 2254.6431)" class="st17 st18">P</text>
		<text transform="matrix(1 0 0 1 920.6254 180.1428)" class="st17 st19">Stale Read</text>
		<text transform="matrix(1 0 0 1 919.0884 1758.7144)" class="st17 st19">Dirty Read</text>
	</g>
	<g id="S_Rectangle">
		<rect x="51.3" y="244" class="st20" width="2423.9" height="170.3"/>
	</g>
	<g id="S_Rectangle_copy">
		<rect x="51.3" y="566" class="st20" width="2423.9" height="170.3"/>
	</g>
	<g id="S_Rectangle_copy_2">
		<rect x="51.3" y="886" class="st20" width="2423.9" height="170.3"/>
	</g>
	<g id="S_Rectangle_copy_3">
		<rect x="51.3" y="1807.5" class="st20" width="2423.9" height="170.3"/>
	</g>
	<g id="S_Rectangle_copy_4">
		<rect x="51.3" y="2128.9" class="st20" width="2423.9" height="170.3"/>
	</g>
	<g id="S_Rectangle_copy_5">
		<rect x="51.3" y="2450.3" class="st20" width="910.7" height="170.3"/>
	</g>
	<g id="S_Rectangle_copy_6">
		<rect x="2019.8" y="2448.5" class="st20" width="419.4" height="170.3"/>
	</g>
	<g id="S_Rectangle_copy_7">
		<rect x="939.1" y="2787.7" class="st20" width="507.8" height="170.3"/>
	</g>
	<g id="S_Rectangle_copy_8">
		<rect x="312.7" y="2787.7" class="st20" width="507.8" height="170.3"/>
	</g>
	<g id="S_Rectangle_copy_9">
		<rect x="341.3" y="1289.5" class="st20" width="507.8" height="170.3"/>
	</g>
	<g id="S_Rectangle_copy_10">
		<rect x="1187.7" y="1289.5" class="st20" width="507.8" height="170.3"/>
	</g>
	<g id="Layer_54">
		<text transform="matrix(1 0 0 1 270.8088 3213.5779)" class="st21 st22">Time</text>
		<g>
			<g>
				<line class="st23" x1="634.2" y1="3179.4" x2="2318.7" y2="3177.9"/>
				<g>
					<polygon class="st24" points="2292.3,3210.6 2286.8,3204.8 2315.7,3177.9 2286.7,3151.1 2292.2,3145.2 2327.4,3177.9 					"/>
				</g>
			</g>
		</g>
	</g>
	<rect x="22.8" y="30.1" class="st16" width="2484.4" height="1493.8"/>
	<rect x="24.8" y="1608.2" class="st16" width="2484.4" height="1646.9"/>
	<g id="Layer_2_copy_4">
		<g>
			<g>
				<line class="st9" x1="365" y1="2787.3" x2="362.6" y2="2613.8"/>
				<g>
					<path class="st5" d="M383,2644.5c-1,0.7-2.3,0.4-2.9-0.7l-17.5-28.9l-16.7,29.5c-0.6,1.1-1.9,1.4-2.9,0.8s-1.3-2.1-0.7-3.2
						l18.4-32.5c0.4-0.7,1-1.1,1.7-1.1s1.4,0.3,1.8,1l19.3,32c0.2,0.3,0.3,0.8,0.3,1.2C384,2643.3,383.6,2644,383,2644.5z"/>
				</g>
			</g>
		</g>
	</g>
	<g id="Layer_2_copy_4_1_">
		<g>
			<g>
				<g>
					<line class="st7" x1="784.5" y1="2587.3" x2="980" y2="2783"/>
					<g>
						<path class="st7" d="M944,2775.4c0.2-1.2,1.4-1.9,2.6-1.5l32.7,8.4l-8.7-32.8c-0.3-1.2,0.4-2.3,1.5-2.6
							c1.1-0.3,2.4,0.6,2.7,1.8l9.6,36.1c0.2,0.8,0.1,1.5-0.4,2c-0.5,0.5-1.2,0.8-2,0.5l-36.2-9.3c-0.4-0.1-0.8-0.4-1.1-0.6
							C944.1,2777,943.9,2776.2,944,2775.4z"/>
					</g>
				</g>
			</g>
		</g>
	</g>
	<line class="st25" x1="979.2" y1="2782.2" x2="784.5" y2="2587.3"/>
</g>
<g id="server_crash">
	<text transform="matrix(1 0 0 1 987.125 2517.679)" class="st3 st26">Server</text>
	<text transform="matrix(1 0 0 1 987.125 2592.0791)" class="st3 st26">crashes</text>
</g>
<g id="Elections">
	<text transform="matrix(1 0 0 1 1248 2555.4128)" class="st3 st26">Election</text>
</g>
<g id="server_recovers">
	<text transform="matrix(1 0 0 1 1533.5 2522)" class="st3 st26">Server recovers</text>
	<text transform="matrix(1 0 0 1 1533.5 2596.3999)" class="st3 st26">write rolled back</text>
</g>
<g id="Pink_rectangle">
	<rect x="1864.5" y="244" class="st27" width="610.7" height="170.3"/>
</g>
<g id="Pink_rectangle_copy_2">
	<rect x="774.5" y="886" class="st27" width="1700.7" height="170.3"/>
</g>
<g id="Pink_rectangle_copy_3">
	<rect x="544.5" y="2448.5" class="st27" width="417.5" height="170.3"/>
</g>
<g id="Line_to_election">
	<line class="st9" x1="1365.5" y1="2294.5" x2="1365.5" y2="2492"/>
</g>
<g id="Pink_rectangle_copy">
	<rect x="1664.5" y="567" class="st27" width="810.7" height="170.3"/>
</g>
</svg>
